M48
;Layer_Color=9474304
;FILE_FORMAT=4:4
METRIC,LZ
;TYPE=PLATED
T1F00S00C0.3000
T2F00S00C0.9000
T3F00S00C1.0000
T4F00S00C1.0200
T5F00S00C1.1000
T6F00S00C1.2000
;TYPE=NON_PLATED
T7F00S00C0.3000
T8F00S00C1.0000
T9F00S00C2.7500
%
T01
X0043475Y0012275
X00435023Y00154009
X00418513Y00153
X00451524Y00145509
X00467024Y00147259
X0048Y0015375
X00495114Y00140886
X00507776Y00152759
X0053Y0015175
X00542028Y00152759
X0056425Y00153
X0054125Y001305
X00581Y0011925
X0061203Y00128256
X00615Y0010325
X00627782Y00096506
X00638283Y00105007
X0064625Y0008025
X0065925Y00125993
X00685783Y00121506
X0069325Y00104
X00704036Y00016753
X00718287Y00015753
X0073025Y00009011
X0074375Y0001625
X00608Y00058
X00612782Y00157509
X0060155Y00193983
X006495Y00196
X0053675Y00199
X005255Y001825
X00488526Y00196261
X00458Y0020225
X0043425Y0020025
X0045275Y00180763
X0034475Y0017825
X00315765Y00176009
X003135Y0018675
X0031925Y002035
X00320766Y00156508
X0031875Y0012
X0032Y0010325
X00316515Y00086254
X0027875Y0006725
X0018425Y0005375
X002005Y001085
X00202262Y00146509
X00196011Y00155509
X00187Y0017375
X00187Y0018425
X00186761Y00203012
X002275Y001925
X00225Y001675
X001675Y0015325
X00359017Y00155008
X00351719Y00143257
X00384Y0012825
X0038625Y0024825
X0035175Y0023125
X003355Y0023075
X0033575Y0022
X00314401Y002135
X00312Y0024625
X0030944Y00268015
X00299Y00279495
X00300266Y00295266
X00289516Y00307267
X00276265Y00282265
X00258264Y00288516
X00233263Y00291516
X002275Y0030075
X00228013Y00281515
X00234Y00261
X002545Y00249336
X002275Y0021975
X00186761Y00228763
X00187Y00239263
X00182Y0025475
X00181761Y00213262
X00186761Y00332268
X00180261Y00340768
X00197261Y00339268
X00208012Y00355269
X002235Y003485
X0023621Y00332925
X0026375Y00342438
X0028175Y003605
X00291766Y00350769
X0030625Y0035775
X00336518Y00361019
X003575Y0035975
X00337983Y00320017
X00327768Y00297266
X00318767Y00281265
X0031825Y0042025
X0028175Y0040525
X002195Y00411
X00200263Y00372424
X00188011Y0037802
X00180261Y00385271
X001315Y0036925
X00207262Y00459774
X0025075Y0044925
X00238263Y00516527
X00214Y0051575
X004205Y00459
X00461493Y00407243
X0052275Y0038675
X00523275Y00376018
X00518251Y00354751
X0050375Y0036075
X0051775Y0031675
X00549527Y00335516
X00595279Y00337766
X00593529Y00356267
X00601772Y0037052
X00599029Y00390019
Y00400519
X0061825Y004
X00677283Y0040202
X00704786Y0037877
X00663Y003425
X0065625Y00253
X00589Y0031375
X00566278Y00372268
X00598Y00441197
X0050125Y002465
X00486Y00259
X0049675Y0021975
X00444023Y00216512
T02
X007975Y000659
Y000913
Y001167
Y001421
Y001675
X006524Y0048885
X00627
Y0051425
X006524
T03
X006873Y002305
X007903
T04
X000487Y004773
X000741
X000995
X001249
X001503
X001757
X002011
X002265
X002519
X002773
X003027
X003281
X003535
X003789
Y005027
X003535
X003281
X003027
X002773
X002519
X002265
X002011
X001757
X001503
X001249
X000995
X000741
X000487
X004043
X004297
X004551
X004805
X005059
X005313
Y004773
X005059
X004805
X004551
X004297
X004043
T05
X007163Y001025
X007613
Y001675
Y002025
X007163
Y001675
Y002675
X0071875Y003025
X00759
X007613Y002675
X00759Y003675
X007613Y004025
X007163
X0071875Y003675
X0067375
Y003025
X007163Y004675
X007613
X00804Y003675
Y003025
T06
X006873Y002025
X007903
Y002675
X006873
T07
X0075Y-00035
X00755
X0076
X00765
X0077
X00775
X0078
X00785Y-00034999
X0079Y-00035
X00795
X00031
X00026
X00021
X00016
X00011
X00006
X00001
X-00004Y-00034999
X-00009Y-00035
X-00014
X-00019
X-00024
X-00015Y0053
X-0001
X-00005Y00529999
X0Y0053
X00005
X0001
X00015
X0002
X00025
X0003
X0075
X00755
X0076
X00765
X0077
X00775
X0078
X00785Y00529999
X0079Y0053
X00795
T08
X006525Y-000192
X-00025
Y004512
X006525
T09
X0058Y0
X0078Y-0007
X0
Y0
Y0049
Y00565
X0058Y0049
X0078Y00565
M30
