%FSLAX43Y43*%
%MOMM*%
G71*
G01*
G75*
G04 Layer_Color=16711935*
%ADD10R,0.800X1.800*%
%ADD11R,1.100X1.250*%
%ADD12C,1.500*%
%ADD13C,0.250*%
%ADD14C,0.300*%
%ADD15C,0.400*%
%ADD16C,0.500*%
%ADD17C,0.350*%
%ADD18C,1.650*%
%ADD19O,1.600X1.650*%
%ADD20C,1.600*%
%ADD21C,1.800*%
%ADD22C,1.520*%
%ADD23R,1.520X1.520*%
%ADD24R,1.500X1.500*%
%ADD25C,0.800*%
%ADD26R,1.400X2.000*%
%ADD27R,0.787X0.711*%
%ADD28R,0.760X2.400*%
%ADD29R,1.800X2.000*%
%ADD30R,0.250X1.100*%
%ADD31C,1.016*%
%ADD32O,2.200X0.600*%
%ADD33O,1.600X0.385*%
%ADD34R,0.711X0.787*%
%ADD35R,0.724X0.559*%
%ADD36R,0.762X0.787*%
%ADD37R,0.787X0.762*%
%ADD38R,1.050X0.600*%
%ADD39R,1.194X0.787*%
%ADD40R,1.200X0.250*%
%ADD41R,1.600X2.400*%
%ADD42C,0.800*%
%ADD43C,0.600*%
%ADD44C,0.475*%
%ADD45R,0.825X1.600*%
%ADD46C,0.200*%
%ADD47C,0.150*%
%ADD48C,0.254*%
%ADD49C,0.180*%
%ADD50C,0.160*%
%ADD51R,0.820X1.820*%
%ADD52R,1.120X1.270*%
%ADD53C,3.000*%
%ADD54C,1.670*%
%ADD55O,1.620X1.670*%
%ADD56C,1.620*%
%ADD57C,1.820*%
%ADD58C,1.540*%
%ADD59R,1.540X1.540*%
%ADD60R,1.520X1.520*%
%ADD61R,1.500X2.100*%
%ADD62R,0.807X0.731*%
%ADD63R,0.860X2.500*%
%ADD64R,1.820X2.020*%
%ADD65R,0.270X1.120*%
%ADD66C,1.036*%
%ADD67O,2.220X0.620*%
%ADD68O,1.620X0.405*%
%ADD69R,0.731X0.807*%
%ADD70R,0.744X0.579*%
%ADD71R,0.782X0.807*%
%ADD72R,0.807X0.782*%
%ADD73R,1.150X0.700*%
%ADD74R,1.214X0.807*%
%ADD75R,1.220X0.270*%
%ADD76R,1.620X2.420*%
%ADD77R,0.845X1.620*%
%ADD78R,1.275X0.800*%
%ADD79R,1.275X0.800*%
%ADD80R,1.300X0.500*%
%ADD81R,1.150X0.500*%
%ADD82R,1.150X0.500*%
%ADD83R,0.650X1.300*%
%ADD84C,0.025*%
%ADD85C,0.152*%
%ADD86C,0.154*%
%ADD87C,0.013*%
%ADD88C,0.022*%
%ADD89C,0.170*%
%ADD90C,0.320*%
%ADD91C,0.220*%
%ADD92C,0.100*%
D92*
X-2653Y-4417D02*
G03*
X-3000Y-3366I-964J265D01*
G01*
X80429Y-2797D02*
G03*
X80428Y-4202I712J-702D01*
G01*
X80428Y53702D02*
G03*
X80428Y52297I712J-702D01*
G01*
X-2428Y52298D02*
G03*
X-2428Y53702I-712J702D01*
G01*
X-3500Y-2500D02*
G03*
X-3000Y-3366I1000J0D01*
G01*
X80428Y-2798D02*
G03*
X81500Y-500I-1928J2298D01*
G01*
Y50000D02*
G03*
X80428Y52298I-3000J0D01*
G01*
X-2428D02*
G03*
X-3500Y50000I1928J-2298D01*
G01*
X-500Y60000D02*
G03*
X-3500Y57000I0J-3000D01*
G01*
X3500Y57000D02*
G03*
X500Y60000I-3000J0D01*
G01*
X-3500Y56000D02*
G03*
X-2428Y53702I3000J0D01*
G01*
X80428D02*
G03*
X81500Y56000I-1928J2298D01*
G01*
X77500Y60000D02*
G03*
X74500Y57000I0J-3000D01*
G01*
X81500Y57000D02*
G03*
X78500Y60000I-3000J0D01*
G01*
X-2658Y-4416D02*
G03*
X-3500Y-6500I2158J-2084D01*
G01*
X500Y-10500D02*
G03*
X3500Y-7500I0J3000D01*
G01*
X-3500Y-7500D02*
G03*
X-500Y-10500I3000J0D01*
G01*
X78500D02*
G03*
X81500Y-7500I0J3000D01*
G01*
X74500Y-7500D02*
G03*
X77500Y-10500I3000J0D01*
G01*
X81500Y-6500D02*
G03*
X80428Y-4202I-3000J0D01*
G01*
X-3500Y-2500D02*
Y50000D01*
X3500Y53000D02*
X74500D01*
X81500Y-500D02*
Y50000D01*
X3500Y-3500D02*
X74500D01*
X8750Y36100D02*
X14000D01*
Y7100D02*
Y36100D01*
X8750Y7100D02*
X14000D01*
X6000Y9850D02*
Y33350D01*
Y9850D02*
X8750Y7100D01*
X6000Y33350D02*
X8750Y36100D01*
X-3500Y56000D02*
Y57000D01*
X-500Y60000D02*
X500D01*
X3500Y53000D02*
Y57000D01*
X74500Y53000D02*
Y57000D01*
X77500Y60000D02*
X78500D01*
X81500Y56000D02*
Y57000D01*
X3500Y-7500D02*
Y-3500D01*
X-500Y-10500D02*
X500D01*
X-3500Y-7500D02*
Y-6500D01*
X81500Y-7500D02*
Y-6500D01*
X77500Y-10500D02*
X78500D01*
X74500Y-7500D02*
Y-3500D01*
M02*
