%FSLAX43Y43*%
%MOMM*%
G71*
G01*
G75*
G04 Layer_Color=16711935*
%ADD10R,0.800X1.800*%
%ADD11R,1.100X1.250*%
%ADD12C,1.500*%
%ADD13C,0.250*%
%ADD14C,0.300*%
%ADD15C,0.400*%
%ADD16C,0.500*%
%ADD17C,0.350*%
%ADD18C,1.650*%
%ADD19O,1.600X1.650*%
%ADD20C,1.600*%
%ADD21C,1.800*%
%ADD22C,1.520*%
%ADD23R,1.520X1.520*%
%ADD24R,1.500X1.500*%
%ADD25C,0.800*%
%ADD26R,1.400X2.000*%
%ADD27R,0.787X0.711*%
%ADD28R,0.760X2.400*%
%ADD29R,1.800X2.000*%
%ADD30R,0.250X1.100*%
%ADD31C,1.016*%
%ADD32O,2.200X0.600*%
%ADD33O,1.600X0.385*%
%ADD34R,0.711X0.787*%
%ADD35R,0.724X0.559*%
%ADD36R,0.762X0.787*%
%ADD37R,0.787X0.762*%
%ADD38R,1.050X0.600*%
%ADD39R,1.194X0.787*%
%ADD40R,1.200X0.250*%
%ADD41R,1.600X2.400*%
%ADD42C,0.800*%
%ADD43C,0.600*%
%ADD44C,0.475*%
%ADD45R,0.825X1.600*%
%ADD46C,0.200*%
%ADD47C,0.150*%
%ADD48C,0.254*%
%ADD49C,0.180*%
%ADD50C,0.160*%
%ADD51R,0.820X1.820*%
%ADD52R,1.120X1.270*%
%ADD53C,3.000*%
%ADD54C,1.670*%
%ADD55O,1.620X1.670*%
%ADD56C,1.620*%
%ADD57C,1.820*%
%ADD58C,1.540*%
%ADD59R,1.540X1.540*%
%ADD60R,1.520X1.520*%
%ADD61R,1.500X2.100*%
%ADD62R,0.807X0.731*%
%ADD63R,0.860X2.500*%
%ADD64R,1.820X2.020*%
%ADD65R,0.270X1.120*%
%ADD66C,1.036*%
%ADD67O,2.220X0.620*%
%ADD68O,1.620X0.405*%
%ADD69R,0.731X0.807*%
%ADD70R,0.744X0.579*%
%ADD71R,0.782X0.807*%
%ADD72R,0.807X0.782*%
%ADD73R,1.150X0.700*%
%ADD74R,1.214X0.807*%
%ADD75R,1.220X0.270*%
%ADD76R,1.620X2.420*%
%ADD77R,0.845X1.620*%
D22*
X79750Y9130D02*
D03*
Y11670D02*
D03*
Y14210D02*
D03*
Y16750D02*
D03*
X62700Y48885D02*
D03*
X65240D02*
D03*
D53*
X62500Y-500D02*
D03*
X68500Y45500D02*
D03*
X4500Y43500D02*
D03*
Y-500D02*
D03*
D54*
X76130Y16750D02*
D03*
Y10250D02*
D03*
X71630Y16750D02*
D03*
Y10250D02*
D03*
X75900Y36750D02*
D03*
Y30250D02*
D03*
X76130Y26750D02*
D03*
Y20250D02*
D03*
X71630Y26750D02*
D03*
Y20250D02*
D03*
X71875Y36750D02*
D03*
Y30250D02*
D03*
X67375Y36750D02*
D03*
Y30250D02*
D03*
X76130Y46750D02*
D03*
Y40250D02*
D03*
X71630Y46750D02*
D03*
Y40250D02*
D03*
D55*
X80400Y36750D02*
D03*
Y30250D02*
D03*
D56*
X79030Y23050D02*
D03*
X68730D02*
D03*
D57*
Y26750D02*
D03*
X79030D02*
D03*
X68730Y20250D02*
D03*
X79030D02*
D03*
D58*
X53130Y47730D02*
D03*
Y50270D02*
D03*
X50590Y47730D02*
D03*
Y50270D02*
D03*
X48050Y47730D02*
D03*
Y50270D02*
D03*
X45510Y47730D02*
D03*
Y50270D02*
D03*
X42970Y47730D02*
D03*
Y50270D02*
D03*
X40430Y47730D02*
D03*
Y50270D02*
D03*
X37890Y47730D02*
D03*
Y50270D02*
D03*
X35350Y47730D02*
D03*
Y50270D02*
D03*
X32810Y47730D02*
D03*
Y50270D02*
D03*
X30270Y47730D02*
D03*
Y50270D02*
D03*
X27730Y47730D02*
D03*
Y50270D02*
D03*
X25190Y47730D02*
D03*
Y50270D02*
D03*
X22650Y47730D02*
D03*
Y50270D02*
D03*
X20110Y47730D02*
D03*
Y50270D02*
D03*
X17570Y47730D02*
D03*
Y50270D02*
D03*
X15030Y47730D02*
D03*
Y50270D02*
D03*
X12490Y47730D02*
D03*
Y50270D02*
D03*
X9950Y47730D02*
D03*
Y50270D02*
D03*
X7410Y47730D02*
D03*
Y50270D02*
D03*
X4870Y47730D02*
D03*
D59*
Y50270D02*
D03*
D60*
X79750Y6590D02*
D03*
X62700Y51425D02*
D03*
X65240D02*
D03*
D61*
X35555Y8175D02*
D03*
X27935D02*
D03*
X30475D02*
D03*
X33015D02*
D03*
X25395D02*
D03*
D62*
X49525Y38874D02*
D03*
Y37376D02*
D03*
X60525Y43924D02*
D03*
Y42426D02*
D03*
X53400Y22199D02*
D03*
Y20701D02*
D03*
X38075Y39724D02*
D03*
Y38226D02*
D03*
X36706Y39763D02*
D03*
Y38264D02*
D03*
X39475Y39749D02*
D03*
Y38251D02*
D03*
X33150Y33576D02*
D03*
Y35074D02*
D03*
X26950Y28074D02*
D03*
Y26576D02*
D03*
X63825Y9474D02*
D03*
Y7976D02*
D03*
X63800Y12674D02*
D03*
Y11176D02*
D03*
X66775Y11101D02*
D03*
Y12599D02*
D03*
D63*
X33115Y16325D02*
D03*
X34385D02*
D03*
Y12425D02*
D03*
X33115D02*
D03*
X61845Y25250D02*
D03*
X60575D02*
D03*
X59305D02*
D03*
Y21350D02*
D03*
X60575D02*
D03*
X61845D02*
D03*
D64*
X36850Y13350D02*
D03*
X59650D02*
D03*
D65*
X38500Y16500D02*
D03*
X39000D02*
D03*
X39500D02*
D03*
X40000D02*
D03*
X40500D02*
D03*
X41000D02*
D03*
X41500D02*
D03*
X42000D02*
D03*
X42500D02*
D03*
X43000D02*
D03*
X43500D02*
D03*
X44000D02*
D03*
X44500D02*
D03*
X45000D02*
D03*
X45500D02*
D03*
X46000D02*
D03*
X46500D02*
D03*
X47000D02*
D03*
X47500D02*
D03*
X48000D02*
D03*
X48500D02*
D03*
X49000D02*
D03*
X49500D02*
D03*
X50000D02*
D03*
X50500D02*
D03*
X51000D02*
D03*
X51500D02*
D03*
X52000D02*
D03*
X52500D02*
D03*
X53000D02*
D03*
X53500D02*
D03*
X54000D02*
D03*
X54500D02*
D03*
X55000D02*
D03*
X55500D02*
D03*
X56000D02*
D03*
X56500D02*
D03*
X57000D02*
D03*
X57500D02*
D03*
X58000D02*
D03*
D66*
X32000Y40500D02*
D03*
X14000Y43500D02*
D03*
X10000D02*
D03*
X7000D02*
D03*
X29000Y43500D02*
D03*
X32000D02*
D03*
X35000D02*
D03*
X23000Y43500D02*
D03*
X38000Y43500D02*
D03*
X17000Y43500D02*
D03*
X20000D02*
D03*
X26000Y43500D02*
D03*
X56000D02*
D03*
X47000Y43500D02*
D03*
X44000Y43500D02*
D03*
X41000D02*
D03*
Y40500D02*
D03*
X50000Y43500D02*
D03*
D67*
X42525Y35270D02*
D03*
Y36540D02*
D03*
Y37810D02*
D03*
Y39080D02*
D03*
X47325Y35270D02*
D03*
Y36540D02*
D03*
Y37810D02*
D03*
Y39080D02*
D03*
D68*
X30325Y34423D02*
D03*
Y33787D02*
D03*
Y33153D02*
D03*
Y32518D02*
D03*
Y31882D02*
D03*
Y31247D02*
D03*
Y30612D02*
D03*
Y29978D02*
D03*
X24925Y34423D02*
D03*
Y33787D02*
D03*
Y33153D02*
D03*
Y32518D02*
D03*
Y31882D02*
D03*
Y31247D02*
D03*
Y30612D02*
D03*
Y29978D02*
D03*
D69*
X30626Y38375D02*
D03*
X32124D02*
D03*
X28076Y19100D02*
D03*
X29574D02*
D03*
X29649Y21325D02*
D03*
X28151D02*
D03*
X24800Y19100D02*
D03*
X26299D02*
D03*
X24850Y21325D02*
D03*
X26349D02*
D03*
X34499Y12425D02*
D03*
X33001D02*
D03*
X25176Y16775D02*
D03*
X26674D02*
D03*
X34499Y16400D02*
D03*
X33001D02*
D03*
X25201Y14900D02*
D03*
X26699D02*
D03*
X25276Y12975D02*
D03*
X26774D02*
D03*
X26749Y11150D02*
D03*
X25251D02*
D03*
X31424Y14625D02*
D03*
X29926D02*
D03*
D70*
X65459Y16850D02*
D03*
Y14950D02*
D03*
X63491Y15900D02*
D03*
X31443Y13125D02*
D03*
Y11225D02*
D03*
X29475Y12175D02*
D03*
D71*
X31975Y26274D02*
D03*
Y24776D02*
D03*
X39475Y26299D02*
D03*
Y24801D02*
D03*
X61500Y7926D02*
D03*
Y9424D02*
D03*
X61525Y5824D02*
D03*
Y4326D02*
D03*
D72*
X32124Y36750D02*
D03*
X30625D02*
D03*
X29324Y36775D02*
D03*
X27826D02*
D03*
X46149Y41625D02*
D03*
X44651D02*
D03*
X25474Y28150D02*
D03*
X23976D02*
D03*
X31349Y15950D02*
D03*
X29851D02*
D03*
D73*
X37075Y26375D02*
D03*
Y25425D02*
D03*
Y24475D02*
D03*
X34375D02*
D03*
Y26375D02*
D03*
D74*
X40450Y30689D02*
D03*
Y28911D02*
D03*
X38225Y30689D02*
D03*
Y28911D02*
D03*
X36025Y30664D02*
D03*
Y28886D02*
D03*
D75*
X21500Y9350D02*
D03*
Y9850D02*
D03*
Y10350D02*
D03*
Y10850D02*
D03*
Y11350D02*
D03*
Y11850D02*
D03*
Y12350D02*
D03*
Y12850D02*
D03*
Y13350D02*
D03*
Y13850D02*
D03*
Y14350D02*
D03*
Y14850D02*
D03*
Y15350D02*
D03*
Y15850D02*
D03*
Y16350D02*
D03*
Y16850D02*
D03*
Y17350D02*
D03*
Y17850D02*
D03*
Y18350D02*
D03*
Y18850D02*
D03*
Y19350D02*
D03*
Y19850D02*
D03*
Y20350D02*
D03*
Y20850D02*
D03*
Y21350D02*
D03*
Y21850D02*
D03*
Y22350D02*
D03*
Y22850D02*
D03*
Y23350D02*
D03*
Y23850D02*
D03*
Y24350D02*
D03*
Y24850D02*
D03*
Y25350D02*
D03*
Y25850D02*
D03*
Y26350D02*
D03*
Y26850D02*
D03*
Y27350D02*
D03*
Y27850D02*
D03*
Y28350D02*
D03*
Y28850D02*
D03*
Y33850D02*
D03*
Y33350D02*
D03*
Y32850D02*
D03*
Y32350D02*
D03*
Y31850D02*
D03*
Y31350D02*
D03*
Y30850D02*
D03*
Y30350D02*
D03*
Y29850D02*
D03*
Y29350D02*
D03*
D76*
X18400Y7250D02*
D03*
Y35950D02*
D03*
D77*
X19587Y35550D02*
D03*
Y7650D02*
D03*
M02*
