%FSLAX43Y43*%
%MOMM*%
G71*
G01*
G75*
G04 Layer_Color=2752767*
%ADD10R,0.800X1.800*%
%ADD11R,1.100X1.250*%
%ADD12C,1.500*%
%ADD13C,0.250*%
%ADD14C,0.300*%
%ADD15C,0.400*%
%ADD16C,0.500*%
%ADD17C,0.350*%
%ADD18C,1.650*%
%ADD19O,1.600X1.650*%
%ADD20C,1.600*%
%ADD21C,1.800*%
%ADD22C,1.520*%
%ADD23R,1.520X1.520*%
%ADD24R,1.500X1.500*%
%ADD25C,0.800*%
%ADD26R,1.400X2.000*%
%ADD27R,0.787X0.711*%
%ADD28R,0.760X2.400*%
%ADD29R,1.800X2.000*%
%ADD30R,0.250X1.100*%
%ADD31C,1.016*%
%ADD32O,2.200X0.600*%
%ADD33O,1.600X0.385*%
%ADD34R,0.711X0.787*%
%ADD35R,0.724X0.559*%
%ADD36R,0.762X0.787*%
%ADD37R,0.787X0.762*%
%ADD38R,1.050X0.600*%
%ADD39R,1.194X0.787*%
%ADD40R,1.200X0.250*%
%ADD41R,1.600X2.400*%
%ADD42C,0.800*%
%ADD43C,0.600*%
%ADD44C,0.475*%
%ADD45R,0.825X1.600*%
%ADD46C,0.200*%
%ADD47C,0.150*%
%ADD48C,0.254*%
%ADD49C,0.180*%
%ADD50C,0.160*%
%ADD51R,0.820X1.820*%
%ADD52R,1.120X1.270*%
%ADD53C,3.000*%
%ADD54C,1.670*%
%ADD55O,1.620X1.670*%
%ADD56C,1.620*%
%ADD57C,1.820*%
%ADD58C,1.540*%
%ADD59R,1.540X1.540*%
%ADD60R,1.520X1.520*%
%ADD61R,1.500X2.100*%
%ADD62R,0.807X0.731*%
%ADD63R,0.860X2.500*%
%ADD64R,1.820X2.020*%
%ADD65R,0.270X1.120*%
%ADD66C,1.036*%
%ADD67O,2.220X0.620*%
%ADD68O,1.620X0.405*%
%ADD69R,0.731X0.807*%
%ADD70R,0.744X0.579*%
%ADD71R,0.782X0.807*%
%ADD72R,0.807X0.782*%
%ADD73R,1.150X0.700*%
%ADD74R,1.214X0.807*%
%ADD75R,1.220X0.270*%
%ADD76R,1.620X2.420*%
%ADD77R,0.845X1.620*%
%ADD78R,1.275X0.800*%
%ADD79R,1.275X0.800*%
%ADD80R,1.300X0.500*%
%ADD81R,1.150X0.500*%
%ADD82R,1.150X0.500*%
%ADD83R,0.650X1.300*%
%ADD84C,0.025*%
%ADD85C,0.152*%
%ADD86C,0.154*%
%ADD87C,0.013*%
%ADD88C,0.022*%
%ADD89C,0.170*%
%ADD90C,0.320*%
%ADD91C,0.220*%
%ADD92C,0.100*%
%ADD93C,0.050*%
%ADD94C,0.085*%
%ADD95C,0.381*%
%ADD96C,0.406*%
D48*
X70728Y-17650D02*
Y-16126D01*
X71489D01*
X71743Y-16380D01*
Y-16888D01*
X71489Y-17142D01*
X70728D01*
X71235D02*
X71743Y-17650D01*
X72505D02*
X73013D01*
X73267Y-17396D01*
Y-16888D01*
X73013Y-16634D01*
X72505D01*
X72251Y-16888D01*
Y-17396D01*
X72505Y-17650D01*
X73775Y-16634D02*
Y-17396D01*
X74029Y-17650D01*
X74790D01*
Y-16634D01*
X75298Y-17650D02*
Y-16634D01*
X76060D01*
X76314Y-16888D01*
Y-17650D01*
X77837Y-16126D02*
Y-17650D01*
X77076D01*
X76822Y-17396D01*
Y-16888D01*
X77076Y-16634D01*
X77837D01*
X70728Y-21460D02*
Y-19936D01*
X71489D01*
X71743Y-20190D01*
Y-20698D01*
X71489Y-20952D01*
X70728D01*
X71235D02*
X71743Y-21460D01*
X72505D02*
X73013D01*
X73267Y-21206D01*
Y-20698D01*
X73013Y-20444D01*
X72505D01*
X72251Y-20698D01*
Y-21206D01*
X72505Y-21460D01*
X73775Y-20444D02*
Y-21206D01*
X74029Y-21460D01*
X74790D01*
Y-20444D01*
X75298Y-21460D02*
Y-20444D01*
X76060D01*
X76314Y-20698D01*
Y-21460D01*
X77837Y-19936D02*
Y-21460D01*
X77076D01*
X76822Y-21206D01*
Y-20698D01*
X77076Y-20444D01*
X77837D01*
X70728Y-25270D02*
Y-23746D01*
X71489D01*
X71743Y-24000D01*
Y-24508D01*
X71489Y-24762D01*
X70728D01*
X71235D02*
X71743Y-25270D01*
X72505D02*
X73013D01*
X73267Y-25016D01*
Y-24508D01*
X73013Y-24254D01*
X72505D01*
X72251Y-24508D01*
Y-25016D01*
X72505Y-25270D01*
X73775Y-24254D02*
Y-25016D01*
X74029Y-25270D01*
X74790D01*
Y-24254D01*
X75298Y-25270D02*
Y-24254D01*
X76060D01*
X76314Y-24508D01*
Y-25270D01*
X77837Y-23746D02*
Y-25270D01*
X77076D01*
X76822Y-25016D01*
Y-24508D01*
X77076Y-24254D01*
X77837D01*
X70728Y-29080D02*
Y-27556D01*
X71489D01*
X71743Y-27810D01*
Y-28318D01*
X71489Y-28572D01*
X70728D01*
X71235D02*
X71743Y-29080D01*
X72505D02*
X73013D01*
X73267Y-28826D01*
Y-28318D01*
X73013Y-28064D01*
X72505D01*
X72251Y-28318D01*
Y-28826D01*
X72505Y-29080D01*
X73775Y-28064D02*
Y-28826D01*
X74029Y-29080D01*
X74790D01*
Y-28064D01*
X75298Y-29080D02*
Y-28064D01*
X76060D01*
X76314Y-28318D01*
Y-29080D01*
X77837Y-27556D02*
Y-29080D01*
X77076D01*
X76822Y-28826D01*
Y-28318D01*
X77076Y-28064D01*
X77837D01*
X70728Y-32890D02*
Y-31366D01*
X71489D01*
X71743Y-31620D01*
Y-32128D01*
X71489Y-32382D01*
X70728D01*
X71235D02*
X71743Y-32890D01*
X72505D02*
X73013D01*
X73267Y-32636D01*
Y-32128D01*
X73013Y-31874D01*
X72505D01*
X72251Y-32128D01*
Y-32636D01*
X72505Y-32890D01*
X73775Y-31874D02*
Y-32636D01*
X74029Y-32890D01*
X74790D01*
Y-31874D01*
X75298Y-32890D02*
Y-31874D01*
X76060D01*
X76314Y-32128D01*
Y-32890D01*
X77837Y-31366D02*
Y-32890D01*
X77076D01*
X76822Y-32636D01*
Y-32128D01*
X77076Y-31874D01*
X77837D01*
X70728Y-36700D02*
Y-35176D01*
X71489D01*
X71743Y-35430D01*
Y-35938D01*
X71489Y-36192D01*
X70728D01*
X71235D02*
X71743Y-36700D01*
X72505D02*
X73013D01*
X73267Y-36446D01*
Y-35938D01*
X73013Y-35684D01*
X72505D01*
X72251Y-35938D01*
Y-36446D01*
X72505Y-36700D01*
X73775Y-35684D02*
Y-36446D01*
X74029Y-36700D01*
X74790D01*
Y-35684D01*
X75298Y-36700D02*
Y-35684D01*
X76060D01*
X76314Y-35938D01*
Y-36700D01*
X77837Y-35176D02*
Y-36700D01*
X77076D01*
X76822Y-36446D01*
Y-35938D01*
X77076Y-35684D01*
X77837D01*
X70728Y-40510D02*
Y-38986D01*
X71489D01*
X71743Y-39240D01*
Y-39748D01*
X71489Y-40002D01*
X70728D01*
X71235D02*
X71743Y-40510D01*
X72505D02*
X73013D01*
X73267Y-40256D01*
Y-39748D01*
X73013Y-39494D01*
X72505D01*
X72251Y-39748D01*
Y-40256D01*
X72505Y-40510D01*
X73775Y-39494D02*
Y-40256D01*
X74029Y-40510D01*
X74790D01*
Y-39494D01*
X75298Y-40510D02*
Y-39494D01*
X76060D01*
X76314Y-39748D01*
Y-40510D01*
X77837Y-38986D02*
Y-40510D01*
X77076D01*
X76822Y-40256D01*
Y-39748D01*
X77076Y-39494D01*
X77837D01*
X70728Y-44320D02*
Y-42796D01*
X71489D01*
X71743Y-43050D01*
Y-43558D01*
X71489Y-43812D01*
X70728D01*
X71235D02*
X71743Y-44320D01*
X72505D02*
X73013D01*
X73267Y-44066D01*
Y-43558D01*
X73013Y-43304D01*
X72505D01*
X72251Y-43558D01*
Y-44066D01*
X72505Y-44320D01*
X73775Y-43304D02*
Y-44066D01*
X74029Y-44320D01*
X74790D01*
Y-43304D01*
X75298Y-44320D02*
Y-43304D01*
X76060D01*
X76314Y-43558D01*
Y-44320D01*
X77837Y-42796D02*
Y-44320D01*
X77076D01*
X76822Y-44066D01*
Y-43558D01*
X77076Y-43304D01*
X77837D01*
X70728Y-48130D02*
Y-46606D01*
X71489D01*
X71743Y-46860D01*
Y-47368D01*
X71489Y-47622D01*
X70728D01*
X71235D02*
X71743Y-48130D01*
X72505D02*
X73013D01*
X73267Y-47876D01*
Y-47368D01*
X73013Y-47114D01*
X72505D01*
X72251Y-47368D01*
Y-47876D01*
X72505Y-48130D01*
X73775Y-47114D02*
Y-47876D01*
X74029Y-48130D01*
X74790D01*
Y-47114D01*
X75298Y-48130D02*
Y-47114D01*
X76060D01*
X76314Y-47368D01*
Y-48130D01*
X77837Y-46606D02*
Y-48130D01*
X77076D01*
X76822Y-47876D01*
Y-47368D01*
X77076Y-47114D01*
X77837D01*
X57878Y-17650D02*
Y-16126D01*
X58640D01*
X58894Y-16380D01*
Y-16888D01*
X58640Y-17142D01*
X57878D01*
X59402Y-16126D02*
X60418D01*
X59910D01*
Y-17650D01*
X60925Y-16126D02*
Y-17650D01*
Y-16888D01*
X61941D01*
Y-16126D01*
Y-17650D01*
X57878Y-21460D02*
Y-19936D01*
X58894Y-21460D01*
Y-19936D01*
X59402Y-21460D02*
Y-19936D01*
X60164D01*
X60418Y-20190D01*
Y-20698D01*
X60164Y-20952D01*
X59402D01*
X60925Y-19936D02*
X61941D01*
X61433D01*
Y-21460D01*
X62449Y-19936D02*
Y-21460D01*
Y-20698D01*
X63465D01*
Y-19936D01*
Y-21460D01*
X57878Y-25270D02*
Y-23746D01*
X58640D01*
X58894Y-24000D01*
Y-24508D01*
X58640Y-24762D01*
X57878D01*
X59402Y-23746D02*
X60418D01*
X59910D01*
Y-25270D01*
X60925Y-23746D02*
Y-25270D01*
Y-24508D01*
X61941D01*
Y-23746D01*
Y-25270D01*
X57878Y-29080D02*
Y-27556D01*
X58894Y-29080D01*
Y-27556D01*
X59402Y-29080D02*
Y-27556D01*
X60164D01*
X60418Y-27810D01*
Y-28318D01*
X60164Y-28572D01*
X59402D01*
X60925Y-27556D02*
X61941D01*
X61433D01*
Y-29080D01*
X62449Y-27556D02*
Y-29080D01*
Y-28318D01*
X63465D01*
Y-27556D01*
Y-29080D01*
X57878Y-32890D02*
Y-31366D01*
X58640D01*
X58894Y-31620D01*
Y-32128D01*
X58640Y-32382D01*
X57878D01*
X59402Y-31366D02*
X60418D01*
X59910D01*
Y-32890D01*
X60925Y-31366D02*
Y-32890D01*
Y-32128D01*
X61941D01*
Y-31366D01*
Y-32890D01*
X57878Y-36700D02*
Y-35176D01*
X58640D01*
X58894Y-35430D01*
Y-35938D01*
X58640Y-36192D01*
X57878D01*
X59402Y-35176D02*
X60418D01*
X59910D01*
Y-36700D01*
X60925Y-35176D02*
Y-36700D01*
Y-35938D01*
X61941D01*
Y-35176D01*
Y-36700D01*
X57878Y-40510D02*
Y-38986D01*
X58640D01*
X58894Y-39240D01*
Y-39748D01*
X58640Y-40002D01*
X57878D01*
X59402Y-38986D02*
X60418D01*
X59910D01*
Y-40510D01*
X60925Y-38986D02*
Y-40510D01*
Y-39748D01*
X61941D01*
Y-38986D01*
Y-40510D01*
X57878Y-44320D02*
Y-42796D01*
X58894Y-44320D01*
Y-42796D01*
X59402Y-44320D02*
Y-42796D01*
X60164D01*
X60418Y-43050D01*
Y-43558D01*
X60164Y-43812D01*
X59402D01*
X60925Y-42796D02*
X61941D01*
X61433D01*
Y-44320D01*
X62449Y-42796D02*
Y-44320D01*
Y-43558D01*
X63465D01*
Y-42796D01*
Y-44320D01*
X57878Y-48130D02*
Y-46606D01*
X58640D01*
X58894Y-46860D01*
Y-47368D01*
X58640Y-47622D01*
X57878D01*
X59402Y-46606D02*
X60418D01*
X59910D01*
Y-48130D01*
X60925Y-46606D02*
Y-48130D01*
Y-47368D01*
X61941D01*
Y-46606D01*
Y-48130D01*
X23700Y-17650D02*
X24208D01*
X23954D01*
Y-16126D01*
X23700Y-16380D01*
X24970Y-17650D02*
Y-17396D01*
X25224D01*
Y-17650D01*
X24970D01*
X26239Y-16380D02*
X26493Y-16126D01*
X27001D01*
X27255Y-16380D01*
Y-17396D01*
X27001Y-17650D01*
X26493D01*
X26239Y-17396D01*
Y-16380D01*
X27763D02*
X28017Y-16126D01*
X28524D01*
X28778Y-16380D01*
Y-17396D01*
X28524Y-17650D01*
X28017D01*
X27763Y-17396D01*
Y-16380D01*
X29286D02*
X29540Y-16126D01*
X30048D01*
X30302Y-16380D01*
Y-17396D01*
X30048Y-17650D01*
X29540D01*
X29286Y-17396D01*
Y-16380D01*
X30810Y-17650D02*
Y-16634D01*
X31064D01*
X31318Y-16888D01*
Y-17650D01*
Y-16888D01*
X31571Y-16634D01*
X31825Y-16888D01*
Y-17650D01*
X32333D02*
Y-16634D01*
X32587D01*
X32841Y-16888D01*
Y-17650D01*
Y-16888D01*
X33095Y-16634D01*
X33349Y-16888D01*
Y-17650D01*
X35888D02*
X35380Y-17142D01*
Y-16634D01*
X35888Y-16126D01*
X36650Y-16380D02*
X36904Y-16126D01*
X37412D01*
X37665Y-16380D01*
Y-16634D01*
X37412Y-16888D01*
X37158D01*
X37412D01*
X37665Y-17142D01*
Y-17396D01*
X37412Y-17650D01*
X36904D01*
X36650Y-17396D01*
X38173D02*
X38427Y-17650D01*
X38935D01*
X39189Y-17396D01*
Y-16380D01*
X38935Y-16126D01*
X38427D01*
X38173Y-16380D01*
Y-16634D01*
X38427Y-16888D01*
X39189D01*
X39697Y-17650D02*
Y-17396D01*
X39951D01*
Y-17650D01*
X39697D01*
X40966Y-16380D02*
X41220Y-16126D01*
X41728D01*
X41982Y-16380D01*
Y-16634D01*
X41728Y-16888D01*
X41474D01*
X41728D01*
X41982Y-17142D01*
Y-17396D01*
X41728Y-17650D01*
X41220D01*
X40966Y-17396D01*
X42490Y-16126D02*
X43506D01*
Y-16380D01*
X42490Y-17396D01*
Y-17650D01*
X44013D02*
Y-16634D01*
X44267D01*
X44521Y-16888D01*
Y-17650D01*
Y-16888D01*
X44775Y-16634D01*
X45029Y-16888D01*
Y-17650D01*
X45537D02*
X46045D01*
X45791D01*
Y-16634D01*
X45537D01*
X46807Y-17650D02*
X47314D01*
X47060D01*
Y-16126D01*
X46807D01*
X48076Y-17650D02*
X48584Y-17142D01*
Y-16634D01*
X48076Y-16126D01*
X23700Y-21460D02*
X24208D01*
X23954D01*
Y-19936D01*
X23700Y-20190D01*
X24970Y-21460D02*
Y-21206D01*
X25224D01*
Y-21460D01*
X24970D01*
X26239Y-20190D02*
X26493Y-19936D01*
X27001D01*
X27255Y-20190D01*
Y-21206D01*
X27001Y-21460D01*
X26493D01*
X26239Y-21206D01*
Y-20190D01*
X27763D02*
X28017Y-19936D01*
X28524D01*
X28778Y-20190D01*
Y-21206D01*
X28524Y-21460D01*
X28017D01*
X27763Y-21206D01*
Y-20190D01*
X29286D02*
X29540Y-19936D01*
X30048D01*
X30302Y-20190D01*
Y-21206D01*
X30048Y-21460D01*
X29540D01*
X29286Y-21206D01*
Y-20190D01*
X30810Y-21460D02*
Y-20444D01*
X31064D01*
X31318Y-20698D01*
Y-21460D01*
Y-20698D01*
X31571Y-20444D01*
X31825Y-20698D01*
Y-21460D01*
X32333D02*
Y-20444D01*
X32587D01*
X32841Y-20698D01*
Y-21460D01*
Y-20698D01*
X33095Y-20444D01*
X33349Y-20698D01*
Y-21460D01*
X35888D02*
X35380Y-20952D01*
Y-20444D01*
X35888Y-19936D01*
X36650Y-20190D02*
X36904Y-19936D01*
X37412D01*
X37665Y-20190D01*
Y-20444D01*
X37412Y-20698D01*
X37158D01*
X37412D01*
X37665Y-20952D01*
Y-21206D01*
X37412Y-21460D01*
X36904D01*
X36650Y-21206D01*
X38173D02*
X38427Y-21460D01*
X38935D01*
X39189Y-21206D01*
Y-20190D01*
X38935Y-19936D01*
X38427D01*
X38173Y-20190D01*
Y-20444D01*
X38427Y-20698D01*
X39189D01*
X39697Y-21460D02*
Y-21206D01*
X39951D01*
Y-21460D01*
X39697D01*
X40966Y-20190D02*
X41220Y-19936D01*
X41728D01*
X41982Y-20190D01*
Y-20444D01*
X41728Y-20698D01*
X41474D01*
X41728D01*
X41982Y-20952D01*
Y-21206D01*
X41728Y-21460D01*
X41220D01*
X40966Y-21206D01*
X42490Y-19936D02*
X43506D01*
Y-20190D01*
X42490Y-21206D01*
Y-21460D01*
X44013D02*
Y-20444D01*
X44267D01*
X44521Y-20698D01*
Y-21460D01*
Y-20698D01*
X44775Y-20444D01*
X45029Y-20698D01*
Y-21460D01*
X45537D02*
X46045D01*
X45791D01*
Y-20444D01*
X45537D01*
X46807Y-21460D02*
X47314D01*
X47060D01*
Y-19936D01*
X46807D01*
X48076Y-21460D02*
X48584Y-20952D01*
Y-20444D01*
X48076Y-19936D01*
X23700Y-25270D02*
X24208D01*
X23954D01*
Y-23746D01*
X23700Y-24000D01*
X24970Y-25270D02*
Y-25016D01*
X25224D01*
Y-25270D01*
X24970D01*
X27255D02*
X26239D01*
X27255Y-24254D01*
Y-24000D01*
X27001Y-23746D01*
X26493D01*
X26239Y-24000D01*
X27763D02*
X28017Y-23746D01*
X28524D01*
X28778Y-24000D01*
Y-25016D01*
X28524Y-25270D01*
X28017D01*
X27763Y-25016D01*
Y-24000D01*
X29286D02*
X29540Y-23746D01*
X30048D01*
X30302Y-24000D01*
Y-25016D01*
X30048Y-25270D01*
X29540D01*
X29286Y-25016D01*
Y-24000D01*
X30810Y-25270D02*
Y-24254D01*
X31064D01*
X31318Y-24508D01*
Y-25270D01*
Y-24508D01*
X31571Y-24254D01*
X31825Y-24508D01*
Y-25270D01*
X32333D02*
Y-24254D01*
X32587D01*
X32841Y-24508D01*
Y-25270D01*
Y-24508D01*
X33095Y-24254D01*
X33349Y-24508D01*
Y-25270D01*
X35888D02*
X35380Y-24762D01*
Y-24254D01*
X35888Y-23746D01*
X37412Y-25270D02*
Y-23746D01*
X36650Y-24508D01*
X37665D01*
X38173Y-23746D02*
X39189D01*
Y-24000D01*
X38173Y-25016D01*
Y-25270D01*
X39697D02*
Y-25016D01*
X39951D01*
Y-25270D01*
X39697D01*
X41982D02*
X40966D01*
X41982Y-24254D01*
Y-24000D01*
X41728Y-23746D01*
X41220D01*
X40966Y-24000D01*
X43252Y-25270D02*
Y-23746D01*
X42490Y-24508D01*
X43506D01*
X44013Y-25270D02*
Y-24254D01*
X44267D01*
X44521Y-24508D01*
Y-25270D01*
Y-24508D01*
X44775Y-24254D01*
X45029Y-24508D01*
Y-25270D01*
X45537D02*
X46045D01*
X45791D01*
Y-24254D01*
X45537D01*
X46807Y-25270D02*
X47314D01*
X47060D01*
Y-23746D01*
X46807D01*
X48076Y-25270D02*
X48584Y-24762D01*
Y-24254D01*
X48076Y-23746D01*
X24716Y-29080D02*
X23700D01*
X24716Y-28064D01*
Y-27810D01*
X24462Y-27556D01*
X23954D01*
X23700Y-27810D01*
X25224Y-29080D02*
Y-28826D01*
X25477D01*
Y-29080D01*
X25224D01*
X26493Y-27556D02*
X27509D01*
Y-27810D01*
X26493Y-28826D01*
Y-29080D01*
X29032Y-27556D02*
X28017D01*
Y-28318D01*
X28524Y-28064D01*
X28778D01*
X29032Y-28318D01*
Y-28826D01*
X28778Y-29080D01*
X28271D01*
X28017Y-28826D01*
X29540Y-27810D02*
X29794Y-27556D01*
X30302D01*
X30556Y-27810D01*
Y-28826D01*
X30302Y-29080D01*
X29794D01*
X29540Y-28826D01*
Y-27810D01*
X31064Y-29080D02*
Y-28064D01*
X31318D01*
X31571Y-28318D01*
Y-29080D01*
Y-28318D01*
X31825Y-28064D01*
X32079Y-28318D01*
Y-29080D01*
X32587D02*
Y-28064D01*
X32841D01*
X33095Y-28318D01*
Y-29080D01*
Y-28318D01*
X33349Y-28064D01*
X33603Y-28318D01*
Y-29080D01*
X36142D02*
X35634Y-28572D01*
Y-28064D01*
X36142Y-27556D01*
X36904Y-29080D02*
X37412D01*
X37158D01*
Y-27556D01*
X36904Y-27810D01*
X38173D02*
X38427Y-27556D01*
X38935D01*
X39189Y-27810D01*
Y-28826D01*
X38935Y-29080D01*
X38427D01*
X38173Y-28826D01*
Y-27810D01*
X39697D02*
X39951Y-27556D01*
X40459D01*
X40712Y-27810D01*
Y-28064D01*
X40459Y-28318D01*
X40712Y-28572D01*
Y-28826D01*
X40459Y-29080D01*
X39951D01*
X39697Y-28826D01*
Y-28572D01*
X39951Y-28318D01*
X39697Y-28064D01*
Y-27810D01*
X39951Y-28318D02*
X40459D01*
X41220Y-29080D02*
Y-28826D01*
X41474D01*
Y-29080D01*
X41220D01*
X43506D02*
X42490D01*
X43506Y-28064D01*
Y-27810D01*
X43252Y-27556D01*
X42744D01*
X42490Y-27810D01*
X44013Y-27556D02*
X45029D01*
Y-27810D01*
X44013Y-28826D01*
Y-29080D01*
X45537D02*
Y-28064D01*
X45791D01*
X46045Y-28318D01*
Y-29080D01*
Y-28318D01*
X46299Y-28064D01*
X46553Y-28318D01*
Y-29080D01*
X47060D02*
X47568D01*
X47314D01*
Y-28064D01*
X47060D01*
X48330Y-29080D02*
X48838D01*
X48584D01*
Y-27556D01*
X48330D01*
X49600Y-29080D02*
X50107Y-28572D01*
Y-28064D01*
X49600Y-27556D01*
X23700Y-31620D02*
X23954Y-31366D01*
X24462D01*
X24716Y-31620D01*
Y-32636D01*
X24462Y-32890D01*
X23954D01*
X23700Y-32636D01*
Y-31620D01*
X25224Y-32890D02*
Y-32636D01*
X25477D01*
Y-32890D01*
X25224D01*
X26493Y-32636D02*
X26747Y-32890D01*
X27255D01*
X27509Y-32636D01*
Y-31620D01*
X27255Y-31366D01*
X26747D01*
X26493Y-31620D01*
Y-31874D01*
X26747Y-32128D01*
X27509D01*
X28017Y-31620D02*
X28271Y-31366D01*
X28778D01*
X29032Y-31620D01*
Y-32636D01*
X28778Y-32890D01*
X28271D01*
X28017Y-32636D01*
Y-31620D01*
X29540D02*
X29794Y-31366D01*
X30302D01*
X30556Y-31620D01*
Y-32636D01*
X30302Y-32890D01*
X29794D01*
X29540Y-32636D01*
Y-31620D01*
X31064Y-32890D02*
Y-31874D01*
X31318D01*
X31571Y-32128D01*
Y-32890D01*
Y-32128D01*
X31825Y-31874D01*
X32079Y-32128D01*
Y-32890D01*
X32587D02*
Y-31874D01*
X32841D01*
X33095Y-32128D01*
Y-32890D01*
Y-32128D01*
X33349Y-31874D01*
X33603Y-32128D01*
Y-32890D01*
X36142D02*
X35634Y-32382D01*
Y-31874D01*
X36142Y-31366D01*
X36904Y-31620D02*
X37158Y-31366D01*
X37665D01*
X37919Y-31620D01*
Y-31874D01*
X37665Y-32128D01*
X37412D01*
X37665D01*
X37919Y-32382D01*
Y-32636D01*
X37665Y-32890D01*
X37158D01*
X36904Y-32636D01*
X39443Y-31366D02*
X38427D01*
Y-32128D01*
X38935Y-31874D01*
X39189D01*
X39443Y-32128D01*
Y-32636D01*
X39189Y-32890D01*
X38681D01*
X38427Y-32636D01*
X39951Y-32890D02*
Y-32636D01*
X40205D01*
Y-32890D01*
X39951D01*
X41982D02*
Y-31366D01*
X41220Y-32128D01*
X42236D01*
X42744Y-31620D02*
X42998Y-31366D01*
X43506D01*
X43760Y-31620D01*
Y-31874D01*
X43506Y-32128D01*
X43252D01*
X43506D01*
X43760Y-32382D01*
Y-32636D01*
X43506Y-32890D01*
X42998D01*
X42744Y-32636D01*
X44267Y-32890D02*
Y-31874D01*
X44521D01*
X44775Y-32128D01*
Y-32890D01*
Y-32128D01*
X45029Y-31874D01*
X45283Y-32128D01*
Y-32890D01*
X45791D02*
X46299D01*
X46045D01*
Y-31874D01*
X45791D01*
X47060Y-32890D02*
X47568D01*
X47314D01*
Y-31366D01*
X47060D01*
X48330Y-32890D02*
X48838Y-32382D01*
Y-31874D01*
X48330Y-31366D01*
X23700Y-36700D02*
X24208D01*
X23954D01*
Y-35176D01*
X23700Y-35430D01*
X24970Y-36700D02*
Y-36446D01*
X25224D01*
Y-36700D01*
X24970D01*
X26239D02*
X26747D01*
X26493D01*
Y-35176D01*
X26239Y-35430D01*
X27509D02*
X27763Y-35176D01*
X28271D01*
X28524Y-35430D01*
Y-36446D01*
X28271Y-36700D01*
X27763D01*
X27509Y-36446D01*
Y-35430D01*
X29032D02*
X29286Y-35176D01*
X29794D01*
X30048Y-35430D01*
Y-36446D01*
X29794Y-36700D01*
X29286D01*
X29032Y-36446D01*
Y-35430D01*
X30556Y-36700D02*
Y-35684D01*
X30810D01*
X31064Y-35938D01*
Y-36700D01*
Y-35938D01*
X31318Y-35684D01*
X31571Y-35938D01*
Y-36700D01*
X32079D02*
Y-35684D01*
X32333D01*
X32587Y-35938D01*
Y-36700D01*
Y-35938D01*
X32841Y-35684D01*
X33095Y-35938D01*
Y-36700D01*
X35634D02*
X35126Y-36192D01*
Y-35684D01*
X35634Y-35176D01*
X37158Y-36700D02*
Y-35176D01*
X36396Y-35938D01*
X37412D01*
X37919Y-35430D02*
X38173Y-35176D01*
X38681D01*
X38935Y-35430D01*
Y-35684D01*
X38681Y-35938D01*
X38427D01*
X38681D01*
X38935Y-36192D01*
Y-36446D01*
X38681Y-36700D01*
X38173D01*
X37919Y-36446D01*
X39443Y-36700D02*
Y-36446D01*
X39697D01*
Y-36700D01*
X39443D01*
X40712Y-35430D02*
X40966Y-35176D01*
X41474D01*
X41728Y-35430D01*
Y-35684D01*
X41474Y-35938D01*
X41220D01*
X41474D01*
X41728Y-36192D01*
Y-36446D01*
X41474Y-36700D01*
X40966D01*
X40712Y-36446D01*
X42236Y-36700D02*
X42744D01*
X42490D01*
Y-35176D01*
X42236Y-35430D01*
X43506Y-36700D02*
Y-35684D01*
X43760D01*
X44013Y-35938D01*
Y-36700D01*
Y-35938D01*
X44267Y-35684D01*
X44521Y-35938D01*
Y-36700D01*
X45029D02*
X45537D01*
X45283D01*
Y-35684D01*
X45029D01*
X46299Y-36700D02*
X46807D01*
X46553D01*
Y-35176D01*
X46299D01*
X47568Y-36700D02*
X48076Y-36192D01*
Y-35684D01*
X47568Y-35176D01*
X23700Y-40510D02*
X24208D01*
X23954D01*
Y-38986D01*
X23700Y-39240D01*
X24970Y-40510D02*
Y-40256D01*
X25224D01*
Y-40510D01*
X24970D01*
X26239Y-39240D02*
X26493Y-38986D01*
X27001D01*
X27255Y-39240D01*
Y-40256D01*
X27001Y-40510D01*
X26493D01*
X26239Y-40256D01*
Y-39240D01*
X28778Y-40510D02*
X27763D01*
X28778Y-39494D01*
Y-39240D01*
X28524Y-38986D01*
X28017D01*
X27763Y-39240D01*
X29286D02*
X29540Y-38986D01*
X30048D01*
X30302Y-39240D01*
Y-40256D01*
X30048Y-40510D01*
X29540D01*
X29286Y-40256D01*
Y-39240D01*
X30810Y-40510D02*
Y-39494D01*
X31064D01*
X31318Y-39748D01*
Y-40510D01*
Y-39748D01*
X31571Y-39494D01*
X31825Y-39748D01*
Y-40510D01*
X32333D02*
Y-39494D01*
X32587D01*
X32841Y-39748D01*
Y-40510D01*
Y-39748D01*
X33095Y-39494D01*
X33349Y-39748D01*
Y-40510D01*
X35888D02*
X35380Y-40002D01*
Y-39494D01*
X35888Y-38986D01*
X37412Y-40510D02*
Y-38986D01*
X36650Y-39748D01*
X37665D01*
X38173Y-39240D02*
X38427Y-38986D01*
X38935D01*
X39189Y-39240D01*
Y-40256D01*
X38935Y-40510D01*
X38427D01*
X38173Y-40256D01*
Y-39240D01*
X39697Y-40510D02*
Y-40256D01*
X39951D01*
Y-40510D01*
X39697D01*
X40966D02*
X41474D01*
X41220D01*
Y-38986D01*
X40966Y-39240D01*
X43252Y-38986D02*
X42744Y-39240D01*
X42236Y-39748D01*
Y-40256D01*
X42490Y-40510D01*
X42998D01*
X43252Y-40256D01*
Y-40002D01*
X42998Y-39748D01*
X42236D01*
X43760Y-40510D02*
Y-39494D01*
X44013D01*
X44267Y-39748D01*
Y-40510D01*
Y-39748D01*
X44521Y-39494D01*
X44775Y-39748D01*
Y-40510D01*
X45283D02*
X45791D01*
X45537D01*
Y-39494D01*
X45283D01*
X46553Y-40510D02*
X47060D01*
X46807D01*
Y-38986D01*
X46553D01*
X47822Y-40510D02*
X48330Y-40002D01*
Y-39494D01*
X47822Y-38986D01*
X23700Y-43050D02*
X23954Y-42796D01*
X24462D01*
X24716Y-43050D01*
Y-44066D01*
X24462Y-44320D01*
X23954D01*
X23700Y-44066D01*
Y-43050D01*
X25224Y-44320D02*
Y-44066D01*
X25477D01*
Y-44320D01*
X25224D01*
X26493Y-43050D02*
X26747Y-42796D01*
X27255D01*
X27509Y-43050D01*
Y-43304D01*
X27255Y-43558D01*
X27001D01*
X27255D01*
X27509Y-43812D01*
Y-44066D01*
X27255Y-44320D01*
X26747D01*
X26493Y-44066D01*
X28017Y-43050D02*
X28271Y-42796D01*
X28778D01*
X29032Y-43050D01*
Y-44066D01*
X28778Y-44320D01*
X28271D01*
X28017Y-44066D01*
Y-43050D01*
X29540D02*
X29794Y-42796D01*
X30302D01*
X30556Y-43050D01*
Y-44066D01*
X30302Y-44320D01*
X29794D01*
X29540Y-44066D01*
Y-43050D01*
X31064Y-44320D02*
Y-43304D01*
X31318D01*
X31571Y-43558D01*
Y-44320D01*
Y-43558D01*
X31825Y-43304D01*
X32079Y-43558D01*
Y-44320D01*
X32587D02*
Y-43304D01*
X32841D01*
X33095Y-43558D01*
Y-44320D01*
Y-43558D01*
X33349Y-43304D01*
X33603Y-43558D01*
Y-44320D01*
X36142D02*
X35634Y-43812D01*
Y-43304D01*
X36142Y-42796D01*
X36904Y-44320D02*
X37412D01*
X37158D01*
Y-42796D01*
X36904Y-43050D01*
X38173Y-44320D02*
X38681D01*
X38427D01*
Y-42796D01*
X38173Y-43050D01*
X39443Y-44320D02*
Y-44066D01*
X39697D01*
Y-44320D01*
X39443D01*
X40712Y-43050D02*
X40966Y-42796D01*
X41474D01*
X41728Y-43050D01*
Y-43304D01*
X41474Y-43558D01*
X41728Y-43812D01*
Y-44066D01*
X41474Y-44320D01*
X40966D01*
X40712Y-44066D01*
Y-43812D01*
X40966Y-43558D01*
X40712Y-43304D01*
Y-43050D01*
X40966Y-43558D02*
X41474D01*
X42236Y-44320D02*
X42744D01*
X42490D01*
Y-42796D01*
X42236Y-43050D01*
X43506Y-44320D02*
Y-43304D01*
X43760D01*
X44013Y-43558D01*
Y-44320D01*
Y-43558D01*
X44267Y-43304D01*
X44521Y-43558D01*
Y-44320D01*
X45029D02*
X45537D01*
X45283D01*
Y-43304D01*
X45029D01*
X46299Y-44320D02*
X46807D01*
X46553D01*
Y-42796D01*
X46299D01*
X47568Y-44320D02*
X48076Y-43812D01*
Y-43304D01*
X47568Y-42796D01*
X23700Y-46860D02*
X23954Y-46606D01*
X24462D01*
X24716Y-46860D01*
Y-47876D01*
X24462Y-48130D01*
X23954D01*
X23700Y-47876D01*
Y-46860D01*
X25224Y-48130D02*
Y-47876D01*
X25477D01*
Y-48130D01*
X25224D01*
X26493Y-46860D02*
X26747Y-46606D01*
X27255D01*
X27509Y-46860D01*
Y-47114D01*
X27255Y-47368D01*
X27001D01*
X27255D01*
X27509Y-47622D01*
Y-47876D01*
X27255Y-48130D01*
X26747D01*
X26493Y-47876D01*
X28017Y-46860D02*
X28271Y-46606D01*
X28778D01*
X29032Y-46860D01*
Y-47876D01*
X28778Y-48130D01*
X28271D01*
X28017Y-47876D01*
Y-46860D01*
X29540D02*
X29794Y-46606D01*
X30302D01*
X30556Y-46860D01*
Y-47876D01*
X30302Y-48130D01*
X29794D01*
X29540Y-47876D01*
Y-46860D01*
X31064Y-48130D02*
Y-47114D01*
X31318D01*
X31571Y-47368D01*
Y-48130D01*
Y-47368D01*
X31825Y-47114D01*
X32079Y-47368D01*
Y-48130D01*
X32587D02*
Y-47114D01*
X32841D01*
X33095Y-47368D01*
Y-48130D01*
Y-47368D01*
X33349Y-47114D01*
X33603Y-47368D01*
Y-48130D01*
X36142D02*
X35634Y-47622D01*
Y-47114D01*
X36142Y-46606D01*
X36904Y-48130D02*
X37412D01*
X37158D01*
Y-46606D01*
X36904Y-46860D01*
X38173Y-48130D02*
X38681D01*
X38427D01*
Y-46606D01*
X38173Y-46860D01*
X39443Y-48130D02*
Y-47876D01*
X39697D01*
Y-48130D01*
X39443D01*
X40712Y-46860D02*
X40966Y-46606D01*
X41474D01*
X41728Y-46860D01*
Y-47114D01*
X41474Y-47368D01*
X41728Y-47622D01*
Y-47876D01*
X41474Y-48130D01*
X40966D01*
X40712Y-47876D01*
Y-47622D01*
X40966Y-47368D01*
X40712Y-47114D01*
Y-46860D01*
X40966Y-47368D02*
X41474D01*
X42236Y-48130D02*
X42744D01*
X42490D01*
Y-46606D01*
X42236Y-46860D01*
X43506Y-48130D02*
Y-47114D01*
X43760D01*
X44013Y-47368D01*
Y-48130D01*
Y-47368D01*
X44267Y-47114D01*
X44521Y-47368D01*
Y-48130D01*
X45029D02*
X45537D01*
X45283D01*
Y-47114D01*
X45029D01*
X46299Y-48130D02*
X46807D01*
X46553D01*
Y-46606D01*
X46299D01*
X47568Y-48130D02*
X48076Y-47622D01*
Y-47114D01*
X47568Y-46606D01*
X6991Y-51940D02*
X5976D01*
X6991Y-50924D01*
Y-50670D01*
X6737Y-50416D01*
X6229D01*
X5976Y-50670D01*
X8515Y-50416D02*
X7499D01*
Y-51178D01*
X8007Y-50924D01*
X8261D01*
X8515Y-51178D01*
Y-51686D01*
X8261Y-51940D01*
X7753D01*
X7499Y-51686D01*
X9023D02*
X9276Y-51940D01*
X9784D01*
X10038Y-51686D01*
Y-50670D01*
X9784Y-50416D01*
X9276D01*
X9023Y-50670D01*
Y-50924D01*
X9276Y-51178D01*
X10038D01*
X12070Y-50416D02*
X13085D01*
X12577D01*
Y-51940D01*
X13847D02*
X14355D01*
X14609Y-51686D01*
Y-51178D01*
X14355Y-50924D01*
X13847D01*
X13593Y-51178D01*
Y-51686D01*
X13847Y-51940D01*
X15370Y-50670D02*
Y-50924D01*
X15117D01*
X15624D01*
X15370D01*
Y-51686D01*
X15624Y-51940D01*
X16640Y-50924D02*
X17148D01*
X17402Y-51178D01*
Y-51940D01*
X16640D01*
X16386Y-51686D01*
X16640Y-51432D01*
X17402D01*
X17910Y-51940D02*
X18418D01*
X18164D01*
Y-50416D01*
X17910D01*
X6991Y-17650D02*
X5976D01*
X6991Y-16634D01*
Y-16380D01*
X6737Y-16126D01*
X6229D01*
X5976Y-16380D01*
X6737Y-21460D02*
Y-19936D01*
X5976Y-20698D01*
X6991D01*
X6737Y-25270D02*
Y-23746D01*
X5976Y-24508D01*
X6991D01*
X5976Y-27810D02*
X6229Y-27556D01*
X6737D01*
X6991Y-27810D01*
Y-28064D01*
X6737Y-28318D01*
X6991Y-28572D01*
Y-28826D01*
X6737Y-29080D01*
X6229D01*
X5976Y-28826D01*
Y-28572D01*
X6229Y-28318D01*
X5976Y-28064D01*
Y-27810D01*
X6229Y-28318D02*
X6737D01*
X5976Y-32636D02*
X6229Y-32890D01*
X6737D01*
X6991Y-32636D01*
Y-31620D01*
X6737Y-31366D01*
X6229D01*
X5976Y-31620D01*
Y-31874D01*
X6229Y-32128D01*
X6991D01*
Y-36700D02*
X5976D01*
X6991Y-35684D01*
Y-35430D01*
X6737Y-35176D01*
X6229D01*
X5976Y-35430D01*
X7499D02*
X7753Y-35176D01*
X8261D01*
X8515Y-35430D01*
Y-36446D01*
X8261Y-36700D01*
X7753D01*
X7499Y-36446D01*
Y-35430D01*
X6737Y-40510D02*
Y-38986D01*
X5976Y-39748D01*
X6991D01*
X7499Y-39240D02*
X7753Y-38986D01*
X8261D01*
X8515Y-39240D01*
Y-40256D01*
X8261Y-40510D01*
X7753D01*
X7499Y-40256D01*
Y-39240D01*
X6737Y-44320D02*
Y-42796D01*
X5976Y-43558D01*
X6991D01*
X8515Y-44320D02*
X7499D01*
X8515Y-43304D01*
Y-43050D01*
X8261Y-42796D01*
X7753D01*
X7499Y-43050D01*
X5976Y-48130D02*
X6483D01*
X6229D01*
Y-46606D01*
X5976Y-46860D01*
X7245D02*
X7499Y-46606D01*
X8007D01*
X8261Y-46860D01*
Y-47114D01*
X8007Y-47368D01*
X7753D01*
X8007D01*
X8261Y-47622D01*
Y-47876D01*
X8007Y-48130D01*
X7499D01*
X7245Y-47876D01*
X8769Y-46860D02*
X9023Y-46606D01*
X9530D01*
X9784Y-46860D01*
Y-47876D01*
X9530Y-48130D01*
X9023D01*
X8769Y-47876D01*
Y-46860D01*
D94*
X-6159Y-17015D02*
G03*
X-6159Y-17015I-635J0D01*
G01*
X69153Y23050D02*
G03*
X69153Y23050I-423J0D01*
G01*
X79453D02*
G03*
X79453Y23050I-423J0D01*
G01*
X-7429Y-21142D02*
X-7112D01*
X-7429D02*
Y-20507D01*
X-7112D01*
Y-20190D01*
X-6477D01*
Y-20507D02*
Y-20190D01*
Y-20507D02*
X-6159D01*
Y-21142D02*
Y-20507D01*
X-6477Y-21142D02*
X-6159D01*
X-6477Y-21460D02*
Y-21142D01*
X-7112Y-21460D02*
X-6477D01*
X-7112D02*
Y-21142D01*
X-6794Y-25270D02*
X-6159Y-24000D01*
X-7429D02*
X-6159D01*
X-7429D02*
X-6794Y-25270D01*
X-7175Y-28635D02*
X-6985D01*
X-7175D02*
Y-28254D01*
X-6985D01*
Y-28064D01*
X-6604D01*
Y-28254D02*
Y-28064D01*
Y-28254D02*
X-6413D01*
Y-28635D02*
Y-28254D01*
X-6604Y-28635D02*
X-6413D01*
X-6604Y-28826D02*
Y-28635D01*
X-6985Y-28826D02*
X-6604D01*
X-6985D02*
Y-28635D01*
X-7429Y-28763D02*
X-7112D01*
X-7429D02*
Y-28128D01*
X-7112D01*
Y-27810D01*
X-6477D01*
Y-28128D02*
Y-27810D01*
Y-28128D02*
X-6159D01*
Y-28763D02*
Y-28128D01*
X-6477Y-28763D02*
X-6159D01*
X-6477Y-29080D02*
Y-28763D01*
X-7112Y-29080D02*
X-6477D01*
X-7112D02*
Y-28763D01*
Y-32572D02*
X-6794Y-32890D01*
X-7429Y-32572D02*
X-7112D01*
X-7429D02*
X-7112Y-32255D01*
X-7429Y-31938D02*
X-7112Y-32255D01*
X-7429Y-31938D02*
X-7112D01*
X-6794Y-31620D01*
X-6477Y-31938D01*
X-6159D01*
X-6477Y-32255D02*
X-6159Y-31938D01*
X-6477Y-32255D02*
X-6159Y-32572D01*
X-6477D02*
X-6159D01*
X-6794Y-32890D02*
X-6477Y-32572D01*
X-6985Y-36256D02*
X-6794Y-36446D01*
X-7175Y-36256D02*
X-6985D01*
X-7175D02*
X-6985Y-36065D01*
X-7175Y-35875D02*
X-6985Y-36065D01*
X-7175Y-35875D02*
X-6985D01*
X-6794Y-35684D01*
X-6604Y-35875D01*
X-6413D01*
X-6604Y-36065D02*
X-6413Y-35875D01*
X-6604Y-36065D02*
X-6413Y-36256D01*
X-6604D02*
X-6413D01*
X-6794Y-36446D02*
X-6604Y-36256D01*
X-7112Y-36382D02*
X-6794Y-36700D01*
X-7429Y-36382D02*
X-7112D01*
X-7429D02*
X-7112Y-36065D01*
X-7429Y-35748D02*
X-7112Y-36065D01*
X-7429Y-35748D02*
X-7112D01*
X-6794Y-35430D01*
X-6477Y-35748D01*
X-6159D01*
X-6477Y-36065D02*
X-6159Y-35748D01*
X-6477Y-36065D02*
X-6159Y-36382D01*
X-6477D02*
X-6159D01*
X-6794Y-36700D02*
X-6477Y-36382D01*
X-6794Y-40256D02*
X-6413Y-39494D01*
X-7175D02*
X-6413D01*
X-7175D02*
X-6794Y-40256D01*
Y-40510D02*
X-6159Y-39240D01*
X-7429D02*
X-6159D01*
X-7429D02*
X-6794Y-40510D01*
X-7429Y-44320D02*
X-6794Y-44002D01*
X-6159Y-44320D01*
X-6477Y-43685D02*
X-6159Y-44320D01*
X-6477Y-43685D02*
X-6159Y-43050D01*
X-6794Y-43368D02*
X-6159Y-43050D01*
X-7429D02*
X-6794Y-43368D01*
X-7429Y-43050D02*
X-7112Y-43685D01*
X-7429Y-44320D02*
X-7112Y-43685D01*
X-7429Y-48130D02*
X-6159D01*
Y-46860D01*
X-7429D02*
X-6159D01*
X-7429Y-48130D02*
Y-46860D01*
X51904Y37179D02*
X52751D01*
Y38025D01*
X51904D02*
X52751D01*
X51904Y37179D02*
Y38025D01*
X51852Y38252D02*
X52698D01*
Y39098D01*
X51852D02*
X52698D01*
X51852Y38252D02*
Y39098D01*
X59480Y39629D02*
X60326D01*
Y40475D01*
X59480D02*
X60326D01*
X59480Y39629D02*
Y40475D01*
X59377Y43696D02*
X60223D01*
Y44543D01*
X59377D02*
X60223D01*
X59377Y43696D02*
Y44543D01*
X58930Y35203D02*
X59776D01*
Y36050D01*
X58930D02*
X59776D01*
X58930Y35203D02*
Y36050D01*
X51402Y35052D02*
X52248D01*
Y35898D01*
X51402D02*
X52248D01*
X51402Y35052D02*
Y35898D01*
X65202Y24877D02*
X66048D01*
Y25723D01*
X65202D02*
X66048D01*
X65202Y24877D02*
Y25723D01*
X61402Y39577D02*
X62248D01*
Y40423D01*
X61402D02*
X62248D01*
X61402Y39577D02*
Y40423D01*
X19627Y10427D02*
X20473D01*
Y11273D01*
X19627D02*
X20473D01*
X19627Y10427D02*
Y11273D01*
X30927Y18252D02*
X31773D01*
Y19098D01*
X30927D02*
X31773D01*
X30927Y18252D02*
Y19098D01*
X31153Y17178D02*
X32000D01*
Y18024D01*
X31153D02*
X32000D01*
X31153Y17178D02*
Y18024D01*
X17753Y20903D02*
X18599D01*
Y21750D01*
X17753D02*
X18599D01*
X17753Y20903D02*
Y21750D01*
X67305Y39779D02*
X68152D01*
Y40625D01*
X67305D02*
X68152D01*
X67305Y39779D02*
Y40625D01*
X49952Y35652D02*
X50798D01*
Y36498D01*
X49952D02*
X50798D01*
X49952Y35652D02*
Y36498D01*
X59480Y38579D02*
X60326D01*
Y39425D01*
X59480D02*
X60326D01*
X59480Y38579D02*
Y39425D01*
X56204Y36803D02*
X57051D01*
Y37650D01*
X56204D02*
X57051D01*
X56204Y36803D02*
Y37650D01*
X54529Y33128D02*
X55376D01*
Y33975D01*
X54529D02*
X55376D01*
X54529Y33128D02*
Y33975D01*
X59754Y36629D02*
X60600D01*
Y37475D01*
X59754D02*
X60600D01*
X59754Y36629D02*
Y37475D01*
X59105Y33353D02*
X59951D01*
Y34200D01*
X59105D02*
X59951D01*
X59105Y33353D02*
Y34200D01*
X70055Y37454D02*
X70902D01*
Y38300D01*
X70055D02*
X70902D01*
X70055Y37454D02*
Y38300D01*
X58477Y30952D02*
X59323D01*
Y31798D01*
X58477D02*
X59323D01*
X58477Y30952D02*
Y31798D01*
X51352Y31252D02*
X52198D01*
Y32098D01*
X51352D02*
X52198D01*
X51352Y31252D02*
Y32098D01*
X22378Y27728D02*
X23225D01*
Y28575D01*
X22378D02*
X23225D01*
X22378Y27728D02*
Y28575D01*
X22977Y25677D02*
X23823D01*
Y26523D01*
X22977D02*
X23823D01*
X22977Y25677D02*
Y26523D01*
X22903Y28728D02*
X23750D01*
Y29575D01*
X22903D02*
X23750D01*
X22903Y28728D02*
Y29575D01*
X22327Y29652D02*
X23173D01*
Y30498D01*
X22327D02*
X23173D01*
X22327Y29652D02*
Y30498D01*
X17603Y38104D02*
X18449D01*
Y38950D01*
X17603D02*
X18449D01*
X17603Y38104D02*
Y38950D01*
X18378Y37379D02*
X19224D01*
Y38225D01*
X18378D02*
X19224D01*
X18378Y37379D02*
Y38225D01*
X19603Y36819D02*
X20450D01*
Y37666D01*
X19603D02*
X20450D01*
X19603Y36819D02*
Y37666D01*
X19303Y33503D02*
X20149D01*
Y34350D01*
X19303D02*
X20149D01*
X19303Y33503D02*
Y34350D01*
X20378Y35104D02*
X21225D01*
Y35950D01*
X20378D02*
X21225D01*
X20378Y35104D02*
Y35950D01*
X18253Y32803D02*
X19099D01*
Y33650D01*
X18253D02*
X19099D01*
X18253Y32803D02*
Y33650D01*
X17603Y33653D02*
X18449D01*
Y34500D01*
X17603D02*
X18449D01*
X17603Y33653D02*
Y34500D01*
X12727Y36502D02*
X13573D01*
Y37348D01*
X12727D02*
X13573D01*
X12727Y36502D02*
Y37348D01*
X19178Y15128D02*
X20024D01*
Y15974D01*
X19178D02*
X20024D01*
X19178Y15128D02*
Y15974D01*
X19803Y14228D02*
X20649D01*
Y15074D01*
X19803D02*
X20649D01*
X19803Y14228D02*
Y15074D01*
X18002Y4952D02*
X18848D01*
Y5798D01*
X18002D02*
X18848D01*
X18002Y4952D02*
Y5798D01*
X22327Y18827D02*
X23173D01*
Y19673D01*
X22327D02*
X23173D01*
X22327Y18827D02*
Y19673D01*
X22077Y16327D02*
X22923D01*
Y17173D01*
X22077D02*
X22923D01*
X22077Y16327D02*
Y17173D01*
X22327Y21552D02*
X23173D01*
Y22398D01*
X22327D02*
X23173D01*
X22327Y21552D02*
Y22398D01*
X25027Y24510D02*
X25873D01*
Y25357D01*
X25027D02*
X25873D01*
X25027Y24510D02*
Y25357D01*
X23198Y32869D02*
X24044D01*
Y33716D01*
X23198D02*
X24044D01*
X23198Y32869D02*
Y33716D01*
X25403Y28428D02*
X26250D01*
Y29275D01*
X25403D02*
X26250D01*
X25403Y28428D02*
Y29275D01*
X21927Y34427D02*
X22773D01*
Y35273D01*
X21927D02*
X22773D01*
X21927Y34427D02*
Y35273D01*
X44852Y17653D02*
X45698D01*
Y18500D01*
X44852D02*
X45698D01*
X44852Y17653D02*
Y18500D01*
X65877Y33827D02*
X66723D01*
Y34673D01*
X65877D02*
X66723D01*
X65877Y33827D02*
Y34673D01*
X31017Y20927D02*
X31863D01*
Y21773D01*
X31017D02*
X31863D01*
X31017Y20927D02*
Y21773D01*
X29477Y27526D02*
X30323D01*
Y28373D01*
X29477D02*
X30323D01*
X29477Y27526D02*
Y28373D01*
X30521Y26378D02*
X31367D01*
Y27225D01*
X30521D02*
X31367D01*
X30521Y26378D02*
Y27225D01*
X28528Y30303D02*
X29375D01*
Y31150D01*
X28528D02*
X29375D01*
X28528Y30303D02*
Y31150D01*
X31453Y27703D02*
X32300D01*
Y28550D01*
X31453D02*
X32300D01*
X31453Y27703D02*
Y28550D01*
X32353Y29303D02*
X33200D01*
Y30150D01*
X32353D02*
X33200D01*
X32353Y29303D02*
Y30150D01*
X49702Y24227D02*
X50548D01*
Y25073D01*
X49702D02*
X50548D01*
X49702Y24227D02*
Y25073D01*
X45377Y19802D02*
X46223D01*
Y20648D01*
X45377D02*
X46223D01*
X45377Y19802D02*
Y20648D01*
X49252Y21552D02*
X50098D01*
Y22398D01*
X49252D02*
X50098D01*
X49252Y21552D02*
Y22398D01*
X29603Y29103D02*
X30450D01*
Y29950D01*
X29603D02*
X30450D01*
X29603Y29103D02*
Y29950D01*
X18277Y23503D02*
X19123D01*
Y24350D01*
X18277D02*
X19123D01*
X18277Y23503D02*
Y24350D01*
X53702Y12627D02*
X54548D01*
Y13473D01*
X53702D02*
X54548D01*
X53702Y12627D02*
Y13473D01*
X46279Y14303D02*
X47126D01*
Y15149D01*
X46279D02*
X47126D01*
X46279Y14303D02*
Y15149D01*
X49088Y13665D02*
X49935D01*
Y14512D01*
X49088D02*
X49935D01*
X49088Y13665D02*
Y14512D01*
X57677Y11502D02*
X58523D01*
Y12348D01*
X57677D02*
X58523D01*
X57677Y11502D02*
Y12348D01*
X52127Y17827D02*
X52973D01*
Y18673D01*
X52127D02*
X52973D01*
X52127Y17827D02*
Y18673D01*
X47577Y14952D02*
X48423D01*
Y15798D01*
X47577D02*
X48423D01*
X47577Y14952D02*
Y15798D01*
X50354Y14853D02*
X51201D01*
Y15699D01*
X50354D02*
X51201D01*
X50354Y14853D02*
Y15699D01*
X53779Y14853D02*
X54626D01*
Y15699D01*
X53779D02*
X54626D01*
X53779Y14853D02*
Y15699D01*
X52577Y14752D02*
X53423D01*
Y15598D01*
X52577D02*
X53423D01*
X52577Y14752D02*
Y15598D01*
X56002Y14877D02*
X56848D01*
Y15723D01*
X56002D02*
X56848D01*
X56002Y14877D02*
Y15723D01*
X41627Y45477D02*
X42473D01*
Y46323D01*
X41627D02*
X42473D01*
X41627Y45477D02*
Y46323D01*
X45726Y40301D02*
X46573D01*
Y41148D01*
X45726D02*
X46573D01*
X45726Y40301D02*
Y41148D01*
X18277Y18002D02*
X19123D01*
Y18848D01*
X18277D02*
X19123D01*
X18277Y18002D02*
Y18848D01*
X18277Y16952D02*
X19123D01*
Y17798D01*
X18277D02*
X19123D01*
X18277Y16952D02*
Y17798D01*
X20303Y45554D02*
X21150D01*
Y46401D01*
X20303D02*
X21150D01*
X20303Y45554D02*
Y46401D01*
X28753Y34654D02*
X29600D01*
Y35500D01*
X28753D02*
X29600D01*
X28753Y34654D02*
Y35500D01*
X25952Y33820D02*
X26798D01*
Y34667D01*
X25952D02*
X26798D01*
X25952Y33820D02*
Y34667D01*
X27752Y35627D02*
X28598D01*
Y36473D01*
X27752D02*
X28598D01*
X27752Y35627D02*
Y36473D01*
X31502Y19927D02*
X32348D01*
Y20773D01*
X31502D02*
X32348D01*
X31502Y19927D02*
Y20773D01*
X33152Y21577D02*
X33998D01*
Y22423D01*
X33152D02*
X33998D01*
X33152Y21577D02*
Y22423D01*
X30777Y24202D02*
X31623D01*
Y25048D01*
X30777D02*
X31623D01*
X30777Y24202D02*
Y25048D01*
X33127Y22652D02*
X33973D01*
Y23498D01*
X33127D02*
X33973D01*
X33127Y22652D02*
Y23498D01*
X48429Y19203D02*
X49276D01*
Y20049D01*
X48429D02*
X49276D01*
X48429Y19203D02*
Y20049D01*
X23403Y51229D02*
X24250D01*
Y52076D01*
X23403D02*
X24250D01*
X23403Y51229D02*
Y52076D01*
X20977Y51152D02*
X21823D01*
Y51998D01*
X20977D02*
X21823D01*
X20977Y51152D02*
Y51998D01*
X48177Y25477D02*
X49023D01*
Y26323D01*
X48177D02*
X49023D01*
X48177Y25477D02*
Y26323D01*
X43979Y21228D02*
X44826D01*
Y22075D01*
X43979D02*
X44826D01*
X43979Y21228D02*
Y22075D01*
X34752Y22702D02*
X35598D01*
Y23548D01*
X34752D02*
X35598D01*
X34752Y22702D02*
Y23548D01*
X17777Y25052D02*
X18623D01*
Y25898D01*
X17777D02*
X18623D01*
X17777Y25052D02*
Y25898D01*
X18253Y22453D02*
X19099D01*
Y23300D01*
X18253D02*
X19099D01*
X18253Y22453D02*
Y23300D01*
Y19878D02*
X19099D01*
Y20724D01*
X18253D02*
X19099D01*
X18253Y19878D02*
Y20724D01*
X27203Y27803D02*
X28050D01*
Y28650D01*
X27203D02*
X28050D01*
X27203Y27803D02*
Y28650D01*
X38202Y24402D02*
X39048D01*
Y25248D01*
X38202D02*
X39048D01*
X38202Y24402D02*
Y25248D01*
X33375Y31578D02*
X34222D01*
Y32425D01*
X33375D02*
X34222D01*
X33375Y31578D02*
Y32425D01*
X73952Y1202D02*
X74798D01*
Y2048D01*
X73952D02*
X74798D01*
X73952Y1202D02*
Y2048D01*
X30202Y35352D02*
X31048D01*
Y36198D01*
X30202D02*
X31048D01*
X30202Y35352D02*
Y36198D01*
X59732Y18975D02*
X60578D01*
Y19822D01*
X59732D02*
X60578D01*
X59732Y18975D02*
Y19822D01*
X72602Y478D02*
X73448D01*
Y1324D01*
X72602D02*
X73448D01*
X72602Y478D02*
Y1324D01*
X71405Y1152D02*
X72252D01*
Y1999D01*
X71405D02*
X72252D01*
X71405Y1152D02*
Y1999D01*
X65502Y12176D02*
X66348D01*
Y13023D01*
X65502D02*
X66348D01*
X65502Y12176D02*
Y13023D01*
X62355Y9227D02*
X63202D01*
Y10074D01*
X62355D02*
X63202D01*
X62355Y9227D02*
Y10074D01*
X64202Y7602D02*
X65048D01*
Y8448D01*
X64202D02*
X65048D01*
X64202Y7602D02*
Y8448D01*
X33228Y35679D02*
X34075D01*
Y36525D01*
X33228D02*
X34075D01*
X33228Y35679D02*
Y36525D01*
X35327Y35552D02*
X36173D01*
Y36398D01*
X35327D02*
X36173D01*
X35327Y35552D02*
Y36398D01*
X43079Y14978D02*
X43926D01*
Y15824D01*
X43079D02*
X43926D01*
X43079Y14978D02*
Y15824D01*
X41428Y14877D02*
X42275D01*
Y15723D01*
X41428D02*
X42275D01*
X41428Y14877D02*
Y15723D01*
X44729Y14128D02*
X45576D01*
Y14974D01*
X44729D02*
X45576D01*
X44729Y14128D02*
Y14974D01*
X69980Y1252D02*
X70827D01*
Y2099D01*
X69980D02*
X70827D01*
X69980Y1252D02*
Y2099D01*
X16327Y14902D02*
X17173D01*
Y15748D01*
X16327D02*
X17173D01*
X16327Y14902D02*
Y15748D01*
X63405Y10077D02*
X64252D01*
Y10924D01*
X63405D02*
X64252D01*
X63405Y10077D02*
Y10924D01*
X61077Y9902D02*
X61923D01*
Y10748D01*
X61077D02*
X61923D01*
X61077Y9902D02*
Y10748D01*
X60855Y15328D02*
X61701D01*
Y16174D01*
X60855D02*
X61701D01*
X60855Y15328D02*
Y16174D01*
X64527Y19177D02*
X65373D01*
Y20023D01*
X64527D02*
X65373D01*
X64527Y19177D02*
Y20023D01*
X53252Y19477D02*
X54098D01*
Y20323D01*
X53252D02*
X54098D01*
X53252Y19477D02*
Y20323D01*
X21527Y40677D02*
X22373D01*
Y41523D01*
X21527D02*
X22373D01*
X21527Y40677D02*
Y41523D01*
X24652Y44502D02*
X25498D01*
Y45348D01*
X24652D02*
X25498D01*
X24652Y44502D02*
Y45348D01*
X27752Y40102D02*
X28598D01*
Y40948D01*
X27752D02*
X28598D01*
X27752Y40102D02*
Y40948D01*
X31402Y41602D02*
X32248D01*
Y42448D01*
X31402D02*
X32248D01*
X31402Y41602D02*
Y42448D01*
X43002Y19602D02*
X43848D01*
Y20448D01*
X43002D02*
X43848D01*
X43002Y19602D02*
Y20448D01*
X60780Y12402D02*
X61626D01*
Y13249D01*
X60780D02*
X61626D01*
X60780Y12402D02*
Y13249D01*
X34052Y17402D02*
X34898D01*
Y18248D01*
X34052D02*
X34898D01*
X34052Y17402D02*
Y18248D01*
X34749Y13902D02*
X35595D01*
Y14749D01*
X34749D02*
X35595D01*
X34749Y13902D02*
Y14749D01*
X35478Y15077D02*
X36325D01*
Y15924D01*
X35478D02*
X36325D01*
X35478Y15077D02*
Y15924D01*
X31452Y11577D02*
X32298D01*
Y12423D01*
X31452D02*
X32298D01*
X31452Y11577D02*
Y12423D01*
X31653Y15227D02*
X32500D01*
Y16074D01*
X31653D02*
X32500D01*
X31653Y15227D02*
Y16074D01*
X43052Y11852D02*
X43898D01*
Y12698D01*
X43052D02*
X43898D01*
X43052Y11852D02*
Y12698D01*
X37977Y12402D02*
X38823D01*
Y13248D01*
X37977D02*
X38823D01*
X37977Y12402D02*
Y13248D01*
X31228Y8202D02*
X32075D01*
Y9049D01*
X31228D02*
X32075D01*
X31228Y8202D02*
Y9049D01*
X31577Y9902D02*
X32423D01*
Y10748D01*
X31577D02*
X32423D01*
X31577Y9902D02*
Y10748D01*
X27452Y6302D02*
X28298D01*
Y7148D01*
X27452D02*
X28298D01*
X27452Y6302D02*
Y7148D01*
X68155Y11727D02*
X69002D01*
Y12574D01*
X68155D02*
X69002D01*
X68155Y11727D02*
Y12574D01*
X68902Y9977D02*
X69748D01*
Y10823D01*
X68902D02*
X69748D01*
X68902Y9977D02*
Y10823D01*
X60377Y5377D02*
X61223D01*
Y6223D01*
X60377D02*
X61223D01*
X60377Y5377D02*
Y6223D01*
X65028Y51213D02*
X65240Y51002D01*
X64817Y51213D02*
X65028D01*
X64817D02*
X65028Y51425D01*
X64817Y51637D02*
X65028Y51425D01*
X64817Y51637D02*
X65028D01*
X65240Y51848D01*
X65452Y51637D01*
X65663D01*
X65452Y51425D02*
X65663Y51637D01*
X65452Y51425D02*
X65663Y51213D01*
X65452D02*
X65663D01*
X65240Y51002D02*
X65452Y51213D01*
X65028Y48673D02*
X65240Y48462D01*
X64817Y48673D02*
X65028D01*
X64817D02*
X65028Y48885D01*
X64817Y49097D02*
X65028Y48885D01*
X64817Y49097D02*
X65028D01*
X65240Y49308D01*
X65452Y49097D01*
X65663D01*
X65452Y48885D02*
X65663Y49097D01*
X65452Y48885D02*
X65663Y48673D01*
X65452D02*
X65663D01*
X65240Y48462D02*
X65452Y48673D01*
X62488Y51213D02*
X62700Y51002D01*
X62277Y51213D02*
X62488D01*
X62277D02*
X62488Y51425D01*
X62277Y51637D02*
X62488Y51425D01*
X62277Y51637D02*
X62488D01*
X62700Y51848D01*
X62912Y51637D01*
X63123D01*
X62912Y51425D02*
X63123Y51637D01*
X62912Y51425D02*
X63123Y51213D01*
X62912D02*
X63123D01*
X62700Y51002D02*
X62912Y51213D01*
X62488Y48673D02*
X62700Y48462D01*
X62277Y48673D02*
X62488D01*
X62277D02*
X62488Y48885D01*
X62277Y49097D02*
X62488Y48885D01*
X62277Y49097D02*
X62488D01*
X62700Y49308D01*
X62912Y49097D01*
X63123D01*
X62912Y48885D02*
X63123Y49097D01*
X62912Y48885D02*
X63123Y48673D01*
X62912D02*
X63123D01*
X62700Y48462D02*
X62912Y48673D01*
X79538Y16538D02*
X79750Y16327D01*
X79327Y16538D02*
X79538D01*
X79327D02*
X79538Y16750D01*
X79327Y16962D02*
X79538Y16750D01*
X79327Y16962D02*
X79538D01*
X79750Y17173D01*
X79962Y16962D01*
X80173D01*
X79962Y16750D02*
X80173Y16962D01*
X79962Y16750D02*
X80173Y16538D01*
X79962D02*
X80173D01*
X79750Y16327D02*
X79962Y16538D01*
X79538Y13998D02*
X79750Y13787D01*
X79327Y13998D02*
X79538D01*
X79327D02*
X79538Y14210D01*
X79327Y14422D02*
X79538Y14210D01*
X79327Y14422D02*
X79538D01*
X79750Y14633D01*
X79962Y14422D01*
X80173D01*
X79962Y14210D02*
X80173Y14422D01*
X79962Y14210D02*
X80173Y13998D01*
X79962D02*
X80173D01*
X79750Y13787D02*
X79962Y13998D01*
X79538Y11458D02*
X79750Y11247D01*
X79327Y11458D02*
X79538D01*
X79327D02*
X79538Y11670D01*
X79327Y11882D02*
X79538Y11670D01*
X79327Y11882D02*
X79538D01*
X79750Y12093D01*
X79962Y11882D01*
X80173D01*
X79962Y11670D02*
X80173Y11882D01*
X79962Y11670D02*
X80173Y11458D01*
X79962D02*
X80173D01*
X79750Y11247D02*
X79962Y11458D01*
X79538Y8918D02*
X79750Y8707D01*
X79327Y8918D02*
X79538D01*
X79327D02*
X79538Y9130D01*
X79327Y9342D02*
X79538Y9130D01*
X79327Y9342D02*
X79538D01*
X79750Y9553D01*
X79962Y9342D01*
X80173D01*
X79962Y9130D02*
X80173Y9342D01*
X79962Y9130D02*
X80173Y8918D01*
X79962D02*
X80173D01*
X79750Y8707D02*
X79962Y8918D01*
X79538Y6378D02*
X79750Y6167D01*
X79327Y6378D02*
X79538D01*
X79327D02*
X79538Y6590D01*
X79327Y6802D02*
X79538Y6590D01*
X79327Y6802D02*
X79538D01*
X79750Y7013D01*
X79962Y6802D01*
X80173D01*
X79962Y6590D02*
X80173Y6802D01*
X79962Y6590D02*
X80173Y6378D01*
X79962D02*
X80173D01*
X79750Y6167D02*
X79962Y6378D01*
X4870Y50016D02*
X5124Y50524D01*
X4616D02*
X5124D01*
X4616D02*
X4870Y50016D01*
Y49847D02*
X5293Y50693D01*
X4447D02*
X5293D01*
X4447D02*
X4870Y49847D01*
Y47476D02*
X5124Y47984D01*
X4616D02*
X5124D01*
X4616D02*
X4870Y47476D01*
Y47307D02*
X5293Y48153D01*
X4447D02*
X5293D01*
X4447D02*
X4870Y47307D01*
X7410Y50016D02*
X7664Y50524D01*
X7156D02*
X7664D01*
X7156D02*
X7410Y50016D01*
Y49847D02*
X7833Y50693D01*
X6987D02*
X7833D01*
X6987D02*
X7410Y49847D01*
Y47476D02*
X7664Y47984D01*
X7156D02*
X7664D01*
X7156D02*
X7410Y47476D01*
Y47307D02*
X7833Y48153D01*
X6987D02*
X7833D01*
X6987D02*
X7410Y47307D01*
X9950Y50016D02*
X10204Y50524D01*
X9696D02*
X10204D01*
X9696D02*
X9950Y50016D01*
Y49847D02*
X10373Y50693D01*
X9527D02*
X10373D01*
X9527D02*
X9950Y49847D01*
Y47476D02*
X10204Y47984D01*
X9696D02*
X10204D01*
X9696D02*
X9950Y47476D01*
Y47307D02*
X10373Y48153D01*
X9527D02*
X10373D01*
X9527D02*
X9950Y47307D01*
X12490Y50016D02*
X12744Y50524D01*
X12236D02*
X12744D01*
X12236D02*
X12490Y50016D01*
Y49847D02*
X12913Y50693D01*
X12067D02*
X12913D01*
X12067D02*
X12490Y49847D01*
Y47476D02*
X12744Y47984D01*
X12236D02*
X12744D01*
X12236D02*
X12490Y47476D01*
Y47307D02*
X12913Y48153D01*
X12067D02*
X12913D01*
X12067D02*
X12490Y47307D01*
X15030Y50016D02*
X15284Y50524D01*
X14776D02*
X15284D01*
X14776D02*
X15030Y50016D01*
Y49847D02*
X15453Y50693D01*
X14607D02*
X15453D01*
X14607D02*
X15030Y49847D01*
Y47476D02*
X15284Y47984D01*
X14776D02*
X15284D01*
X14776D02*
X15030Y47476D01*
Y47307D02*
X15453Y48153D01*
X14607D02*
X15453D01*
X14607D02*
X15030Y47307D01*
X17570Y50016D02*
X17824Y50524D01*
X17316D02*
X17824D01*
X17316D02*
X17570Y50016D01*
Y49847D02*
X17993Y50693D01*
X17147D02*
X17993D01*
X17147D02*
X17570Y49847D01*
Y47476D02*
X17824Y47984D01*
X17316D02*
X17824D01*
X17316D02*
X17570Y47476D01*
Y47307D02*
X17993Y48153D01*
X17147D02*
X17993D01*
X17147D02*
X17570Y47307D01*
X20110Y50016D02*
X20364Y50524D01*
X19856D02*
X20364D01*
X19856D02*
X20110Y50016D01*
Y49847D02*
X20533Y50693D01*
X19687D02*
X20533D01*
X19687D02*
X20110Y49847D01*
Y47476D02*
X20364Y47984D01*
X19856D02*
X20364D01*
X19856D02*
X20110Y47476D01*
Y47307D02*
X20533Y48153D01*
X19687D02*
X20533D01*
X19687D02*
X20110Y47307D01*
X22650Y50016D02*
X22904Y50524D01*
X22396D02*
X22904D01*
X22396D02*
X22650Y50016D01*
Y49847D02*
X23073Y50693D01*
X22227D02*
X23073D01*
X22227D02*
X22650Y49847D01*
Y47476D02*
X22904Y47984D01*
X22396D02*
X22904D01*
X22396D02*
X22650Y47476D01*
Y47307D02*
X23073Y48153D01*
X22227D02*
X23073D01*
X22227D02*
X22650Y47307D01*
X25190Y50016D02*
X25444Y50524D01*
X24936D02*
X25444D01*
X24936D02*
X25190Y50016D01*
Y49847D02*
X25613Y50693D01*
X24767D02*
X25613D01*
X24767D02*
X25190Y49847D01*
Y47476D02*
X25444Y47984D01*
X24936D02*
X25444D01*
X24936D02*
X25190Y47476D01*
Y47307D02*
X25613Y48153D01*
X24767D02*
X25613D01*
X24767D02*
X25190Y47307D01*
X27730Y50016D02*
X27984Y50524D01*
X27476D02*
X27984D01*
X27476D02*
X27730Y50016D01*
Y49847D02*
X28153Y50693D01*
X27307D02*
X28153D01*
X27307D02*
X27730Y49847D01*
Y47476D02*
X27984Y47984D01*
X27476D02*
X27984D01*
X27476D02*
X27730Y47476D01*
Y47307D02*
X28153Y48153D01*
X27307D02*
X28153D01*
X27307D02*
X27730Y47307D01*
X30270Y50016D02*
X30524Y50524D01*
X30016D02*
X30524D01*
X30016D02*
X30270Y50016D01*
Y49847D02*
X30693Y50693D01*
X29847D02*
X30693D01*
X29847D02*
X30270Y49847D01*
Y47476D02*
X30524Y47984D01*
X30016D02*
X30524D01*
X30016D02*
X30270Y47476D01*
Y47307D02*
X30693Y48153D01*
X29847D02*
X30693D01*
X29847D02*
X30270Y47307D01*
X32810Y50016D02*
X33064Y50524D01*
X32556D02*
X33064D01*
X32556D02*
X32810Y50016D01*
Y49847D02*
X33233Y50693D01*
X32387D02*
X33233D01*
X32387D02*
X32810Y49847D01*
Y47476D02*
X33064Y47984D01*
X32556D02*
X33064D01*
X32556D02*
X32810Y47476D01*
Y47307D02*
X33233Y48153D01*
X32387D02*
X33233D01*
X32387D02*
X32810Y47307D01*
X35350Y50016D02*
X35604Y50524D01*
X35096D02*
X35604D01*
X35096D02*
X35350Y50016D01*
Y49847D02*
X35773Y50693D01*
X34927D02*
X35773D01*
X34927D02*
X35350Y49847D01*
Y47476D02*
X35604Y47984D01*
X35096D02*
X35604D01*
X35096D02*
X35350Y47476D01*
Y47307D02*
X35773Y48153D01*
X34927D02*
X35773D01*
X34927D02*
X35350Y47307D01*
X37890Y50016D02*
X38144Y50524D01*
X37636D02*
X38144D01*
X37636D02*
X37890Y50016D01*
Y49847D02*
X38313Y50693D01*
X37467D02*
X38313D01*
X37467D02*
X37890Y49847D01*
Y47476D02*
X38144Y47984D01*
X37636D02*
X38144D01*
X37636D02*
X37890Y47476D01*
Y47307D02*
X38313Y48153D01*
X37467D02*
X38313D01*
X37467D02*
X37890Y47307D01*
X40430Y50016D02*
X40684Y50524D01*
X40176D02*
X40684D01*
X40176D02*
X40430Y50016D01*
Y49847D02*
X40853Y50693D01*
X40007D02*
X40853D01*
X40007D02*
X40430Y49847D01*
Y47476D02*
X40684Y47984D01*
X40176D02*
X40684D01*
X40176D02*
X40430Y47476D01*
Y47307D02*
X40853Y48153D01*
X40007D02*
X40853D01*
X40007D02*
X40430Y47307D01*
X42970Y50016D02*
X43224Y50524D01*
X42716D02*
X43224D01*
X42716D02*
X42970Y50016D01*
Y49847D02*
X43393Y50693D01*
X42547D02*
X43393D01*
X42547D02*
X42970Y49847D01*
Y47476D02*
X43224Y47984D01*
X42716D02*
X43224D01*
X42716D02*
X42970Y47476D01*
Y47307D02*
X43393Y48153D01*
X42547D02*
X43393D01*
X42547D02*
X42970Y47307D01*
X45510Y50016D02*
X45764Y50524D01*
X45256D02*
X45764D01*
X45256D02*
X45510Y50016D01*
Y49847D02*
X45933Y50693D01*
X45087D02*
X45933D01*
X45087D02*
X45510Y49847D01*
Y47476D02*
X45764Y47984D01*
X45256D02*
X45764D01*
X45256D02*
X45510Y47476D01*
Y47307D02*
X45933Y48153D01*
X45087D02*
X45933D01*
X45087D02*
X45510Y47307D01*
X48050Y50016D02*
X48304Y50524D01*
X47796D02*
X48304D01*
X47796D02*
X48050Y50016D01*
Y49847D02*
X48473Y50693D01*
X47627D02*
X48473D01*
X47627D02*
X48050Y49847D01*
Y47476D02*
X48304Y47984D01*
X47796D02*
X48304D01*
X47796D02*
X48050Y47476D01*
Y47307D02*
X48473Y48153D01*
X47627D02*
X48473D01*
X47627D02*
X48050Y47307D01*
X50590Y50016D02*
X50844Y50524D01*
X50336D02*
X50844D01*
X50336D02*
X50590Y50016D01*
Y49847D02*
X51013Y50693D01*
X50167D02*
X51013D01*
X50167D02*
X50590Y49847D01*
Y47476D02*
X50844Y47984D01*
X50336D02*
X50844D01*
X50336D02*
X50590Y47476D01*
Y47307D02*
X51013Y48153D01*
X50167D02*
X51013D01*
X50167D02*
X50590Y47307D01*
X53130Y50016D02*
X53384Y50524D01*
X52876D02*
X53384D01*
X52876D02*
X53130Y50016D01*
Y49847D02*
X53553Y50693D01*
X52707D02*
X53553D01*
X52707D02*
X53130Y49847D01*
Y47476D02*
X53384Y47984D01*
X52876D02*
X53384D01*
X52876D02*
X53130Y47476D01*
Y47307D02*
X53553Y48153D01*
X52707D02*
X53553D01*
X52707D02*
X53130Y47307D01*
X74577Y-3923D02*
X75000Y-3712D01*
X75423Y-3923D01*
X75212Y-3500D02*
X75423Y-3923D01*
X75212Y-3500D02*
X75423Y-3077D01*
X75000Y-3288D02*
X75423Y-3077D01*
X74577D02*
X75000Y-3288D01*
X74577Y-3077D02*
X74788Y-3500D01*
X74577Y-3923D02*
X74788Y-3500D01*
X75077Y-3923D02*
X75500Y-3712D01*
X75923Y-3923D01*
X75712Y-3500D02*
X75923Y-3923D01*
X75712Y-3500D02*
X75923Y-3077D01*
X75500Y-3288D02*
X75923Y-3077D01*
X75077D02*
X75500Y-3288D01*
X75077Y-3077D02*
X75288Y-3500D01*
X75077Y-3923D02*
X75288Y-3500D01*
X75577Y-3923D02*
X76000Y-3712D01*
X76423Y-3923D01*
X76212Y-3500D02*
X76423Y-3923D01*
X76212Y-3500D02*
X76423Y-3077D01*
X76000Y-3288D02*
X76423Y-3077D01*
X75577D02*
X76000Y-3288D01*
X75577Y-3077D02*
X75788Y-3500D01*
X75577Y-3923D02*
X75788Y-3500D01*
X76077Y-3923D02*
X76500Y-3712D01*
X76923Y-3923D01*
X76712Y-3500D02*
X76923Y-3923D01*
X76712Y-3500D02*
X76923Y-3077D01*
X76500Y-3288D02*
X76923Y-3077D01*
X76077D02*
X76500Y-3288D01*
X76077Y-3077D02*
X76288Y-3500D01*
X76077Y-3923D02*
X76288Y-3500D01*
X76577Y-3923D02*
X77000Y-3712D01*
X77423Y-3923D01*
X77212Y-3500D02*
X77423Y-3923D01*
X77212Y-3500D02*
X77423Y-3077D01*
X77000Y-3288D02*
X77423Y-3077D01*
X76577D02*
X77000Y-3288D01*
X76577Y-3077D02*
X76788Y-3500D01*
X76577Y-3923D02*
X76788Y-3500D01*
X77077Y-3923D02*
X77500Y-3712D01*
X77923Y-3923D01*
X77712Y-3500D02*
X77923Y-3923D01*
X77712Y-3500D02*
X77923Y-3077D01*
X77500Y-3288D02*
X77923Y-3077D01*
X77077D02*
X77500Y-3288D01*
X77077Y-3077D02*
X77288Y-3500D01*
X77077Y-3923D02*
X77288Y-3500D01*
X78077Y-3923D02*
X78500Y-3712D01*
X78923Y-3923D01*
X78712Y-3500D02*
X78923Y-3923D01*
X78712Y-3500D02*
X78923Y-3077D01*
X78500Y-3288D02*
X78923Y-3077D01*
X78077D02*
X78500Y-3288D01*
X78077Y-3077D02*
X78288Y-3500D01*
X78077Y-3923D02*
X78288Y-3500D01*
X77577Y-3923D02*
X78000Y-3712D01*
X78423Y-3923D01*
X78212Y-3500D02*
X78423Y-3923D01*
X78212Y-3500D02*
X78423Y-3077D01*
X78000Y-3288D02*
X78423Y-3077D01*
X77577D02*
X78000Y-3288D01*
X77577Y-3077D02*
X77788Y-3500D01*
X77577Y-3923D02*
X77788Y-3500D01*
X77746Y-7127D02*
X77873D01*
X77746D02*
Y-6873D01*
X77873D01*
Y-6746D01*
X78127D01*
Y-6873D02*
Y-6746D01*
Y-6873D02*
X78254D01*
Y-7127D02*
Y-6873D01*
X78127Y-7127D02*
X78254D01*
X78127Y-7254D02*
Y-7127D01*
X77873Y-7254D02*
X78127D01*
X77873D02*
Y-7127D01*
X77577Y-7212D02*
X77788D01*
X77577D02*
Y-6788D01*
X77788D01*
Y-6577D01*
X78212D01*
Y-6788D02*
Y-6577D01*
Y-6788D02*
X78423D01*
Y-7212D02*
Y-6788D01*
X78212Y-7212D02*
X78423D01*
X78212Y-7423D02*
Y-7212D01*
X77788Y-7423D02*
X78212D01*
X77788D02*
Y-7212D01*
X-254Y-7127D02*
X-127D01*
X-254D02*
Y-6873D01*
X-127D01*
Y-6746D01*
X127D01*
Y-6873D02*
Y-6746D01*
Y-6873D02*
X254D01*
Y-7127D02*
Y-6873D01*
X127Y-7127D02*
X254D01*
X127Y-7254D02*
Y-7127D01*
X-127Y-7254D02*
X127D01*
X-127D02*
Y-7127D01*
X-423Y-7212D02*
X-212D01*
X-423D02*
Y-6788D01*
X-212D01*
Y-6577D01*
X212D01*
Y-6788D02*
Y-6577D01*
Y-6788D02*
X423D01*
Y-7212D02*
Y-6788D01*
X212Y-7212D02*
X423D01*
X212Y-7423D02*
Y-7212D01*
X-212Y-7423D02*
X212D01*
X-212D02*
Y-7212D01*
X77746Y56373D02*
X77873D01*
X77746D02*
Y56627D01*
X77873D01*
Y56754D01*
X78127D01*
Y56627D02*
Y56754D01*
Y56627D02*
X78254D01*
Y56373D02*
Y56627D01*
X78127Y56373D02*
X78254D01*
X78127Y56246D02*
Y56373D01*
X77873Y56246D02*
X78127D01*
X77873D02*
Y56373D01*
X77577Y56288D02*
X77788D01*
X77577D02*
Y56712D01*
X77788D01*
Y56923D01*
X78212D01*
Y56712D02*
Y56923D01*
Y56712D02*
X78423D01*
Y56288D02*
Y56712D01*
X78212Y56288D02*
X78423D01*
X78212Y56077D02*
Y56288D01*
X77788Y56077D02*
X78212D01*
X77788D02*
Y56288D01*
X77577Y52577D02*
X78000Y52788D01*
X78423Y52577D01*
X78212Y53000D02*
X78423Y52577D01*
X78212Y53000D02*
X78423Y53423D01*
X78000Y53212D02*
X78423Y53423D01*
X77577D02*
X78000Y53212D01*
X77577Y53423D02*
X77788Y53000D01*
X77577Y52577D02*
X77788Y53000D01*
X78077Y52577D02*
X78500Y52788D01*
X78923Y52577D01*
X78712Y53000D02*
X78923Y52577D01*
X78712Y53000D02*
X78923Y53423D01*
X78500Y53212D02*
X78923Y53423D01*
X78077D02*
X78500Y53212D01*
X78077Y53423D02*
X78288Y53000D01*
X78077Y52577D02*
X78288Y53000D01*
X77077Y52577D02*
X77500Y52788D01*
X77923Y52577D01*
X77712Y53000D02*
X77923Y52577D01*
X77712Y53000D02*
X77923Y53423D01*
X77500Y53212D02*
X77923Y53423D01*
X77077D02*
X77500Y53212D01*
X77077Y53423D02*
X77288Y53000D01*
X77077Y52577D02*
X77288Y53000D01*
X76577Y52577D02*
X77000Y52788D01*
X77423Y52577D01*
X77212Y53000D02*
X77423Y52577D01*
X77212Y53000D02*
X77423Y53423D01*
X77000Y53212D02*
X77423Y53423D01*
X76577D02*
X77000Y53212D01*
X76577Y53423D02*
X76788Y53000D01*
X76577Y52577D02*
X76788Y53000D01*
X76077Y52577D02*
X76500Y52788D01*
X76923Y52577D01*
X76712Y53000D02*
X76923Y52577D01*
X76712Y53000D02*
X76923Y53423D01*
X76500Y53212D02*
X76923Y53423D01*
X76077D02*
X76500Y53212D01*
X76077Y53423D02*
X76288Y53000D01*
X76077Y52577D02*
X76288Y53000D01*
X75577Y52577D02*
X76000Y52788D01*
X76423Y52577D01*
X76212Y53000D02*
X76423Y52577D01*
X76212Y53000D02*
X76423Y53423D01*
X76000Y53212D02*
X76423Y53423D01*
X75577D02*
X76000Y53212D01*
X75577Y53423D02*
X75788Y53000D01*
X75577Y52577D02*
X75788Y53000D01*
X75077Y52577D02*
X75500Y52788D01*
X75923Y52577D01*
X75712Y53000D02*
X75923Y52577D01*
X75712Y53000D02*
X75923Y53423D01*
X75500Y53212D02*
X75923Y53423D01*
X75077D02*
X75500Y53212D01*
X75077Y53423D02*
X75288Y53000D01*
X75077Y52577D02*
X75288Y53000D01*
X74577Y52577D02*
X75000Y52788D01*
X75423Y52577D01*
X75212Y53000D02*
X75423Y52577D01*
X75212Y53000D02*
X75423Y53423D01*
X75000Y53212D02*
X75423Y53423D01*
X74577D02*
X75000Y53212D01*
X74577Y53423D02*
X74788Y53000D01*
X74577Y52577D02*
X74788Y53000D01*
X2577Y52577D02*
X3000Y52788D01*
X3423Y52577D01*
X3212Y53000D02*
X3423Y52577D01*
X3212Y53000D02*
X3423Y53423D01*
X3000Y53212D02*
X3423Y53423D01*
X2577D02*
X3000Y53212D01*
X2577Y53423D02*
X2788Y53000D01*
X2577Y52577D02*
X2788Y53000D01*
X2077Y52577D02*
X2500Y52788D01*
X2923Y52577D01*
X2712Y53000D02*
X2923Y52577D01*
X2712Y53000D02*
X2923Y53423D01*
X2500Y53212D02*
X2923Y53423D01*
X2077D02*
X2500Y53212D01*
X2077Y53423D02*
X2288Y53000D01*
X2077Y52577D02*
X2288Y53000D01*
X1577Y52577D02*
X2000Y52788D01*
X2423Y52577D01*
X2212Y53000D02*
X2423Y52577D01*
X2212Y53000D02*
X2423Y53423D01*
X2000Y53212D02*
X2423Y53423D01*
X1577D02*
X2000Y53212D01*
X1577Y53423D02*
X1788Y53000D01*
X1577Y52577D02*
X1788Y53000D01*
X1077Y52577D02*
X1500Y52788D01*
X1923Y52577D01*
X1712Y53000D02*
X1923Y52577D01*
X1712Y53000D02*
X1923Y53423D01*
X1500Y53212D02*
X1923Y53423D01*
X1077D02*
X1500Y53212D01*
X1077Y53423D02*
X1288Y53000D01*
X1077Y52577D02*
X1288Y53000D01*
X577Y52577D02*
X1000Y52788D01*
X1423Y52577D01*
X1212Y53000D02*
X1423Y52577D01*
X1212Y53000D02*
X1423Y53423D01*
X1000Y53212D02*
X1423Y53423D01*
X577D02*
X1000Y53212D01*
X577Y53423D02*
X788Y53000D01*
X577Y52577D02*
X788Y53000D01*
X77Y52577D02*
X500Y52788D01*
X923Y52577D01*
X712Y53000D02*
X923Y52577D01*
X712Y53000D02*
X923Y53423D01*
X500Y53212D02*
X923Y53423D01*
X77D02*
X500Y53212D01*
X77Y53423D02*
X288Y53000D01*
X77Y52577D02*
X288Y53000D01*
X-923Y52577D02*
X-500Y52788D01*
X-77Y52577D01*
X-288Y53000D02*
X-77Y52577D01*
X-288Y53000D02*
X-77Y53423D01*
X-500Y53212D02*
X-77Y53423D01*
X-923D02*
X-500Y53212D01*
X-923Y53423D02*
X-712Y53000D01*
X-923Y52577D02*
X-712Y53000D01*
X-423Y52577D02*
X0Y52788D01*
X423Y52577D01*
X212Y53000D02*
X423Y52577D01*
X212Y53000D02*
X423Y53423D01*
X0Y53212D02*
X423Y53423D01*
X-423D02*
X0Y53212D01*
X-423Y53423D02*
X-212Y53000D01*
X-423Y52577D02*
X-212Y53000D01*
X-254Y56373D02*
X-127D01*
X-254D02*
Y56627D01*
X-127D01*
Y56754D01*
X127D01*
Y56627D02*
Y56754D01*
Y56627D02*
X254D01*
Y56373D02*
Y56627D01*
X127Y56373D02*
X254D01*
X127Y56246D02*
Y56373D01*
X-127Y56246D02*
X127D01*
X-127D02*
Y56373D01*
X-423Y56288D02*
X-212D01*
X-423D02*
Y56712D01*
X-212D01*
Y56923D01*
X212D01*
Y56712D02*
Y56923D01*
Y56712D02*
X423D01*
Y56288D02*
Y56712D01*
X212Y56288D02*
X423D01*
X212Y56077D02*
Y56288D01*
X-212Y56077D02*
X212D01*
X-212D02*
Y56288D01*
X79030Y19827D02*
X79453Y20673D01*
X78607D02*
X79453D01*
X78607D02*
X79030Y19827D01*
X68730D02*
X69153Y20673D01*
X68307D02*
X69153D01*
X68307D02*
X68730Y19827D01*
X79030Y26327D02*
X79453Y27173D01*
X78607D02*
X79453D01*
X78607D02*
X79030Y26327D01*
X68730D02*
X69153Y27173D01*
X68307D02*
X69153D01*
X68307D02*
X68730Y26327D01*
X64827Y44908D02*
X65038D01*
X64827D02*
Y45332D01*
X65038D01*
Y45543D01*
X65462D01*
Y45332D02*
Y45543D01*
Y45332D02*
X65673D01*
Y44908D02*
Y45332D01*
X65462Y44908D02*
X65673D01*
X65462Y44697D02*
Y44908D01*
X65038Y44697D02*
X65462D01*
X65038D02*
Y44908D01*
X64827Y-2132D02*
X65038D01*
X64827D02*
Y-1708D01*
X65038D01*
Y-1497D01*
X65462D01*
Y-1708D02*
Y-1497D01*
Y-1708D02*
X65673D01*
Y-2132D02*
Y-1708D01*
X65462Y-2132D02*
X65673D01*
X65462Y-2343D02*
Y-2132D01*
X65038Y-2343D02*
X65462D01*
X65038D02*
Y-2132D01*
X-2923Y44908D02*
X-2712D01*
X-2923D02*
Y45332D01*
X-2712D01*
Y45543D01*
X-2288D01*
Y45332D02*
Y45543D01*
Y45332D02*
X-2077D01*
Y44908D02*
Y45332D01*
X-2288Y44908D02*
X-2077D01*
X-2288Y44697D02*
Y44908D01*
X-2712Y44697D02*
X-2288D01*
X-2712D02*
Y44908D01*
X-2923Y-2132D02*
X-2712D01*
X-2923D02*
Y-1708D01*
X-2712D01*
Y-1497D01*
X-2288D01*
Y-1708D02*
Y-1497D01*
Y-1708D02*
X-2077D01*
Y-2132D02*
Y-1708D01*
X-2288Y-2132D02*
X-2077D01*
X-2288Y-2343D02*
Y-2132D01*
X-2712Y-2343D02*
X-2288D01*
X-2712D02*
Y-2132D01*
X71503Y40123D02*
X71630Y39996D01*
X71376Y40123D02*
X71503D01*
X71376D02*
X71503Y40250D01*
X71376Y40377D02*
X71503Y40250D01*
X71376Y40377D02*
X71503D01*
X71630Y40504D01*
X71757Y40377D01*
X71884D01*
X71757Y40250D02*
X71884Y40377D01*
X71757Y40250D02*
X71884Y40123D01*
X71757D02*
X71884D01*
X71630Y39996D02*
X71757Y40123D01*
X71418Y40038D02*
X71630Y39827D01*
X71207Y40038D02*
X71418D01*
X71207D02*
X71418Y40250D01*
X71207Y40462D02*
X71418Y40250D01*
X71207Y40462D02*
X71418D01*
X71630Y40673D01*
X71842Y40462D01*
X72053D01*
X71842Y40250D02*
X72053Y40462D01*
X71842Y40250D02*
X72053Y40038D01*
X71842D02*
X72053D01*
X71630Y39827D02*
X71842Y40038D01*
X71503Y46623D02*
X71630Y46496D01*
X71376Y46623D02*
X71503D01*
X71376D02*
X71503Y46750D01*
X71376Y46877D02*
X71503Y46750D01*
X71376Y46877D02*
X71503D01*
X71630Y47004D01*
X71757Y46877D01*
X71884D01*
X71757Y46750D02*
X71884Y46877D01*
X71757Y46750D02*
X71884Y46623D01*
X71757D02*
X71884D01*
X71630Y46496D02*
X71757Y46623D01*
X71418Y46538D02*
X71630Y46327D01*
X71207Y46538D02*
X71418D01*
X71207D02*
X71418Y46750D01*
X71207Y46962D02*
X71418Y46750D01*
X71207Y46962D02*
X71418D01*
X71630Y47173D01*
X71842Y46962D01*
X72053D01*
X71842Y46750D02*
X72053Y46962D01*
X71842Y46750D02*
X72053Y46538D01*
X71842D02*
X72053D01*
X71630Y46327D02*
X71842Y46538D01*
X76003Y40123D02*
X76130Y39996D01*
X75876Y40123D02*
X76003D01*
X75876D02*
X76003Y40250D01*
X75876Y40377D02*
X76003Y40250D01*
X75876Y40377D02*
X76003D01*
X76130Y40504D01*
X76257Y40377D01*
X76384D01*
X76257Y40250D02*
X76384Y40377D01*
X76257Y40250D02*
X76384Y40123D01*
X76257D02*
X76384D01*
X76130Y39996D02*
X76257Y40123D01*
X75918Y40038D02*
X76130Y39827D01*
X75707Y40038D02*
X75918D01*
X75707D02*
X75918Y40250D01*
X75707Y40462D02*
X75918Y40250D01*
X75707Y40462D02*
X75918D01*
X76130Y40673D01*
X76342Y40462D01*
X76553D01*
X76342Y40250D02*
X76553Y40462D01*
X76342Y40250D02*
X76553Y40038D01*
X76342D02*
X76553D01*
X76130Y39827D02*
X76342Y40038D01*
X76003Y46623D02*
X76130Y46496D01*
X75876Y46623D02*
X76003D01*
X75876D02*
X76003Y46750D01*
X75876Y46877D02*
X76003Y46750D01*
X75876Y46877D02*
X76003D01*
X76130Y47004D01*
X76257Y46877D01*
X76384D01*
X76257Y46750D02*
X76384Y46877D01*
X76257Y46750D02*
X76384Y46623D01*
X76257D02*
X76384D01*
X76130Y46496D02*
X76257Y46623D01*
X75918Y46538D02*
X76130Y46327D01*
X75707Y46538D02*
X75918D01*
X75707D02*
X75918Y46750D01*
X75707Y46962D02*
X75918Y46750D01*
X75707Y46962D02*
X75918D01*
X76130Y47173D01*
X76342Y46962D01*
X76553D01*
X76342Y46750D02*
X76553Y46962D01*
X76342Y46750D02*
X76553Y46538D01*
X76342D02*
X76553D01*
X76130Y46327D02*
X76342Y46538D01*
X67248Y30123D02*
X67375Y29996D01*
X67121Y30123D02*
X67248D01*
X67121D02*
X67248Y30250D01*
X67121Y30377D02*
X67248Y30250D01*
X67121Y30377D02*
X67248D01*
X67375Y30504D01*
X67502Y30377D01*
X67629D01*
X67502Y30250D02*
X67629Y30377D01*
X67502Y30250D02*
X67629Y30123D01*
X67502D02*
X67629D01*
X67375Y29996D02*
X67502Y30123D01*
X67163Y30038D02*
X67375Y29827D01*
X66952Y30038D02*
X67163D01*
X66952D02*
X67163Y30250D01*
X66952Y30462D02*
X67163Y30250D01*
X66952Y30462D02*
X67163D01*
X67375Y30673D01*
X67587Y30462D01*
X67798D01*
X67587Y30250D02*
X67798Y30462D01*
X67587Y30250D02*
X67798Y30038D01*
X67587D02*
X67798D01*
X67375Y29827D02*
X67587Y30038D01*
X67248Y36623D02*
X67375Y36496D01*
X67121Y36623D02*
X67248D01*
X67121D02*
X67248Y36750D01*
X67121Y36877D02*
X67248Y36750D01*
X67121Y36877D02*
X67248D01*
X67375Y37004D01*
X67502Y36877D01*
X67629D01*
X67502Y36750D02*
X67629Y36877D01*
X67502Y36750D02*
X67629Y36623D01*
X67502D02*
X67629D01*
X67375Y36496D02*
X67502Y36623D01*
X67163Y36538D02*
X67375Y36327D01*
X66952Y36538D02*
X67163D01*
X66952D02*
X67163Y36750D01*
X66952Y36962D02*
X67163Y36750D01*
X66952Y36962D02*
X67163D01*
X67375Y37173D01*
X67587Y36962D01*
X67798D01*
X67587Y36750D02*
X67798Y36962D01*
X67587Y36750D02*
X67798Y36538D01*
X67587D02*
X67798D01*
X67375Y36327D02*
X67587Y36538D01*
X71748Y30123D02*
X71875Y29996D01*
X71621Y30123D02*
X71748D01*
X71621D02*
X71748Y30250D01*
X71621Y30377D02*
X71748Y30250D01*
X71621Y30377D02*
X71748D01*
X71875Y30504D01*
X72002Y30377D01*
X72129D01*
X72002Y30250D02*
X72129Y30377D01*
X72002Y30250D02*
X72129Y30123D01*
X72002D02*
X72129D01*
X71875Y29996D02*
X72002Y30123D01*
X71663Y30038D02*
X71875Y29827D01*
X71452Y30038D02*
X71663D01*
X71452D02*
X71663Y30250D01*
X71452Y30462D02*
X71663Y30250D01*
X71452Y30462D02*
X71663D01*
X71875Y30673D01*
X72087Y30462D01*
X72298D01*
X72087Y30250D02*
X72298Y30462D01*
X72087Y30250D02*
X72298Y30038D01*
X72087D02*
X72298D01*
X71875Y29827D02*
X72087Y30038D01*
X71748Y36623D02*
X71875Y36496D01*
X71621Y36623D02*
X71748D01*
X71621D02*
X71748Y36750D01*
X71621Y36877D02*
X71748Y36750D01*
X71621Y36877D02*
X71748D01*
X71875Y37004D01*
X72002Y36877D01*
X72129D01*
X72002Y36750D02*
X72129Y36877D01*
X72002Y36750D02*
X72129Y36623D01*
X72002D02*
X72129D01*
X71875Y36496D02*
X72002Y36623D01*
X71663Y36538D02*
X71875Y36327D01*
X71452Y36538D02*
X71663D01*
X71452D02*
X71663Y36750D01*
X71452Y36962D02*
X71663Y36750D01*
X71452Y36962D02*
X71663D01*
X71875Y37173D01*
X72087Y36962D01*
X72298D01*
X72087Y36750D02*
X72298Y36962D01*
X72087Y36750D02*
X72298Y36538D01*
X72087D02*
X72298D01*
X71875Y36327D02*
X72087Y36538D01*
X71503Y20123D02*
X71630Y19996D01*
X71376Y20123D02*
X71503D01*
X71376D02*
X71503Y20250D01*
X71376Y20377D02*
X71503Y20250D01*
X71376Y20377D02*
X71503D01*
X71630Y20504D01*
X71757Y20377D01*
X71884D01*
X71757Y20250D02*
X71884Y20377D01*
X71757Y20250D02*
X71884Y20123D01*
X71757D02*
X71884D01*
X71630Y19996D02*
X71757Y20123D01*
X71418Y20038D02*
X71630Y19827D01*
X71207Y20038D02*
X71418D01*
X71207D02*
X71418Y20250D01*
X71207Y20462D02*
X71418Y20250D01*
X71207Y20462D02*
X71418D01*
X71630Y20673D01*
X71842Y20462D01*
X72053D01*
X71842Y20250D02*
X72053Y20462D01*
X71842Y20250D02*
X72053Y20038D01*
X71842D02*
X72053D01*
X71630Y19827D02*
X71842Y20038D01*
X71503Y26623D02*
X71630Y26496D01*
X71376Y26623D02*
X71503D01*
X71376D02*
X71503Y26750D01*
X71376Y26877D02*
X71503Y26750D01*
X71376Y26877D02*
X71503D01*
X71630Y27004D01*
X71757Y26877D01*
X71884D01*
X71757Y26750D02*
X71884Y26877D01*
X71757Y26750D02*
X71884Y26623D01*
X71757D02*
X71884D01*
X71630Y26496D02*
X71757Y26623D01*
X71418Y26538D02*
X71630Y26327D01*
X71207Y26538D02*
X71418D01*
X71207D02*
X71418Y26750D01*
X71207Y26962D02*
X71418Y26750D01*
X71207Y26962D02*
X71418D01*
X71630Y27173D01*
X71842Y26962D01*
X72053D01*
X71842Y26750D02*
X72053Y26962D01*
X71842Y26750D02*
X72053Y26538D01*
X71842D02*
X72053D01*
X71630Y26327D02*
X71842Y26538D01*
X76003Y20123D02*
X76130Y19996D01*
X75876Y20123D02*
X76003D01*
X75876D02*
X76003Y20250D01*
X75876Y20377D02*
X76003Y20250D01*
X75876Y20377D02*
X76003D01*
X76130Y20504D01*
X76257Y20377D01*
X76384D01*
X76257Y20250D02*
X76384Y20377D01*
X76257Y20250D02*
X76384Y20123D01*
X76257D02*
X76384D01*
X76130Y19996D02*
X76257Y20123D01*
X75918Y20038D02*
X76130Y19827D01*
X75707Y20038D02*
X75918D01*
X75707D02*
X75918Y20250D01*
X75707Y20462D02*
X75918Y20250D01*
X75707Y20462D02*
X75918D01*
X76130Y20673D01*
X76342Y20462D01*
X76553D01*
X76342Y20250D02*
X76553Y20462D01*
X76342Y20250D02*
X76553Y20038D01*
X76342D02*
X76553D01*
X76130Y19827D02*
X76342Y20038D01*
X76003Y26623D02*
X76130Y26496D01*
X75876Y26623D02*
X76003D01*
X75876D02*
X76003Y26750D01*
X75876Y26877D02*
X76003Y26750D01*
X75876Y26877D02*
X76003D01*
X76130Y27004D01*
X76257Y26877D01*
X76384D01*
X76257Y26750D02*
X76384Y26877D01*
X76257Y26750D02*
X76384Y26623D01*
X76257D02*
X76384D01*
X76130Y26496D02*
X76257Y26623D01*
X75918Y26538D02*
X76130Y26327D01*
X75707Y26538D02*
X75918D01*
X75707D02*
X75918Y26750D01*
X75707Y26962D02*
X75918Y26750D01*
X75707Y26962D02*
X75918D01*
X76130Y27173D01*
X76342Y26962D01*
X76553D01*
X76342Y26750D02*
X76553Y26962D01*
X76342Y26750D02*
X76553Y26538D01*
X76342D02*
X76553D01*
X76130Y26327D02*
X76342Y26538D01*
X75773Y30123D02*
X75900Y29996D01*
X75646Y30123D02*
X75773D01*
X75646D02*
X75773Y30250D01*
X75646Y30377D02*
X75773Y30250D01*
X75646Y30377D02*
X75773D01*
X75900Y30504D01*
X76027Y30377D01*
X76154D01*
X76027Y30250D02*
X76154Y30377D01*
X76027Y30250D02*
X76154Y30123D01*
X76027D02*
X76154D01*
X75900Y29996D02*
X76027Y30123D01*
X75688Y30038D02*
X75900Y29827D01*
X75477Y30038D02*
X75688D01*
X75477D02*
X75688Y30250D01*
X75477Y30462D02*
X75688Y30250D01*
X75477Y30462D02*
X75688D01*
X75900Y30673D01*
X76112Y30462D01*
X76323D01*
X76112Y30250D02*
X76323Y30462D01*
X76112Y30250D02*
X76323Y30038D01*
X76112D02*
X76323D01*
X75900Y29827D02*
X76112Y30038D01*
X75773Y36623D02*
X75900Y36496D01*
X75646Y36623D02*
X75773D01*
X75646D02*
X75773Y36750D01*
X75646Y36877D02*
X75773Y36750D01*
X75646Y36877D02*
X75773D01*
X75900Y37004D01*
X76027Y36877D01*
X76154D01*
X76027Y36750D02*
X76154Y36877D01*
X76027Y36750D02*
X76154Y36623D01*
X76027D02*
X76154D01*
X75900Y36496D02*
X76027Y36623D01*
X75688Y36538D02*
X75900Y36327D01*
X75477Y36538D02*
X75688D01*
X75477D02*
X75688Y36750D01*
X75477Y36962D02*
X75688Y36750D01*
X75477Y36962D02*
X75688D01*
X75900Y37173D01*
X76112Y36962D01*
X76323D01*
X76112Y36750D02*
X76323Y36962D01*
X76112Y36750D02*
X76323Y36538D01*
X76112D02*
X76323D01*
X75900Y36327D02*
X76112Y36538D01*
X80273Y30123D02*
X80400Y29996D01*
X80146Y30123D02*
X80273D01*
X80146D02*
X80273Y30250D01*
X80146Y30377D02*
X80273Y30250D01*
X80146Y30377D02*
X80273D01*
X80400Y30504D01*
X80527Y30377D01*
X80654D01*
X80527Y30250D02*
X80654Y30377D01*
X80527Y30250D02*
X80654Y30123D01*
X80527D02*
X80654D01*
X80400Y29996D02*
X80527Y30123D01*
X80188Y30038D02*
X80400Y29827D01*
X79977Y30038D02*
X80188D01*
X79977D02*
X80188Y30250D01*
X79977Y30462D02*
X80188Y30250D01*
X79977Y30462D02*
X80188D01*
X80400Y30673D01*
X80612Y30462D01*
X80823D01*
X80612Y30250D02*
X80823Y30462D01*
X80612Y30250D02*
X80823Y30038D01*
X80612D02*
X80823D01*
X80400Y29827D02*
X80612Y30038D01*
X80273Y36623D02*
X80400Y36496D01*
X80146Y36623D02*
X80273D01*
X80146D02*
X80273Y36750D01*
X80146Y36877D02*
X80273Y36750D01*
X80146Y36877D02*
X80273D01*
X80400Y37004D01*
X80527Y36877D01*
X80654D01*
X80527Y36750D02*
X80654Y36877D01*
X80527Y36750D02*
X80654Y36623D01*
X80527D02*
X80654D01*
X80400Y36496D02*
X80527Y36623D01*
X80188Y36538D02*
X80400Y36327D01*
X79977Y36538D02*
X80188D01*
X79977D02*
X80188Y36750D01*
X79977Y36962D02*
X80188Y36750D01*
X79977Y36962D02*
X80188D01*
X80400Y37173D01*
X80612Y36962D01*
X80823D01*
X80612Y36750D02*
X80823Y36962D01*
X80612Y36750D02*
X80823Y36538D01*
X80612D02*
X80823D01*
X80400Y36327D02*
X80612Y36538D01*
X71503Y10123D02*
X71630Y9996D01*
X71376Y10123D02*
X71503D01*
X71376D02*
X71503Y10250D01*
X71376Y10377D02*
X71503Y10250D01*
X71376Y10377D02*
X71503D01*
X71630Y10504D01*
X71757Y10377D01*
X71884D01*
X71757Y10250D02*
X71884Y10377D01*
X71757Y10250D02*
X71884Y10123D01*
X71757D02*
X71884D01*
X71630Y9996D02*
X71757Y10123D01*
X71418Y10038D02*
X71630Y9827D01*
X71207Y10038D02*
X71418D01*
X71207D02*
X71418Y10250D01*
X71207Y10462D02*
X71418Y10250D01*
X71207Y10462D02*
X71418D01*
X71630Y10673D01*
X71842Y10462D01*
X72053D01*
X71842Y10250D02*
X72053Y10462D01*
X71842Y10250D02*
X72053Y10038D01*
X71842D02*
X72053D01*
X71630Y9827D02*
X71842Y10038D01*
X71503Y16623D02*
X71630Y16496D01*
X71376Y16623D02*
X71503D01*
X71376D02*
X71503Y16750D01*
X71376Y16877D02*
X71503Y16750D01*
X71376Y16877D02*
X71503D01*
X71630Y17004D01*
X71757Y16877D01*
X71884D01*
X71757Y16750D02*
X71884Y16877D01*
X71757Y16750D02*
X71884Y16623D01*
X71757D02*
X71884D01*
X71630Y16496D02*
X71757Y16623D01*
X71418Y16538D02*
X71630Y16327D01*
X71207Y16538D02*
X71418D01*
X71207D02*
X71418Y16750D01*
X71207Y16962D02*
X71418Y16750D01*
X71207Y16962D02*
X71418D01*
X71630Y17173D01*
X71842Y16962D01*
X72053D01*
X71842Y16750D02*
X72053Y16962D01*
X71842Y16750D02*
X72053Y16538D01*
X71842D02*
X72053D01*
X71630Y16327D02*
X71842Y16538D01*
X76003Y10123D02*
X76130Y9996D01*
X75876Y10123D02*
X76003D01*
X75876D02*
X76003Y10250D01*
X75876Y10377D02*
X76003Y10250D01*
X75876Y10377D02*
X76003D01*
X76130Y10504D01*
X76257Y10377D01*
X76384D01*
X76257Y10250D02*
X76384Y10377D01*
X76257Y10250D02*
X76384Y10123D01*
X76257D02*
X76384D01*
X76130Y9996D02*
X76257Y10123D01*
X75918Y10038D02*
X76130Y9827D01*
X75707Y10038D02*
X75918D01*
X75707D02*
X75918Y10250D01*
X75707Y10462D02*
X75918Y10250D01*
X75707Y10462D02*
X75918D01*
X76130Y10673D01*
X76342Y10462D01*
X76553D01*
X76342Y10250D02*
X76553Y10462D01*
X76342Y10250D02*
X76553Y10038D01*
X76342D02*
X76553D01*
X76130Y9827D02*
X76342Y10038D01*
X76003Y16623D02*
X76130Y16496D01*
X75876Y16623D02*
X76003D01*
X75876D02*
X76003Y16750D01*
X75876Y16877D02*
X76003Y16750D01*
X75876Y16877D02*
X76003D01*
X76130Y17004D01*
X76257Y16877D01*
X76384D01*
X76257Y16750D02*
X76384Y16877D01*
X76257Y16750D02*
X76384Y16623D01*
X76257D02*
X76384D01*
X76130Y16496D02*
X76257Y16623D01*
X75918Y16538D02*
X76130Y16327D01*
X75707Y16538D02*
X75918D01*
X75707D02*
X75918Y16750D01*
X75707Y16962D02*
X75918Y16750D01*
X75707Y16962D02*
X75918D01*
X76130Y17173D01*
X76342Y16962D01*
X76553D01*
X76342Y16750D02*
X76553Y16962D01*
X76342Y16750D02*
X76553Y16538D01*
X76342D02*
X76553D01*
X76130Y16327D02*
X76342Y16538D01*
X-254Y-127D02*
X-127D01*
X-254D02*
Y127D01*
X-127D01*
Y254D01*
X127D01*
Y127D02*
Y254D01*
Y127D02*
X254D01*
Y-127D02*
Y127D01*
X127Y-127D02*
X254D01*
X127Y-254D02*
Y-127D01*
X-127Y-254D02*
X127D01*
X-127D02*
Y-127D01*
X-423Y-212D02*
X-212D01*
X-423D02*
Y212D01*
X-212D01*
Y423D01*
X212D01*
Y212D02*
Y423D01*
Y212D02*
X423D01*
Y-212D02*
Y212D01*
X212Y-212D02*
X423D01*
X212Y-423D02*
Y-212D01*
X-212Y-423D02*
X212D01*
X-212D02*
Y-212D01*
X-254Y48873D02*
X-127D01*
X-254D02*
Y49127D01*
X-127D01*
Y49254D01*
X127D01*
Y49127D02*
Y49254D01*
Y49127D02*
X254D01*
Y48873D02*
Y49127D01*
X127Y48873D02*
X254D01*
X127Y48746D02*
Y48873D01*
X-127Y48746D02*
X127D01*
X-127D02*
Y48873D01*
X-423Y48788D02*
X-212D01*
X-423D02*
Y49212D01*
X-212D01*
Y49423D01*
X212D01*
Y49212D02*
Y49423D01*
Y49212D02*
X423D01*
Y48788D02*
Y49212D01*
X212Y48788D02*
X423D01*
X212Y48577D02*
Y48788D01*
X-212Y48577D02*
X212D01*
X-212D02*
Y48788D01*
X57746Y48873D02*
X57873D01*
X57746D02*
Y49127D01*
X57873D01*
Y49254D01*
X58127D01*
Y49127D02*
Y49254D01*
Y49127D02*
X58254D01*
Y48873D02*
Y49127D01*
X58127Y48873D02*
X58254D01*
X58127Y48746D02*
Y48873D01*
X57873Y48746D02*
X58127D01*
X57873D02*
Y48873D01*
X57577Y48788D02*
X57788D01*
X57577D02*
Y49212D01*
X57788D01*
Y49423D01*
X58212D01*
Y49212D02*
Y49423D01*
Y49212D02*
X58423D01*
Y48788D02*
Y49212D01*
X58212Y48788D02*
X58423D01*
X58212Y48577D02*
Y48788D01*
X57788Y48577D02*
X58212D01*
X57788D02*
Y48788D01*
X57746Y-127D02*
X57873D01*
X57746D02*
Y127D01*
X57873D01*
Y254D01*
X58127D01*
Y127D02*
Y254D01*
Y127D02*
X58254D01*
Y-127D02*
Y127D01*
X58127Y-127D02*
X58254D01*
X58127Y-254D02*
Y-127D01*
X57873Y-254D02*
X58127D01*
X57873D02*
Y-127D01*
X57577Y-212D02*
X57788D01*
X57577D02*
Y212D01*
X57788D01*
Y423D01*
X58212D01*
Y212D02*
Y423D01*
Y212D02*
X58423D01*
Y-212D02*
Y212D01*
X58212Y-212D02*
X58423D01*
X58212Y-423D02*
Y-212D01*
X57788Y-423D02*
X58212D01*
X57788D02*
Y-212D01*
X-2823Y-3923D02*
X-2400Y-3712D01*
X-1977Y-3923D01*
X-2188Y-3500D02*
X-1977Y-3923D01*
X-2188Y-3500D02*
X-1977Y-3077D01*
X-2400Y-3288D02*
X-1977Y-3077D01*
X-2823D02*
X-2400Y-3288D01*
X-2823Y-3077D02*
X-2612Y-3500D01*
X-2823Y-3923D02*
X-2612Y-3500D01*
X-2323Y-3923D02*
X-1900Y-3712D01*
X-1477Y-3923D01*
X-1688Y-3500D02*
X-1477Y-3923D01*
X-1688Y-3500D02*
X-1477Y-3077D01*
X-1900Y-3288D02*
X-1477Y-3077D01*
X-2323D02*
X-1900Y-3288D01*
X-2323Y-3077D02*
X-2112Y-3500D01*
X-2323Y-3923D02*
X-2112Y-3500D01*
X-1823Y-3923D02*
X-1400Y-3712D01*
X-977Y-3923D01*
X-1188Y-3500D02*
X-977Y-3923D01*
X-1188Y-3500D02*
X-977Y-3077D01*
X-1400Y-3288D02*
X-977Y-3077D01*
X-1823D02*
X-1400Y-3288D01*
X-1823Y-3077D02*
X-1612Y-3500D01*
X-1823Y-3923D02*
X-1612Y-3500D01*
X-1323Y-3923D02*
X-900Y-3712D01*
X-477Y-3923D01*
X-688Y-3500D02*
X-477Y-3923D01*
X-688Y-3500D02*
X-477Y-3077D01*
X-900Y-3288D02*
X-477Y-3077D01*
X-1323D02*
X-900Y-3288D01*
X-1323Y-3077D02*
X-1112Y-3500D01*
X-1323Y-3923D02*
X-1112Y-3500D01*
X2677Y-3923D02*
X3100Y-3712D01*
X3523Y-3923D01*
X3312Y-3500D02*
X3523Y-3923D01*
X3312Y-3500D02*
X3523Y-3077D01*
X3100Y-3288D02*
X3523Y-3077D01*
X2677D02*
X3100Y-3288D01*
X2677Y-3077D02*
X2888Y-3500D01*
X2677Y-3923D02*
X2888Y-3500D01*
X2177Y-3923D02*
X2600Y-3712D01*
X3023Y-3923D01*
X2812Y-3500D02*
X3023Y-3923D01*
X2812Y-3500D02*
X3023Y-3077D01*
X2600Y-3288D02*
X3023Y-3077D01*
X2177D02*
X2600Y-3288D01*
X2177Y-3077D02*
X2388Y-3500D01*
X2177Y-3923D02*
X2388Y-3500D01*
X1677Y-3923D02*
X2100Y-3712D01*
X2523Y-3923D01*
X2312Y-3500D02*
X2523Y-3923D01*
X2312Y-3500D02*
X2523Y-3077D01*
X2100Y-3288D02*
X2523Y-3077D01*
X1677D02*
X2100Y-3288D01*
X1677Y-3077D02*
X1888Y-3500D01*
X1677Y-3923D02*
X1888Y-3500D01*
X1177Y-3923D02*
X1600Y-3712D01*
X2023Y-3923D01*
X1812Y-3500D02*
X2023Y-3923D01*
X1812Y-3500D02*
X2023Y-3077D01*
X1600Y-3288D02*
X2023Y-3077D01*
X1177D02*
X1600Y-3288D01*
X1177Y-3077D02*
X1388Y-3500D01*
X1177Y-3923D02*
X1388Y-3500D01*
X677Y-3923D02*
X1100Y-3712D01*
X1523Y-3923D01*
X1312Y-3500D02*
X1523Y-3923D01*
X1312Y-3500D02*
X1523Y-3077D01*
X1100Y-3288D02*
X1523Y-3077D01*
X677D02*
X1100Y-3288D01*
X677Y-3077D02*
X888Y-3500D01*
X677Y-3923D02*
X888Y-3500D01*
X177Y-3923D02*
X600Y-3712D01*
X1023Y-3923D01*
X812Y-3500D02*
X1023Y-3923D01*
X812Y-3500D02*
X1023Y-3077D01*
X600Y-3288D02*
X1023Y-3077D01*
X177D02*
X600Y-3288D01*
X177Y-3077D02*
X388Y-3500D01*
X177Y-3923D02*
X388Y-3500D01*
X-823Y-3923D02*
X-400Y-3712D01*
X23Y-3923D01*
X-188Y-3500D02*
X23Y-3923D01*
X-188Y-3500D02*
X23Y-3077D01*
X-400Y-3288D02*
X23Y-3077D01*
X-823D02*
X-400Y-3288D01*
X-823Y-3077D02*
X-612Y-3500D01*
X-823Y-3923D02*
X-612Y-3500D01*
X-323Y-3923D02*
X100Y-3712D01*
X523Y-3923D01*
X312Y-3500D02*
X523Y-3923D01*
X312Y-3500D02*
X523Y-3077D01*
X100Y-3288D02*
X523Y-3077D01*
X-323D02*
X100Y-3288D01*
X-323Y-3077D02*
X-112Y-3500D01*
X-323Y-3923D02*
X-112Y-3500D01*
X-1423Y52577D02*
X-1000Y52788D01*
X-577Y52577D01*
X-788Y53000D02*
X-577Y52577D01*
X-788Y53000D02*
X-577Y53423D01*
X-1000Y53212D02*
X-577Y53423D01*
X-1423D02*
X-1000Y53212D01*
X-1423Y53423D02*
X-1212Y53000D01*
X-1423Y52577D02*
X-1212Y53000D01*
X-1923Y52577D02*
X-1500Y52788D01*
X-1077Y52577D01*
X-1288Y53000D02*
X-1077Y52577D01*
X-1288Y53000D02*
X-1077Y53423D01*
X-1500Y53212D02*
X-1077Y53423D01*
X-1923D02*
X-1500Y53212D01*
X-1923Y53423D02*
X-1712Y53000D01*
X-1923Y52577D02*
X-1712Y53000D01*
X78577Y52577D02*
X79000Y52788D01*
X79423Y52577D01*
X79212Y53000D02*
X79423Y52577D01*
X79212Y53000D02*
X79423Y53423D01*
X79000Y53212D02*
X79423Y53423D01*
X78577D02*
X79000Y53212D01*
X78577Y53423D02*
X78788Y53000D01*
X78577Y52577D02*
X78788Y53000D01*
X79077Y52577D02*
X79500Y52788D01*
X79923Y52577D01*
X79712Y53000D02*
X79923Y52577D01*
X79712Y53000D02*
X79923Y53423D01*
X79500Y53212D02*
X79923Y53423D01*
X79077D02*
X79500Y53212D01*
X79077Y53423D02*
X79288Y53000D01*
X79077Y52577D02*
X79288Y53000D01*
X78577Y-3923D02*
X79000Y-3712D01*
X79423Y-3923D01*
X79212Y-3500D02*
X79423Y-3923D01*
X79212Y-3500D02*
X79423Y-3077D01*
X79000Y-3288D02*
X79423Y-3077D01*
X78577D02*
X79000Y-3288D01*
X78577Y-3077D02*
X78788Y-3500D01*
X78577Y-3923D02*
X78788Y-3500D01*
X79077Y-3923D02*
X79500Y-3712D01*
X79923Y-3923D01*
X79712Y-3500D02*
X79923Y-3923D01*
X79712Y-3500D02*
X79923Y-3077D01*
X79500Y-3288D02*
X79923Y-3077D01*
X79077D02*
X79500Y-3288D01*
X79077Y-3077D02*
X79288Y-3500D01*
X79077Y-3923D02*
X79288Y-3500D01*
D95*
X-9160Y-14983D02*
X89366D01*
X-9160Y-49273D02*
X89366D01*
X-9160Y-53083D02*
X89366D01*
Y-11173D01*
X-9160D02*
X89366D01*
X-9160Y-53083D02*
Y-11173D01*
X69585Y-53083D02*
Y-11173D01*
X56735Y-53083D02*
Y-11173D01*
X22557Y-53083D02*
Y-11173D01*
X4833Y-53083D02*
Y-11173D01*
D96*
X70728Y-12012D02*
Y-13840D01*
Y-12926D01*
X71946D01*
Y-12012D01*
Y-13840D01*
X72860D02*
X73470D01*
X73775Y-13535D01*
Y-12926D01*
X73470Y-12621D01*
X72860D01*
X72556Y-12926D01*
Y-13535D01*
X72860Y-13840D01*
X74384D02*
X74993D01*
X74689D01*
Y-12012D01*
X74384D01*
X76822Y-13840D02*
X76212D01*
X75908Y-13535D01*
Y-12926D01*
X76212Y-12621D01*
X76822D01*
X77126Y-12926D01*
Y-13231D01*
X75908D01*
X79564Y-12012D02*
X80783D01*
X80173D01*
Y-13840D01*
X81392Y-12621D02*
Y-13535D01*
X81697Y-13840D01*
X82611D01*
Y-14145D01*
X82306Y-14449D01*
X82002D01*
X82611Y-13840D02*
Y-12621D01*
X83220Y-14449D02*
Y-12621D01*
X84134D01*
X84439Y-12926D01*
Y-13535D01*
X84134Y-13840D01*
X83220D01*
X85963D02*
X85353D01*
X85049Y-13535D01*
Y-12926D01*
X85353Y-12621D01*
X85963D01*
X86267Y-12926D01*
Y-13231D01*
X85049D01*
X57878Y-13840D02*
Y-12012D01*
X58792D01*
X59097Y-12316D01*
Y-12926D01*
X58792Y-13231D01*
X57878D01*
X59707Y-13840D02*
X60316D01*
X60011D01*
Y-12012D01*
X59707D01*
X61535Y-12621D02*
X62144D01*
X62449Y-12926D01*
Y-13840D01*
X61535D01*
X61230Y-13535D01*
X61535Y-13231D01*
X62449D01*
X63363Y-12316D02*
Y-12621D01*
X63058D01*
X63668D01*
X63363D01*
Y-13535D01*
X63668Y-13840D01*
X65496D02*
X64886D01*
X64582Y-13535D01*
Y-12926D01*
X64886Y-12621D01*
X65496D01*
X65801Y-12926D01*
Y-13231D01*
X64582D01*
X67629Y-12012D02*
Y-13840D01*
X66715D01*
X66410Y-13535D01*
Y-12926D01*
X66715Y-12621D01*
X67629D01*
X24919Y-12012D02*
X23700D01*
Y-12926D01*
X24309D01*
X23700D01*
Y-13840D01*
X25528D02*
X26138D01*
X25833D01*
Y-12621D01*
X25528D01*
X27052Y-13840D02*
Y-12621D01*
X27966D01*
X28271Y-12926D01*
Y-13840D01*
X28880D02*
X29489D01*
X29185D01*
Y-12621D01*
X28880D01*
X30403Y-13840D02*
X31318D01*
X31622Y-13535D01*
X31318Y-13231D01*
X30708D01*
X30403Y-12926D01*
X30708Y-12621D01*
X31622D01*
X32232Y-12012D02*
Y-13840D01*
Y-12926D01*
X32536Y-12621D01*
X33146D01*
X33450Y-12926D01*
Y-13840D01*
X34974D02*
X34365D01*
X34060Y-13535D01*
Y-12926D01*
X34365Y-12621D01*
X34974D01*
X35279Y-12926D01*
Y-13231D01*
X34060D01*
X37107Y-12012D02*
Y-13840D01*
X36193D01*
X35888Y-13535D01*
Y-12926D01*
X36193Y-12621D01*
X37107D01*
X39544Y-12012D02*
Y-13840D01*
Y-12926D01*
X40763D01*
Y-12012D01*
Y-13840D01*
X41677D02*
X42287D01*
X42591Y-13535D01*
Y-12926D01*
X42287Y-12621D01*
X41677D01*
X41373Y-12926D01*
Y-13535D01*
X41677Y-13840D01*
X43201D02*
X43810D01*
X43506D01*
Y-12012D01*
X43201D01*
X45639Y-13840D02*
X45029D01*
X44724Y-13535D01*
Y-12926D01*
X45029Y-12621D01*
X45639D01*
X45943Y-12926D01*
Y-13231D01*
X44724D01*
X49600Y-12316D02*
X49295Y-12012D01*
X48686D01*
X48381Y-12316D01*
Y-12621D01*
X48686Y-12926D01*
X49295D01*
X49600Y-13231D01*
Y-13535D01*
X49295Y-13840D01*
X48686D01*
X48381Y-13535D01*
X50209Y-13840D02*
X50818D01*
X50514D01*
Y-12621D01*
X50209D01*
X51733D02*
X52951D01*
X51733Y-13840D01*
X52951D01*
X54475D02*
X53865D01*
X53561Y-13535D01*
Y-12926D01*
X53865Y-12621D01*
X54475D01*
X54780Y-12926D01*
Y-13231D01*
X53561D01*
X5976Y-12012D02*
Y-13840D01*
Y-12926D01*
X7194D01*
Y-12012D01*
Y-13840D01*
X7804D02*
X8413D01*
X8108D01*
Y-12621D01*
X7804D01*
X9632Y-12316D02*
Y-12621D01*
X9327D01*
X9937D01*
X9632D01*
Y-13535D01*
X9937Y-13840D01*
X13898Y-12316D02*
X13593Y-12012D01*
X12984D01*
X12679Y-12316D01*
Y-13535D01*
X12984Y-13840D01*
X13593D01*
X13898Y-13535D01*
X14812Y-13840D02*
X15421D01*
X15726Y-13535D01*
Y-12926D01*
X15421Y-12621D01*
X14812D01*
X14507Y-12926D01*
Y-13535D01*
X14812Y-13840D01*
X16335Y-12621D02*
Y-13535D01*
X16640Y-13840D01*
X17554D01*
Y-12621D01*
X18164Y-13840D02*
Y-12621D01*
X19078D01*
X19382Y-12926D01*
Y-13840D01*
X20296Y-12316D02*
Y-12621D01*
X19992D01*
X20601D01*
X20296D01*
Y-13535D01*
X20601Y-13840D01*
X-5655Y-12316D02*
X-5960Y-12012D01*
X-6569D01*
X-6874Y-12316D01*
Y-12621D01*
X-6569Y-12926D01*
X-5960D01*
X-5655Y-13231D01*
Y-13535D01*
X-5960Y-13840D01*
X-6569D01*
X-6874Y-13535D01*
X-5045Y-12621D02*
Y-13535D01*
X-4741Y-13840D01*
X-3827D01*
Y-14145D01*
X-4131Y-14449D01*
X-4436D01*
X-3827Y-13840D02*
Y-12621D01*
X-3217Y-13840D02*
Y-12621D01*
X-2913D01*
X-2608Y-12926D01*
Y-13840D01*
Y-12926D01*
X-2303Y-12621D01*
X-1998Y-12926D01*
Y-13840D01*
X-1389Y-12012D02*
Y-13840D01*
X-475D01*
X-170Y-13535D01*
Y-13231D01*
Y-12926D01*
X-475Y-12621D01*
X-1389D01*
X744Y-13840D02*
X1353D01*
X1658Y-13535D01*
Y-12926D01*
X1353Y-12621D01*
X744D01*
X439Y-12926D01*
Y-13535D01*
X744Y-13840D01*
X2267D02*
X2877D01*
X2572D01*
Y-12012D01*
X2267D01*
M02*
