%FSLAX43Y43*%
%MOMM*%
G71*
G01*
G75*
G04 Layer_Physical_Order=1*
G04 Layer_Color=255*
%ADD10R,0.800X1.800*%
%ADD11R,1.100X1.250*%
%ADD12C,1.500*%
%ADD13C,0.250*%
%ADD14C,0.300*%
%ADD15C,0.400*%
%ADD16C,0.500*%
%ADD17C,0.350*%
%ADD18C,1.650*%
%ADD19O,1.600X1.650*%
%ADD20C,1.600*%
%ADD21C,1.800*%
%ADD22C,1.520*%
%ADD23R,1.520X1.520*%
%ADD24R,1.500X1.500*%
%ADD25C,0.800*%
G36*
X61575Y52550D02*
X61575Y52317D01*
Y50300D01*
X63825D01*
Y52317D01*
X63825Y52482D01*
X64039Y52535D01*
X64236Y52378D01*
Y51552D01*
X65240D01*
Y51425D01*
X65367D01*
Y50421D01*
X65877D01*
X66054Y50244D01*
Y49993D01*
X65807Y49868D01*
X65534Y49981D01*
X65240Y50020D01*
X64946Y49981D01*
X64673Y49868D01*
X64438Y49687D01*
X64257Y49452D01*
X64144Y49179D01*
X64105Y48885D01*
X64144Y48591D01*
X64257Y48318D01*
X64438Y48083D01*
X64673Y47902D01*
X64946Y47789D01*
X65240Y47750D01*
X65534Y47789D01*
X65807Y47902D01*
X66054Y47777D01*
Y45907D01*
X66030Y45885D01*
X65804Y45798D01*
X65691Y45884D01*
X65478Y45972D01*
X65250Y46003D01*
X65022Y45972D01*
X64809Y45884D01*
X64626Y45744D01*
X64486Y45561D01*
X64398Y45348D01*
X64367Y45120D01*
X64398Y44892D01*
X64486Y44679D01*
X64626Y44496D01*
X64809Y44356D01*
X65022Y44268D01*
X65250Y44237D01*
X65478Y44268D01*
X65691Y44356D01*
X65804Y44442D01*
X66030Y44355D01*
X66054Y44333D01*
X66054Y15771D01*
X68650Y13175D01*
X68606Y13026D01*
X68544Y12928D01*
X68376Y12906D01*
X68188Y12828D01*
X68134Y12786D01*
X68048Y12844D01*
X67843Y12885D01*
X67415D01*
X67371Y12928D01*
X67197Y13044D01*
X66992Y13085D01*
X66529D01*
X66478Y13152D01*
X66316Y13276D01*
X66127Y13354D01*
X65925Y13381D01*
X65723Y13354D01*
X65534Y13276D01*
X65372Y13152D01*
X65359Y13135D01*
X61914D01*
X61880Y13216D01*
X61756Y13378D01*
X61594Y13503D01*
X61405Y13581D01*
X61203Y13607D01*
X61001Y13581D01*
X60812Y13503D01*
X60650Y13378D01*
X60526Y13216D01*
X60448Y13028D01*
X60421Y12826D01*
X60448Y12623D01*
X60526Y12435D01*
X60650Y12273D01*
X60812Y12149D01*
X61001Y12071D01*
X61083Y12060D01*
X61066Y11810D01*
X59106D01*
X58882Y11925D01*
X58855Y12127D01*
X58777Y12316D01*
X58653Y12478D01*
X58491Y12602D01*
X58302Y12680D01*
X58100Y12707D01*
X57898Y12680D01*
X57709Y12602D01*
X57547Y12478D01*
X57423Y12316D01*
X57345Y12127D01*
X57318Y11925D01*
X57345Y11723D01*
X57423Y11534D01*
X57547Y11372D01*
X57709Y11248D01*
X57898Y11170D01*
X58100Y11143D01*
X58154Y11150D01*
X58365Y10940D01*
X58530Y10829D01*
X58725Y10790D01*
X63082D01*
X63085Y10791D01*
X63722D01*
X63725Y10790D01*
X67232D01*
X67983Y10040D01*
X68148Y9929D01*
X68343Y9890D01*
X68739D01*
X68772Y9847D01*
X68934Y9723D01*
X69123Y9645D01*
X69325Y9618D01*
X69527Y9645D01*
X69716Y9723D01*
X69878Y9847D01*
X70002Y10009D01*
X70080Y10198D01*
X70107Y10400D01*
X70080Y10602D01*
X70002Y10791D01*
X69878Y10953D01*
X69716Y11077D01*
X69527Y11155D01*
X69325Y11182D01*
X69123Y11155D01*
X68934Y11077D01*
X68772Y10953D01*
X68512Y10952D01*
X68299Y11165D01*
X68328Y11251D01*
X68429Y11389D01*
X68578Y11369D01*
X68781Y11396D01*
X68969Y11474D01*
X69131Y11598D01*
X69255Y11760D01*
X69333Y11948D01*
X69355Y12116D01*
X69454Y12178D01*
X69603Y12222D01*
X70750Y11075D01*
X70582Y10855D01*
X70461Y10563D01*
X70420Y10250D01*
X70461Y9937D01*
X70582Y9645D01*
X70774Y9394D01*
X71025Y9202D01*
X71317Y9081D01*
X71630Y9040D01*
X71943Y9081D01*
X72235Y9202D01*
X72455Y9370D01*
X73006Y8818D01*
X78667Y8804D01*
X78767Y8563D01*
X78948Y8328D01*
X79183Y8147D01*
X79456Y8034D01*
X79750Y7995D01*
X80044Y8034D01*
X80317Y8147D01*
X80552Y8328D01*
X80733Y8563D01*
X80830Y8798D01*
X81067Y8797D01*
Y-250D01*
Y-250D01*
X81067Y-500D01*
D01*
X81051Y-743D01*
X81025Y-1002D01*
X80881Y-1479D01*
X75206Y-1479D01*
X75029Y-1302D01*
Y-752D01*
X74375D01*
Y-625D01*
X74248D01*
Y529D01*
X74080D01*
X73880Y650D01*
D01*
X73807Y900D01*
X73807Y901D01*
X73780Y1103D01*
X73702Y1292D01*
X73578Y1454D01*
X73416Y1578D01*
X73227Y1656D01*
X73025Y1683D01*
X72823Y1656D01*
X72584Y1778D01*
X72506Y1966D01*
X72381Y2128D01*
X72220Y2252D01*
X72031Y2330D01*
X71829Y2357D01*
X71626Y2330D01*
X71438Y2252D01*
X71276Y2128D01*
X71152Y1966D01*
X71074Y1778D01*
X71047Y1575D01*
X71074Y1373D01*
X71152Y1184D01*
X71198Y1124D01*
Y650D01*
X71060D01*
Y529D01*
X70692D01*
Y-625D01*
X70565D01*
Y-752D01*
X69911D01*
Y-1479D01*
X66509D01*
X66410Y3421D01*
X17704Y3421D01*
X14316Y6809D01*
X14400Y6934D01*
X14433Y7100D01*
Y36100D01*
X14400Y36266D01*
X14306Y36406D01*
X14166Y36500D01*
X14000Y36533D01*
X13617D01*
X3304Y46846D01*
X3304Y50296D01*
Y52351D01*
X3500Y52567D01*
X21146D01*
X21198Y52330D01*
X21009Y52252D01*
X20847Y52128D01*
X20723Y51966D01*
X20645Y51777D01*
X20618Y51575D01*
X20639Y51419D01*
X20539Y51304D01*
X20432Y51234D01*
X20375Y51258D01*
X20237Y51276D01*
Y50270D01*
Y49264D01*
X20375Y49282D01*
X20441Y49310D01*
X20720Y49156D01*
X20733Y49074D01*
X20469Y48810D01*
X20406Y48836D01*
X20110Y48875D01*
X19814Y48836D01*
X19538Y48721D01*
X19301Y48539D01*
X19119Y48302D01*
X19004Y48026D01*
X18965Y47730D01*
X19004Y47434D01*
X19119Y47158D01*
X19301Y46921D01*
X19538Y46739D01*
X19814Y46624D01*
X19920Y46610D01*
X20030Y46404D01*
X20039Y46342D01*
X19971Y46180D01*
X19944Y45977D01*
X19971Y45775D01*
X20049Y45587D01*
X20173Y45425D01*
X20335Y45300D01*
X20524Y45222D01*
X20726Y45196D01*
X20928Y45222D01*
X21117Y45300D01*
X21235Y45391D01*
X23437D01*
X23662Y45436D01*
X23852Y45563D01*
X24911Y46622D01*
X25190Y46585D01*
X25486Y46624D01*
X25762Y46739D01*
X25999Y46921D01*
X26181Y47158D01*
X26296Y47434D01*
X26335Y47730D01*
X26310Y47920D01*
X26363Y47959D01*
X26597Y47819D01*
X26585Y47730D01*
X26624Y47434D01*
X26739Y47158D01*
X26921Y46921D01*
X27158Y46739D01*
X27434Y46624D01*
X27730Y46585D01*
X28026Y46624D01*
X28302Y46739D01*
X28539Y46921D01*
X28721Y47158D01*
X28836Y47434D01*
X28875Y47730D01*
X28836Y48026D01*
X28721Y48302D01*
X28539Y48539D01*
X28302Y48721D01*
X28026Y48836D01*
X27730Y48875D01*
X27434Y48836D01*
X27217Y48746D01*
X27057Y48839D01*
X26995Y48912D01*
X27011Y48990D01*
Y49265D01*
X27261Y49367D01*
X27465Y49282D01*
X27603Y49264D01*
Y50270D01*
X27730D01*
Y50397D01*
X28736D01*
X28718Y50535D01*
X28616Y50781D01*
X28533Y50889D01*
X28656Y51139D01*
X29191D01*
X29315Y50889D01*
X29279Y50842D01*
X29164Y50566D01*
X29125Y50270D01*
X29164Y49974D01*
X29279Y49698D01*
X29461Y49461D01*
X29698Y49279D01*
X29974Y49164D01*
X30270Y49125D01*
X30566Y49164D01*
X30842Y49279D01*
X31079Y49461D01*
X31261Y49698D01*
X31376Y49974D01*
X31415Y50270D01*
X31376Y50566D01*
X31261Y50842D01*
X31225Y50889D01*
X31349Y51139D01*
X31731D01*
X31855Y50889D01*
X31819Y50842D01*
X31704Y50566D01*
X31665Y50270D01*
X31704Y49974D01*
X31819Y49698D01*
X32001Y49461D01*
X32238Y49279D01*
X32514Y49164D01*
X32810Y49125D01*
X33106Y49164D01*
X33382Y49279D01*
X33619Y49461D01*
X33801Y49698D01*
X33916Y49974D01*
X33955Y50270D01*
X33916Y50566D01*
X33801Y50842D01*
X33765Y50889D01*
X33889Y51139D01*
X34271D01*
X34395Y50889D01*
X34359Y50842D01*
X34244Y50566D01*
X34205Y50270D01*
X34244Y49974D01*
X34359Y49698D01*
X34541Y49461D01*
X34778Y49279D01*
X35054Y49164D01*
X35350Y49125D01*
X35646Y49164D01*
X35922Y49279D01*
X36159Y49461D01*
X36341Y49698D01*
X36456Y49974D01*
X36495Y50270D01*
X36456Y50566D01*
X36341Y50842D01*
X36305Y50889D01*
X36429Y51139D01*
X36811D01*
X36935Y50889D01*
X36899Y50842D01*
X36784Y50566D01*
X36745Y50270D01*
X36784Y49974D01*
X36899Y49698D01*
X37081Y49461D01*
X37318Y49279D01*
X37594Y49164D01*
X37890Y49125D01*
X38186Y49164D01*
X38389Y49248D01*
X38639Y49129D01*
Y48871D01*
X38389Y48752D01*
X38186Y48836D01*
X37890Y48875D01*
X37594Y48836D01*
X37318Y48721D01*
X37081Y48539D01*
X36899Y48302D01*
X36784Y48026D01*
X36745Y47730D01*
X36784Y47434D01*
X36899Y47158D01*
X37081Y46921D01*
X37318Y46739D01*
X37594Y46624D01*
X37890Y46585D01*
X38186Y46624D01*
X38415Y46719D01*
X38571Y46685D01*
X38712Y46615D01*
X38803Y46478D01*
X39778Y45503D01*
X39960Y45382D01*
X40175Y45339D01*
X41508D01*
X41659Y45223D01*
X41848Y45145D01*
X42050Y45118D01*
X42252Y45145D01*
X42441Y45223D01*
X42603Y45347D01*
X42727Y45509D01*
X42805Y45698D01*
X42832Y45900D01*
X42805Y46102D01*
X42727Y46291D01*
X42664Y46373D01*
X42795Y46608D01*
X42970Y46585D01*
X43266Y46624D01*
X43542Y46739D01*
X43779Y46921D01*
X43961Y47158D01*
X44076Y47434D01*
X44115Y47730D01*
X44076Y48026D01*
X43961Y48302D01*
X43779Y48539D01*
X43542Y48721D01*
X43266Y48836D01*
X42970Y48875D01*
X42674Y48836D01*
X42398Y48721D01*
X42161Y48539D01*
X41979Y48302D01*
X41864Y48026D01*
X41825Y47730D01*
X41864Y47434D01*
X41979Y47158D01*
X42161Y46921D01*
X42162Y46919D01*
X42063Y46680D01*
X42050Y46682D01*
X41848Y46655D01*
X41659Y46577D01*
X41508Y46461D01*
X40985D01*
X40935Y46711D01*
X41002Y46739D01*
X41239Y46921D01*
X41421Y47158D01*
X41536Y47434D01*
X41575Y47730D01*
X41536Y48026D01*
X41421Y48302D01*
X41239Y48539D01*
X41002Y48721D01*
X40726Y48836D01*
X40430Y48875D01*
X40134Y48836D01*
X40011Y48785D01*
X39761Y48951D01*
Y49215D01*
X40011Y49346D01*
X40165Y49282D01*
X40303Y49264D01*
Y50270D01*
X40430D01*
Y50397D01*
X41436D01*
X41418Y50535D01*
X41316Y50781D01*
X41194Y50940D01*
X41251Y51119D01*
X41306Y51190D01*
X41930D01*
X42054Y50940D01*
X41979Y50842D01*
X41864Y50566D01*
X41825Y50270D01*
X41864Y49974D01*
X41979Y49698D01*
X42161Y49461D01*
X42398Y49279D01*
X42674Y49164D01*
X42970Y49125D01*
X43266Y49164D01*
X43542Y49279D01*
X43779Y49461D01*
X43961Y49698D01*
X44076Y49974D01*
X44115Y50270D01*
X44076Y50566D01*
X43961Y50842D01*
X43886Y50940D01*
X44010Y51190D01*
X44634D01*
X44689Y51119D01*
X44746Y50940D01*
X44624Y50781D01*
X44522Y50535D01*
X44504Y50397D01*
X46516D01*
X46498Y50535D01*
X46396Y50781D01*
X46274Y50940D01*
X46331Y51119D01*
X46386Y51190D01*
X47010D01*
X47134Y50940D01*
X47059Y50842D01*
X46944Y50566D01*
X46905Y50270D01*
X46944Y49974D01*
X47059Y49698D01*
X47241Y49461D01*
X47478Y49279D01*
X47754Y49164D01*
X48050Y49125D01*
X48346Y49164D01*
X48622Y49279D01*
X48859Y49461D01*
X49041Y49698D01*
X49156Y49974D01*
X49195Y50270D01*
X49156Y50566D01*
X49041Y50842D01*
X48966Y50940D01*
X49090Y51190D01*
X49550D01*
X49674Y50940D01*
X49599Y50842D01*
X49484Y50566D01*
X49445Y50270D01*
X49484Y49974D01*
X49599Y49698D01*
X49781Y49461D01*
X50018Y49279D01*
X50294Y49164D01*
X50590Y49125D01*
X50886Y49164D01*
X51162Y49279D01*
X51190Y49300D01*
X51440Y49177D01*
Y48823D01*
X51190Y48700D01*
X51162Y48721D01*
X50886Y48836D01*
X50590Y48875D01*
X50294Y48836D01*
X50018Y48721D01*
X49781Y48539D01*
X49599Y48302D01*
X49484Y48026D01*
X49445Y47730D01*
X49484Y47434D01*
X49599Y47158D01*
X49781Y46921D01*
X50018Y46739D01*
X50294Y46624D01*
X50590Y46585D01*
X50886Y46624D01*
X51162Y46739D01*
X51232Y46792D01*
X51273Y46798D01*
X51551Y46722D01*
X51590Y46665D01*
X54040Y44215D01*
X54205Y44104D01*
X54237Y44098D01*
X54400Y44065D01*
X59025D01*
X59045Y43917D01*
X59123Y43729D01*
X59247Y43567D01*
X59409Y43443D01*
X59598Y43365D01*
X59800Y43338D01*
X60002Y43365D01*
X60191Y43443D01*
X60353Y43567D01*
X60477Y43729D01*
X60555Y43917D01*
X60582Y44120D01*
X60555Y44322D01*
X60477Y44511D01*
X60353Y44672D01*
X60191Y44797D01*
X60002Y44875D01*
X59800Y44901D01*
X59746Y44894D01*
X59705Y44935D01*
X59540Y45046D01*
X59345Y45085D01*
X54611D01*
X53228Y46468D01*
X53318Y46732D01*
X53395Y46742D01*
X53641Y46844D01*
X53853Y47007D01*
X54016Y47219D01*
X54118Y47465D01*
X54136Y47603D01*
X53130D01*
Y47730D01*
X53003D01*
Y48736D01*
X52865Y48718D01*
X52710Y48653D01*
X52460Y48784D01*
Y49050D01*
X52710Y49216D01*
X52834Y49164D01*
X53130Y49125D01*
X53426Y49164D01*
X53702Y49279D01*
X53939Y49461D01*
X54121Y49698D01*
X54236Y49974D01*
X54275Y50270D01*
X54236Y50566D01*
X54121Y50842D01*
X53939Y51079D01*
X53702Y51261D01*
X53426Y51376D01*
X53130Y51415D01*
X52834Y51376D01*
X52558Y51261D01*
X52310Y51360D01*
X51610Y52060D01*
X51445Y52171D01*
X51250Y52210D01*
X38577D01*
X38565Y52218D01*
X38350Y52261D01*
X26900D01*
X26685Y52218D01*
X26503Y52097D01*
X26053Y51647D01*
X25932Y51465D01*
X25929Y51449D01*
X25899Y51416D01*
X25646Y51310D01*
X25486Y51376D01*
X25190Y51415D01*
X24894Y51376D01*
X24806Y51339D01*
X24729Y51378D01*
X24591Y51521D01*
X24608Y51653D01*
X24581Y51855D01*
X24503Y52044D01*
X24379Y52205D01*
X24234Y52317D01*
X24233Y52344D01*
X24374Y52567D01*
X61332D01*
X61575Y52550D01*
D02*
G37*
G36*
X23420Y52344D02*
X23419Y52317D01*
X23274Y52205D01*
X23149Y52044D01*
X23071Y51855D01*
X23045Y51653D01*
X23051Y51603D01*
X23031Y51560D01*
X22840Y51390D01*
X22650Y51415D01*
X22409Y51383D01*
X22260Y51484D01*
X22182Y51575D01*
X22155Y51777D01*
X22077Y51966D01*
X21953Y52128D01*
X21791Y52252D01*
X21602Y52330D01*
X21654Y52567D01*
X23279D01*
X23420Y52344D01*
D02*
G37*
%LPC*%
G36*
X33798Y32783D02*
X33596Y32757D01*
X33407Y32679D01*
X33246Y32554D01*
X33121Y32393D01*
X33043Y32204D01*
X33017Y32002D01*
X32822Y31835D01*
X29750D01*
X29587Y31802D01*
X29555Y31796D01*
X29390Y31685D01*
X29176Y31472D01*
X29154Y31482D01*
X28952Y31508D01*
X28749Y31482D01*
X28561Y31404D01*
X28399Y31279D01*
X28275Y31118D01*
X28197Y30929D01*
X28170Y30727D01*
X28197Y30524D01*
X28275Y30336D01*
X28399Y30174D01*
X28561Y30050D01*
X28749Y29972D01*
X28952Y29945D01*
X29098Y29964D01*
X29226Y29850D01*
X29282Y29754D01*
X29272Y29729D01*
X29245Y29527D01*
X29272Y29324D01*
X29350Y29136D01*
X29474Y28974D01*
X29551Y28914D01*
X29537Y28655D01*
X29526Y28633D01*
X29509Y28626D01*
X29347Y28502D01*
X29223Y28340D01*
X29145Y28152D01*
X29118Y27949D01*
X29140Y27788D01*
X29049Y27711D01*
X28914Y27660D01*
X28401Y28173D01*
X28408Y28227D01*
X28382Y28429D01*
X28303Y28617D01*
X28179Y28779D01*
X28017Y28904D01*
X27829Y28982D01*
X27627Y29008D01*
X27424Y28982D01*
X27236Y28904D01*
X27074Y28779D01*
X26950Y28617D01*
X26871Y28429D01*
X26845Y28227D01*
X26871Y28024D01*
X26950Y27836D01*
X27074Y27674D01*
X27236Y27550D01*
X27424Y27471D01*
X27627Y27445D01*
X27680Y27452D01*
X28843Y26290D01*
X29008Y26179D01*
X29040Y26173D01*
X29203Y26140D01*
X30533D01*
X30553Y26125D01*
X30742Y26046D01*
X30944Y26020D01*
X31146Y26046D01*
X31335Y26125D01*
X31497Y26249D01*
X31621Y26411D01*
X31699Y26599D01*
X31726Y26801D01*
X31699Y27004D01*
X31650Y27123D01*
X31751Y27302D01*
X31813Y27353D01*
X31877Y27345D01*
X32079Y27371D01*
X32268Y27450D01*
X32429Y27574D01*
X32554Y27736D01*
X32632Y27924D01*
X32658Y28127D01*
X32632Y28329D01*
X32554Y28517D01*
X32481Y28612D01*
X32485Y28847D01*
X32512Y28931D01*
X32574Y28972D01*
X32777Y28945D01*
X32979Y28972D01*
X33168Y29050D01*
X33330Y29174D01*
X33454Y29336D01*
X33532Y29524D01*
X33558Y29727D01*
X33532Y29929D01*
X33454Y30117D01*
X33330Y30279D01*
X33168Y30404D01*
X32979Y30482D01*
X32777Y30508D01*
X32574Y30482D01*
X32386Y30404D01*
X32224Y30279D01*
X32100Y30117D01*
X32065Y30033D01*
X30615D01*
X30579Y30079D01*
X30417Y30204D01*
X30229Y30282D01*
X30027Y30308D01*
X29794Y30506D01*
X29784Y30638D01*
X29961Y30815D01*
X33122D01*
X33317Y30854D01*
X33482Y30965D01*
X33745Y31227D01*
X33798Y31220D01*
X34001Y31247D01*
X34189Y31325D01*
X34351Y31449D01*
X34475Y31611D01*
X34553Y31799D01*
X34580Y32002D01*
X34553Y32204D01*
X34475Y32393D01*
X34351Y32554D01*
X34189Y32679D01*
X34001Y32757D01*
X33798Y32783D01*
D02*
G37*
G36*
X18026Y39309D02*
X17824Y39282D01*
X17635Y39204D01*
X17473Y39080D01*
X17349Y38918D01*
X17271Y38729D01*
X17244Y38527D01*
X17271Y38325D01*
X17349Y38136D01*
X17473Y37974D01*
X17516Y37941D01*
Y34663D01*
X17473Y34630D01*
X17349Y34468D01*
X17271Y34279D01*
X17244Y34077D01*
X17271Y33875D01*
X17349Y33686D01*
X17473Y33524D01*
X17635Y33400D01*
X17824Y33322D01*
X17895Y33229D01*
X17894Y33227D01*
X17921Y33024D01*
X17999Y32836D01*
X18123Y32674D01*
X18285Y32550D01*
X18474Y32472D01*
X18676Y32445D01*
X18878Y32472D01*
X19067Y32550D01*
X19229Y32674D01*
X19353Y32836D01*
X19431Y33024D01*
X19700Y33149D01*
X19726Y33145D01*
X19928Y33172D01*
X20117Y33250D01*
X20279Y33374D01*
X20403Y33536D01*
X20481Y33725D01*
X20508Y33927D01*
X20481Y34129D01*
X20450Y34204D01*
X21028Y34782D01*
X21192Y34850D01*
X21354Y34974D01*
X21478Y35136D01*
X21556Y35325D01*
X21583Y35527D01*
X21556Y35729D01*
X21478Y35918D01*
X21354Y36080D01*
X21192Y36204D01*
X21003Y36282D01*
X20801Y36309D01*
X20599Y36282D01*
X20410Y36204D01*
X20248Y36080D01*
X20124Y35918D01*
X20046Y35729D01*
X20020Y35527D01*
X20046Y35325D01*
X20070Y35266D01*
X19560Y34756D01*
X19315Y34857D01*
X19310Y34864D01*
Y37215D01*
X19354Y37249D01*
X19478Y37411D01*
X19556Y37600D01*
X19583Y37802D01*
X19556Y38004D01*
X19478Y38193D01*
X19354Y38355D01*
X19192Y38479D01*
X19003Y38557D01*
X18801Y38584D01*
X18800Y38584D01*
X18781Y38729D01*
X18703Y38918D01*
X18579Y39080D01*
X18417Y39204D01*
X18228Y39282D01*
X18026Y39309D01*
D02*
G37*
G36*
X29177Y35859D02*
X28974Y35832D01*
X28786Y35754D01*
X28624Y35630D01*
X28500Y35468D01*
X28422Y35279D01*
X28396Y35086D01*
X26375D01*
X26160Y35043D01*
X25978Y34922D01*
X25971Y34911D01*
X25822Y34797D01*
X25698Y34635D01*
X25620Y34446D01*
X25593Y34244D01*
X25620Y34041D01*
X25698Y33853D01*
X25822Y33691D01*
X25984Y33567D01*
X26173Y33489D01*
X26375Y33462D01*
X26577Y33489D01*
X26766Y33567D01*
X26928Y33691D01*
X27052Y33853D01*
X27098Y33964D01*
X28825D01*
X29040Y34007D01*
X29222Y34128D01*
X29440Y34347D01*
X29567Y34400D01*
X29729Y34524D01*
X29854Y34686D01*
X29932Y34875D01*
X29958Y35077D01*
X29932Y35279D01*
X29854Y35468D01*
X29729Y35630D01*
X29567Y35754D01*
X29379Y35832D01*
X29177Y35859D01*
D02*
G37*
G36*
X51775Y32457D02*
X51573Y32430D01*
X51384Y32352D01*
X51222Y32228D01*
X51098Y32066D01*
X51020Y31877D01*
X50993Y31675D01*
X51020Y31473D01*
X51098Y31284D01*
X51222Y31122D01*
X51384Y30998D01*
X51573Y30920D01*
X51775Y30893D01*
X51977Y30920D01*
X52166Y30998D01*
X52328Y31122D01*
X52361Y31165D01*
X58148D01*
X58223Y30984D01*
X58347Y30822D01*
X58509Y30698D01*
X58698Y30620D01*
X58900Y30593D01*
X59102Y30620D01*
X59291Y30698D01*
X59453Y30822D01*
X59577Y30984D01*
X59655Y31173D01*
X59682Y31375D01*
X59655Y31577D01*
X59577Y31766D01*
X59453Y31928D01*
X59291Y32052D01*
X59102Y32130D01*
X58900Y32157D01*
X58799Y32143D01*
X58795Y32146D01*
X58600Y32185D01*
X52361D01*
X52328Y32228D01*
X52166Y32352D01*
X51977Y32430D01*
X51775Y32457D01*
D02*
G37*
G36*
X50125Y25432D02*
X49923Y25405D01*
X49734Y25327D01*
X49572Y25203D01*
X49448Y25041D01*
X49370Y24852D01*
X49368Y24838D01*
X45449Y20918D01*
X45409Y20902D01*
X45247Y20778D01*
X45123Y20616D01*
X45045Y20427D01*
X45018Y20225D01*
X45045Y20023D01*
X45123Y19834D01*
X45247Y19672D01*
X45409Y19548D01*
X45598Y19470D01*
X45800Y19443D01*
X46002Y19470D01*
X46191Y19548D01*
X46353Y19672D01*
X46477Y19834D01*
X46555Y20023D01*
X46582Y20225D01*
X46555Y20427D01*
X46509Y20537D01*
X49883Y23911D01*
X49923Y23895D01*
X50125Y23868D01*
X50327Y23895D01*
X50516Y23973D01*
X50678Y24097D01*
X50802Y24259D01*
X50880Y24448D01*
X50907Y24650D01*
X50880Y24852D01*
X50802Y25041D01*
X50678Y25203D01*
X50516Y25327D01*
X50327Y25405D01*
X50125Y25432D01*
D02*
G37*
G36*
X23326Y29933D02*
X23124Y29907D01*
X22935Y29829D01*
X22774Y29704D01*
X22649Y29542D01*
X22571Y29354D01*
X22545Y29152D01*
X22571Y28949D01*
X22649Y28761D01*
X22774Y28599D01*
X22777Y28596D01*
X22876Y28449D01*
X23163Y28162D01*
Y26973D01*
X23211Y26729D01*
X23349Y26522D01*
X24707Y25165D01*
X24695Y25136D01*
X24668Y24934D01*
X24695Y24731D01*
X24773Y24543D01*
X24868Y24419D01*
X24831Y24276D01*
X24763Y24169D01*
X24273D01*
X24195Y24221D01*
X24000Y24260D01*
X20535D01*
X18959Y25835D01*
X18839Y25916D01*
X18753Y26028D01*
X18591Y26152D01*
X18402Y26230D01*
X18200Y26257D01*
X17998Y26230D01*
X17809Y26152D01*
X17647Y26028D01*
X17523Y25866D01*
X17445Y25677D01*
X17418Y25475D01*
X17445Y25273D01*
X17523Y25084D01*
X17647Y24922D01*
X17809Y24798D01*
X17998Y24720D01*
X18043Y24714D01*
X18106Y24573D01*
X18126Y24451D01*
X18023Y24317D01*
X17945Y24129D01*
X17918Y23926D01*
X17945Y23724D01*
X18023Y23535D01*
X18114Y23417D01*
X17999Y23267D01*
X17921Y23079D01*
X17894Y22876D01*
X17921Y22674D01*
X17999Y22485D01*
X18103Y22350D01*
X18084Y22233D01*
X18020Y22087D01*
X17974Y22081D01*
X17785Y22003D01*
X17623Y21879D01*
X17499Y21717D01*
X17421Y21529D01*
X17394Y21326D01*
X17421Y21124D01*
X17499Y20935D01*
X17623Y20773D01*
X17785Y20649D01*
X17953Y20580D01*
X17921Y20503D01*
X17894Y20301D01*
X17921Y20099D01*
X17999Y19910D01*
X18123Y19748D01*
X18285Y19624D01*
X18474Y19546D01*
X18676Y19519D01*
X18878Y19546D01*
X19067Y19624D01*
X19229Y19748D01*
X19299Y19840D01*
X31339D01*
X31372Y19797D01*
X31516Y19687D01*
X31519Y19664D01*
X31361Y19455D01*
X31350Y19457D01*
X31148Y19430D01*
X30959Y19352D01*
X30797Y19228D01*
X30673Y19066D01*
X30595Y18877D01*
X30568Y18675D01*
X30334Y18610D01*
X19457D01*
X19455Y18627D01*
X19377Y18816D01*
X19253Y18978D01*
X19091Y19102D01*
X18902Y19180D01*
X18700Y19207D01*
X18498Y19180D01*
X18309Y19102D01*
X18147Y18978D01*
X18023Y18816D01*
X17945Y18627D01*
X17918Y18425D01*
X17945Y18223D01*
X18023Y18034D01*
X18126Y17900D01*
X18023Y17766D01*
X17945Y17577D01*
X17918Y17375D01*
X17945Y17173D01*
X18023Y16984D01*
X18147Y16822D01*
X18309Y16698D01*
X18498Y16620D01*
X18700Y16593D01*
X18902Y16620D01*
X19091Y16698D01*
X19253Y16822D01*
X19377Y16984D01*
X19421Y17090D01*
X30992D01*
X31024Y17048D01*
X31186Y16924D01*
X31374Y16846D01*
X31577Y16819D01*
X31779Y16846D01*
X31967Y16924D01*
X32129Y17048D01*
X32254Y17210D01*
X32332Y17399D01*
X32358Y17601D01*
X32332Y17803D01*
X32254Y17992D01*
X32129Y18154D01*
X32002Y18251D01*
X32027Y18284D01*
X32105Y18473D01*
X32132Y18675D01*
X32105Y18877D01*
X32027Y19066D01*
X31903Y19228D01*
X31759Y19338D01*
X31756Y19361D01*
X31914Y19570D01*
X31925Y19568D01*
X32127Y19595D01*
X32316Y19673D01*
X32478Y19797D01*
X32602Y19959D01*
X32680Y20148D01*
X32707Y20350D01*
X32680Y20552D01*
X32602Y20741D01*
X32478Y20903D01*
X32316Y21027D01*
X32256Y21052D01*
X32285Y21200D01*
X32246Y21395D01*
X32208Y21452D01*
X32195Y21552D01*
X32117Y21741D01*
X31993Y21903D01*
X31879Y21990D01*
X31918Y22190D01*
X31944Y22240D01*
X32568D01*
X32795Y22013D01*
X32793Y22000D01*
X32820Y21798D01*
X32898Y21609D01*
X33022Y21447D01*
X33184Y21323D01*
X33373Y21245D01*
X33575Y21218D01*
X33590Y21220D01*
X33840Y21015D01*
Y18271D01*
X33798Y18216D01*
X33720Y18027D01*
X33693Y17825D01*
X33720Y17623D01*
X33798Y17434D01*
X33922Y17272D01*
X34084Y17148D01*
X34273Y17070D01*
X34475Y17043D01*
X34677Y17070D01*
X34866Y17148D01*
X35028Y17272D01*
X35152Y17434D01*
X35230Y17623D01*
X35257Y17825D01*
X35230Y18027D01*
X35152Y18216D01*
X35028Y18378D01*
X34866Y18502D01*
X34860Y18504D01*
Y22089D01*
X35121Y22350D01*
X35175Y22343D01*
X35377Y22370D01*
X35566Y22448D01*
X35728Y22572D01*
X35852Y22734D01*
X35930Y22923D01*
X35957Y23125D01*
X35930Y23327D01*
X35852Y23516D01*
X35728Y23678D01*
X35566Y23802D01*
X35377Y23880D01*
X35175Y23907D01*
X35121Y23900D01*
X34810Y24210D01*
X34645Y24321D01*
X34450Y24360D01*
X33229D01*
X33034Y24321D01*
X32942Y24260D01*
X26225D01*
X26102Y24510D01*
X26127Y24543D01*
X26205Y24731D01*
X26232Y24934D01*
X26205Y25136D01*
X26127Y25324D01*
X26073Y25395D01*
X26039Y25567D01*
X25901Y25773D01*
X24437Y27237D01*
Y28425D01*
X24437Y28425D01*
X24389Y28669D01*
X24251Y28876D01*
X24251Y28876D01*
X24093Y29034D01*
X24108Y29152D01*
X24081Y29354D01*
X24003Y29542D01*
X23879Y29704D01*
X23717Y29829D01*
X23529Y29907D01*
X23326Y29933D01*
D02*
G37*
G36*
X48600Y26682D02*
X48398Y26655D01*
X48209Y26577D01*
X48047Y26453D01*
X47923Y26291D01*
X47845Y26102D01*
X47818Y25900D01*
X47825Y25846D01*
X44411Y22432D01*
X44402Y22433D01*
X44200Y22406D01*
X44011Y22328D01*
X43850Y22204D01*
X43725Y22042D01*
X43647Y21854D01*
X43621Y21651D01*
X43647Y21449D01*
X43725Y21260D01*
X43850Y21098D01*
X44011Y20974D01*
X44200Y20896D01*
X44402Y20870D01*
X44605Y20896D01*
X44793Y20974D01*
X44955Y21098D01*
X45079Y21260D01*
X45157Y21449D01*
X45184Y21651D01*
X45171Y21750D01*
X48546Y25125D01*
X48600Y25118D01*
X48802Y25145D01*
X48991Y25223D01*
X49153Y25347D01*
X49277Y25509D01*
X49355Y25698D01*
X49382Y25900D01*
X49355Y26102D01*
X49277Y26291D01*
X49153Y26453D01*
X48991Y26577D01*
X48802Y26655D01*
X48600Y26682D01*
D02*
G37*
G36*
X59528Y34558D02*
X59326Y34532D01*
X59137Y34454D01*
X58975Y34329D01*
X58942Y34286D01*
X55204D01*
X55155Y34307D01*
X54953Y34333D01*
X54750Y34307D01*
X54562Y34229D01*
X54400Y34104D01*
X54276Y33942D01*
X54198Y33754D01*
X54171Y33552D01*
X54198Y33349D01*
X54276Y33161D01*
X54400Y32999D01*
X54562Y32875D01*
X54750Y32797D01*
X54953Y32770D01*
X55155Y32797D01*
X55344Y32875D01*
X55505Y32999D01*
X55630Y33161D01*
X55674Y33267D01*
X58942D01*
X58975Y33224D01*
X59137Y33100D01*
X59326Y33022D01*
X59528Y32995D01*
X59730Y33022D01*
X59919Y33100D01*
X60081Y33224D01*
X60205Y33386D01*
X60283Y33574D01*
X60310Y33777D01*
X60283Y33979D01*
X60205Y34167D01*
X60081Y34329D01*
X59919Y34454D01*
X59730Y34532D01*
X59528Y34558D01*
D02*
G37*
G36*
X7410Y48875D02*
X7114Y48836D01*
X6838Y48721D01*
X6601Y48539D01*
X6419Y48302D01*
X6304Y48026D01*
X6265Y47730D01*
X6304Y47434D01*
X6419Y47158D01*
X6601Y46921D01*
X6838Y46739D01*
X7114Y46624D01*
X7410Y46585D01*
X7706Y46624D01*
X7982Y46739D01*
X8219Y46921D01*
X8401Y47158D01*
X8516Y47434D01*
X8555Y47730D01*
X8516Y48026D01*
X8401Y48302D01*
X8219Y48539D01*
X7982Y48721D01*
X7706Y48836D01*
X7410Y48875D01*
D02*
G37*
G36*
X9950D02*
X9654Y48836D01*
X9378Y48721D01*
X9141Y48539D01*
X8959Y48302D01*
X8844Y48026D01*
X8805Y47730D01*
X8844Y47434D01*
X8959Y47158D01*
X9141Y46921D01*
X9378Y46739D01*
X9654Y46624D01*
X9950Y46585D01*
X10246Y46624D01*
X10522Y46739D01*
X10759Y46921D01*
X10941Y47158D01*
X11056Y47434D01*
X11095Y47730D01*
X11056Y48026D01*
X10941Y48302D01*
X10759Y48539D01*
X10522Y48721D01*
X10246Y48836D01*
X9950Y48875D01*
D02*
G37*
G36*
X12490D02*
X12194Y48836D01*
X11918Y48721D01*
X11681Y48539D01*
X11499Y48302D01*
X11384Y48026D01*
X11345Y47730D01*
X11384Y47434D01*
X11499Y47158D01*
X11681Y46921D01*
X11918Y46739D01*
X12194Y46624D01*
X12490Y46585D01*
X12786Y46624D01*
X13062Y46739D01*
X13299Y46921D01*
X13481Y47158D01*
X13596Y47434D01*
X13635Y47730D01*
X13596Y48026D01*
X13481Y48302D01*
X13299Y48539D01*
X13062Y48721D01*
X12786Y48836D01*
X12490Y48875D01*
D02*
G37*
G36*
X4870D02*
X4574Y48836D01*
X4298Y48721D01*
X4061Y48539D01*
X3879Y48302D01*
X3764Y48026D01*
X3725Y47730D01*
X3764Y47434D01*
X3879Y47158D01*
X4061Y46921D01*
X4298Y46739D01*
X4574Y46624D01*
X4870Y46585D01*
X5166Y46624D01*
X5442Y46739D01*
X5679Y46921D01*
X5861Y47158D01*
X5976Y47434D01*
X6015Y47730D01*
X5976Y48026D01*
X5861Y48302D01*
X5679Y48539D01*
X5442Y48721D01*
X5166Y48836D01*
X4870Y48875D01*
D02*
G37*
G36*
X33652Y36884D02*
X33450Y36857D01*
X33261Y36779D01*
X33099Y36655D01*
X32975Y36493D01*
X32897Y36304D01*
X32870Y36102D01*
X32897Y35900D01*
X32975Y35711D01*
X33099Y35549D01*
X33261Y35425D01*
X33450Y35347D01*
X33652Y35320D01*
X33854Y35347D01*
X34043Y35425D01*
X34095Y35465D01*
X35164D01*
X35197Y35422D01*
X35359Y35298D01*
X35548Y35220D01*
X35750Y35193D01*
X35952Y35220D01*
X36141Y35298D01*
X36303Y35422D01*
X36427Y35584D01*
X36505Y35773D01*
X36532Y35975D01*
X36505Y36177D01*
X36427Y36366D01*
X36303Y36528D01*
X36141Y36652D01*
X35952Y36730D01*
X35750Y36757D01*
X35548Y36730D01*
X35359Y36652D01*
X35197Y36528D01*
X35164Y36485D01*
X34332D01*
X34329Y36493D01*
X34205Y36655D01*
X34043Y36779D01*
X33854Y36857D01*
X33652Y36884D01*
D02*
G37*
G36*
X59903Y40834D02*
X59701Y40807D01*
X59512Y40729D01*
X59350Y40605D01*
X59226Y40443D01*
X59148Y40254D01*
X59121Y40052D01*
X59123Y40039D01*
X58596Y39511D01*
X52952D01*
X52757Y39473D01*
X52611Y39375D01*
X52477Y39430D01*
X52275Y39457D01*
X52073Y39430D01*
X51884Y39352D01*
X51722Y39228D01*
X51598Y39066D01*
X51520Y38877D01*
X51493Y38675D01*
X51520Y38473D01*
X51598Y38284D01*
X51722Y38122D01*
X51740Y38109D01*
X51651Y37993D01*
X51572Y37804D01*
X51546Y37602D01*
X51572Y37400D01*
X51651Y37211D01*
X51775Y37049D01*
X51937Y36925D01*
X52125Y36847D01*
X52328Y36820D01*
X52530Y36847D01*
X52718Y36925D01*
X52880Y37049D01*
X53005Y37211D01*
X53023Y37255D01*
X53759Y37992D01*
X55941D01*
X56009Y37884D01*
X56046Y37742D01*
X55951Y37618D01*
X55873Y37429D01*
X55846Y37227D01*
X55873Y37025D01*
X55951Y36836D01*
X56075Y36674D01*
X56237Y36550D01*
X56425Y36472D01*
X56628Y36445D01*
X56825Y36471D01*
X56855Y36465D01*
X57050Y36504D01*
X57144Y36567D01*
X58944D01*
X58994Y36317D01*
X58962Y36304D01*
X58800Y36179D01*
X58785Y36160D01*
X52300D01*
X52225Y36145D01*
X52216Y36152D01*
X52027Y36230D01*
X51825Y36257D01*
X51623Y36230D01*
X51434Y36152D01*
X51272Y36028D01*
X51148Y35866D01*
X51070Y35677D01*
X51043Y35475D01*
X51070Y35273D01*
X51148Y35084D01*
X51272Y34922D01*
X51434Y34798D01*
X51623Y34720D01*
X51825Y34693D01*
X52027Y34720D01*
X52216Y34798D01*
X52378Y34922D01*
X52502Y35084D01*
X52525Y35140D01*
X58749D01*
X58800Y35074D01*
X58962Y34950D01*
X59151Y34872D01*
X59353Y34845D01*
X59555Y34872D01*
X59744Y34950D01*
X59906Y35074D01*
X60030Y35236D01*
X60108Y35424D01*
X60135Y35627D01*
X60108Y35829D01*
X60030Y36018D01*
X60013Y36040D01*
X60148Y36274D01*
X60177Y36270D01*
X60379Y36297D01*
X60568Y36375D01*
X60730Y36499D01*
X60854Y36661D01*
X60932Y36850D01*
X60959Y37052D01*
X60932Y37254D01*
X60854Y37443D01*
X60730Y37605D01*
X60568Y37729D01*
X60379Y37807D01*
X60177Y37834D01*
X59975Y37807D01*
X59786Y37729D01*
X59624Y37605D01*
X59611Y37587D01*
X57384D01*
X57249Y37768D01*
X57356Y37990D01*
X59401D01*
X59596Y38029D01*
X59762Y38140D01*
X59849Y38227D01*
X59903Y38220D01*
X60105Y38247D01*
X60294Y38325D01*
X60456Y38449D01*
X60580Y38611D01*
X60658Y38800D01*
X60685Y39002D01*
X60658Y39204D01*
X60580Y39393D01*
X60477Y39527D01*
X60580Y39661D01*
X60658Y39850D01*
X60685Y40052D01*
X60658Y40254D01*
X60580Y40443D01*
X60456Y40605D01*
X60294Y40729D01*
X60105Y40807D01*
X59903Y40834D01*
D02*
G37*
G36*
X58328Y52156D02*
X57611D01*
X56944Y51992D01*
X56206Y51608D01*
X55677Y51143D01*
X55203Y50464D01*
X54905Y49516D01*
X54905Y48707D01*
X55003Y48210D01*
X55280Y47542D01*
X55556Y47129D01*
X56076Y46609D01*
X56359Y46410D01*
X56959Y46126D01*
X57352Y46007D01*
X57698Y45956D01*
X58378D01*
X58847Y46049D01*
X59617Y46368D01*
X60689Y47440D01*
X61023Y48245D01*
X61105Y48656D01*
X61105Y49429D01*
X61002Y49946D01*
X60767Y50512D01*
X60454Y50982D01*
X59956Y51479D01*
X59510Y51777D01*
X58845Y52053D01*
X58328Y52156D01*
D02*
G37*
G36*
X80754Y6463D02*
X79877D01*
Y5586D01*
X80754D01*
Y6463D01*
D02*
G37*
G36*
X79623Y7594D02*
X78746D01*
Y6717D01*
X79623D01*
Y7594D01*
D02*
G37*
G36*
X80754D02*
X79877D01*
Y6717D01*
X80754D01*
Y7594D01*
D02*
G37*
G36*
X79623Y6463D02*
X78746D01*
Y5586D01*
X79623D01*
Y6463D01*
D02*
G37*
G36*
X70438Y529D02*
X69911D01*
Y-498D01*
X70438D01*
Y529D01*
D02*
G37*
G36*
X75029D02*
X74502D01*
Y-498D01*
X75029D01*
Y529D01*
D02*
G37*
G36*
X62778Y10432D02*
X62576Y10406D01*
X62387Y10328D01*
X62225Y10203D01*
X62101Y10041D01*
X62023Y9853D01*
X61997Y9651D01*
X62023Y9448D01*
X62101Y9260D01*
X62192Y9142D01*
Y8670D01*
X62237Y8445D01*
X62364Y8255D01*
X67508Y3110D01*
X67699Y2983D01*
X67923Y2939D01*
X75007D01*
X76400Y1546D01*
Y450D01*
X78250D01*
Y2450D01*
X77243D01*
X77166Y2550D01*
X77289Y2800D01*
X78250D01*
Y4800D01*
X76400D01*
Y4761D01*
X68668D01*
X65406Y8023D01*
X65407Y8025D01*
X65380Y8227D01*
X65302Y8416D01*
X65178Y8578D01*
X65016Y8702D01*
X64827Y8780D01*
X64625Y8807D01*
X64423Y8780D01*
X64234Y8702D01*
X64072Y8578D01*
X64064Y8567D01*
X63741Y8536D01*
X63364Y8913D01*
Y9142D01*
X63455Y9260D01*
X63533Y9448D01*
X63560Y9651D01*
X63533Y9853D01*
X63455Y10041D01*
X63331Y10203D01*
X63169Y10328D01*
X62981Y10406D01*
X62778Y10432D01*
D02*
G37*
G36*
X32000Y11107D02*
X31798Y11080D01*
X31609Y11002D01*
X31447Y10878D01*
X31323Y10716D01*
X31245Y10527D01*
X31218Y10325D01*
X31245Y10123D01*
X31323Y9934D01*
X31447Y9772D01*
X31490Y9739D01*
Y9386D01*
X31449Y9380D01*
X31261Y9302D01*
X31099Y9178D01*
X30975Y9016D01*
X30896Y8828D01*
X30870Y8625D01*
X30896Y8423D01*
X30975Y8235D01*
X31099Y8073D01*
X31261Y7948D01*
X31449Y7870D01*
X31652Y7844D01*
X31854Y7870D01*
X32042Y7948D01*
X32204Y8073D01*
X32329Y8235D01*
X32407Y8423D01*
X32433Y8625D01*
X32423Y8706D01*
X32471Y8779D01*
X32510Y8974D01*
Y9739D01*
X32553Y9772D01*
X32677Y9934D01*
X32755Y10123D01*
X32782Y10325D01*
X32755Y10527D01*
X32677Y10716D01*
X32553Y10878D01*
X32391Y11002D01*
X32202Y11080D01*
X32000Y11107D01*
D02*
G37*
G36*
X52550Y19032D02*
X52348Y19005D01*
X52159Y18927D01*
X51997Y18803D01*
X51901Y18677D01*
X48487Y15263D01*
X48336Y15112D01*
X47381D01*
X47379Y15117D01*
X47255Y15279D01*
X47093Y15403D01*
X46905Y15481D01*
X46702Y15508D01*
X46500Y15481D01*
X46312Y15403D01*
X46150Y15279D01*
X46025Y15117D01*
X46024Y15112D01*
X45694D01*
X45543Y15228D01*
X45355Y15306D01*
X45152Y15333D01*
X44950Y15306D01*
X44762Y15228D01*
X44600Y15104D01*
X44475Y14942D01*
X44397Y14753D01*
X44371Y14551D01*
X44397Y14349D01*
X44475Y14160D01*
X44600Y13998D01*
X44762Y13874D01*
X44950Y13796D01*
X45152Y13769D01*
X45355Y13796D01*
X45456Y13838D01*
X48600D01*
X48763Y13870D01*
X48834Y13698D01*
X48959Y13536D01*
X49121Y13412D01*
X49309Y13334D01*
X49511Y13307D01*
X49714Y13334D01*
X49902Y13412D01*
X50064Y13536D01*
X50188Y13698D01*
X50266Y13886D01*
X50293Y14089D01*
X50266Y14291D01*
X50188Y14479D01*
X50064Y14641D01*
X50040Y14660D01*
X50004Y14977D01*
X52501Y17475D01*
X52550Y17468D01*
X52752Y17495D01*
X52941Y17573D01*
X53103Y17697D01*
X53227Y17859D01*
X53305Y18048D01*
X53332Y18250D01*
X53305Y18452D01*
X53227Y18641D01*
X53103Y18803D01*
X52941Y18927D01*
X52752Y19005D01*
X52550Y19032D01*
D02*
G37*
G36*
X53675Y20682D02*
X53473Y20655D01*
X53284Y20577D01*
X53122Y20453D01*
X52998Y20291D01*
X52920Y20102D01*
X52893Y19900D01*
X52920Y19698D01*
X52998Y19509D01*
X53122Y19347D01*
X53284Y19223D01*
X53473Y19145D01*
X53675Y19118D01*
X53755Y19129D01*
X53830Y19079D01*
X54025Y19040D01*
X59464D01*
X59478Y19007D01*
X59602Y18846D01*
X59764Y18721D01*
X59953Y18643D01*
X60155Y18617D01*
X60357Y18643D01*
X60546Y18721D01*
X60708Y18846D01*
X60832Y19007D01*
X60910Y19196D01*
X60937Y19398D01*
X60910Y19601D01*
X60832Y19789D01*
X60708Y19951D01*
X60546Y20075D01*
X60357Y20153D01*
X60155Y20180D01*
X59953Y20153D01*
X59764Y20075D01*
X59744Y20060D01*
X54436D01*
X54430Y20102D01*
X54352Y20291D01*
X54228Y20453D01*
X54066Y20577D01*
X53877Y20655D01*
X53675Y20682D01*
D02*
G37*
G36*
X49675Y22757D02*
X49473Y22730D01*
X49284Y22652D01*
X49122Y22528D01*
X48998Y22366D01*
X48981Y22325D01*
X48928Y22245D01*
X48889Y22050D01*
Y20440D01*
X48853Y20408D01*
X48650Y20381D01*
X48462Y20303D01*
X48300Y20179D01*
X48176Y20017D01*
X48097Y19828D01*
X48071Y19626D01*
X48097Y19424D01*
X48176Y19235D01*
X48300Y19073D01*
X48462Y18949D01*
X48650Y18871D01*
X48853Y18844D01*
X49055Y18871D01*
X49243Y18949D01*
X49405Y19073D01*
X49530Y19235D01*
X49608Y19424D01*
X49634Y19626D01*
X49627Y19680D01*
X49759Y19812D01*
X49870Y19977D01*
X49908Y20172D01*
Y21233D01*
X50066Y21298D01*
X50228Y21422D01*
X50352Y21584D01*
X50430Y21773D01*
X50457Y21975D01*
X50430Y22177D01*
X50352Y22366D01*
X50228Y22528D01*
X50066Y22652D01*
X49877Y22730D01*
X49675Y22757D01*
D02*
G37*
G36*
X64950Y20382D02*
X64748Y20355D01*
X64559Y20277D01*
X64397Y20153D01*
X64273Y19991D01*
X64195Y19802D01*
X64168Y19600D01*
X64195Y19398D01*
X64227Y19321D01*
X61420Y16514D01*
X61278Y16533D01*
X61076Y16506D01*
X60887Y16428D01*
X60725Y16304D01*
X60601Y16142D01*
X60523Y15953D01*
X60496Y15751D01*
X60523Y15549D01*
X60601Y15360D01*
X60725Y15198D01*
X60887Y15074D01*
X61076Y14996D01*
X61278Y14969D01*
X61480Y14996D01*
X61669Y15074D01*
X61831Y15198D01*
X61955Y15360D01*
X62033Y15549D01*
X62054Y15706D01*
X65222Y18874D01*
X65341Y18923D01*
X65503Y19047D01*
X65627Y19209D01*
X65705Y19398D01*
X65732Y19600D01*
X65705Y19802D01*
X65627Y19991D01*
X65503Y20153D01*
X65341Y20277D01*
X65152Y20355D01*
X64950Y20382D01*
D02*
G37*
G36*
X43502Y16183D02*
X43300Y16156D01*
X43111Y16078D01*
X42950Y15954D01*
X42825Y15792D01*
X42747Y15603D01*
X42721Y15401D01*
X42747Y15199D01*
X42825Y15010D01*
X42950Y14848D01*
X42965Y14836D01*
Y12861D01*
X42922Y12828D01*
X42798Y12666D01*
X42720Y12477D01*
X42693Y12275D01*
X42720Y12073D01*
X42798Y11884D01*
X42922Y11722D01*
X43084Y11598D01*
X43273Y11520D01*
X43475Y11493D01*
X43677Y11520D01*
X43866Y11598D01*
X44028Y11722D01*
X44152Y11884D01*
X44230Y12073D01*
X44257Y12275D01*
X44230Y12477D01*
X44152Y12666D01*
X44028Y12828D01*
X43985Y12861D01*
Y14794D01*
X44055Y14848D01*
X44179Y15010D01*
X44257Y15199D01*
X44284Y15401D01*
X44257Y15603D01*
X44179Y15792D01*
X44055Y15954D01*
X43893Y16078D01*
X43705Y16156D01*
X43502Y16183D01*
D02*
G37*
G36*
X54203Y16058D02*
X54000Y16031D01*
X53812Y15953D01*
X53650Y15829D01*
X53526Y15667D01*
X53448Y15478D01*
X53421Y15276D01*
X53448Y15074D01*
X53526Y14885D01*
X53650Y14723D01*
X53693Y14690D01*
Y13695D01*
X53572Y13603D01*
X53448Y13441D01*
X53370Y13252D01*
X53343Y13050D01*
X53370Y12848D01*
X53448Y12659D01*
X53572Y12497D01*
X53734Y12373D01*
X53923Y12295D01*
X54125Y12268D01*
X54327Y12295D01*
X54516Y12373D01*
X54678Y12497D01*
X54802Y12659D01*
X54880Y12848D01*
X54907Y13050D01*
X54880Y13252D01*
X54802Y13441D01*
X54713Y13557D01*
Y14690D01*
X54756Y14723D01*
X54880Y14885D01*
X54958Y15074D01*
X54985Y15276D01*
X54958Y15478D01*
X54880Y15667D01*
X54756Y15829D01*
X54594Y15953D01*
X54405Y16031D01*
X54203Y16058D01*
D02*
G37*
G36*
X19601Y16333D02*
X19399Y16306D01*
X19210Y16228D01*
X19048Y16104D01*
X18924Y15942D01*
X18846Y15753D01*
X18819Y15551D01*
X18846Y15349D01*
X18924Y15160D01*
X19048Y14998D01*
X19210Y14874D01*
X19399Y14796D01*
X19454Y14724D01*
X19444Y14651D01*
X19471Y14449D01*
X19549Y14260D01*
X19673Y14098D01*
X19835Y13974D01*
X20024Y13896D01*
X20226Y13869D01*
X20428Y13896D01*
X20617Y13974D01*
X20779Y14098D01*
X20812Y14141D01*
X31062D01*
X31188Y14015D01*
X31353Y13905D01*
X31386Y13899D01*
X31549Y13866D01*
X34548D01*
X34619Y13773D01*
X34781Y13649D01*
X34970Y13571D01*
X35172Y13544D01*
X35374Y13571D01*
X35563Y13649D01*
X35725Y13773D01*
X35849Y13935D01*
X35927Y14123D01*
X35954Y14326D01*
X35927Y14528D01*
X36104Y14746D01*
X36293Y14824D01*
X36454Y14948D01*
X36579Y15110D01*
X36657Y15298D01*
X36683Y15501D01*
X36657Y15703D01*
X36579Y15892D01*
X36454Y16053D01*
X36293Y16178D01*
X36104Y16256D01*
X35902Y16282D01*
X35699Y16256D01*
X35511Y16178D01*
X35349Y16053D01*
X35316Y16011D01*
X35251D01*
X35088Y15978D01*
X35056Y15972D01*
X34890Y15861D01*
X34415Y15386D01*
X31967D01*
X31742Y15610D01*
X31577Y15721D01*
X31381Y15760D01*
X20934D01*
X20908Y15786D01*
X20742Y15897D01*
X20547Y15936D01*
X20281D01*
X20278Y15942D01*
X20154Y16104D01*
X19992Y16228D01*
X19803Y16306D01*
X19601Y16333D01*
D02*
G37*
G36*
X17570Y48875D02*
X17274Y48836D01*
X16998Y48721D01*
X16761Y48539D01*
X16579Y48302D01*
X16464Y48026D01*
X16425Y47730D01*
X16464Y47434D01*
X16579Y47158D01*
X16761Y46921D01*
X16998Y46739D01*
X17274Y46624D01*
X17570Y46585D01*
X17866Y46624D01*
X18142Y46739D01*
X18379Y46921D01*
X18561Y47158D01*
X18676Y47434D01*
X18715Y47730D01*
X18676Y48026D01*
X18561Y48302D01*
X18379Y48539D01*
X18142Y48721D01*
X17866Y48836D01*
X17570Y48875D01*
D02*
G37*
G36*
X6005Y51405D02*
X3735D01*
Y49135D01*
X6005D01*
Y51405D01*
D02*
G37*
G36*
X9823Y50143D02*
X8944D01*
X8962Y50005D01*
X9064Y49759D01*
X9227Y49547D01*
X9439Y49384D01*
X9685Y49282D01*
X9823Y49264D01*
Y50143D01*
D02*
G37*
G36*
X10956D02*
X10077D01*
Y49264D01*
X10215Y49282D01*
X10461Y49384D01*
X10673Y49547D01*
X10836Y49759D01*
X10938Y50005D01*
X10956Y50143D01*
D02*
G37*
G36*
X17570Y51415D02*
X17274Y51376D01*
X16998Y51261D01*
X16761Y51079D01*
X16579Y50842D01*
X16464Y50566D01*
X16425Y50270D01*
X16464Y49974D01*
X16579Y49698D01*
X16761Y49461D01*
X16998Y49279D01*
X17274Y49164D01*
X17570Y49125D01*
X17866Y49164D01*
X18142Y49279D01*
X18379Y49461D01*
X18561Y49698D01*
X18676Y49974D01*
X18715Y50270D01*
X18676Y50566D01*
X18561Y50842D01*
X18379Y51079D01*
X18142Y51261D01*
X17866Y51376D01*
X17570Y51415D01*
D02*
G37*
G36*
X65113Y51298D02*
X64236D01*
Y50421D01*
X65113D01*
Y51298D01*
D02*
G37*
G36*
X12490Y51415D02*
X12194Y51376D01*
X11918Y51261D01*
X11681Y51079D01*
X11499Y50842D01*
X11384Y50566D01*
X11345Y50270D01*
X11384Y49974D01*
X11499Y49698D01*
X11681Y49461D01*
X11918Y49279D01*
X12194Y49164D01*
X12490Y49125D01*
X12786Y49164D01*
X13062Y49279D01*
X13299Y49461D01*
X13481Y49698D01*
X13596Y49974D01*
X13635Y50270D01*
X13596Y50566D01*
X13481Y50842D01*
X13299Y51079D01*
X13062Y51261D01*
X12786Y51376D01*
X12490Y51415D01*
D02*
G37*
G36*
X15030D02*
X14734Y51376D01*
X14458Y51261D01*
X14221Y51079D01*
X14039Y50842D01*
X13924Y50566D01*
X13885Y50270D01*
X13924Y49974D01*
X14039Y49698D01*
X14221Y49461D01*
X14458Y49279D01*
X14734Y49164D01*
X15030Y49125D01*
X15326Y49164D01*
X15602Y49279D01*
X15839Y49461D01*
X16021Y49698D01*
X16136Y49974D01*
X16175Y50270D01*
X16136Y50566D01*
X16021Y50842D01*
X15839Y51079D01*
X15602Y51261D01*
X15326Y51376D01*
X15030Y51415D01*
D02*
G37*
G36*
X19983Y50143D02*
X19104D01*
X19122Y50005D01*
X19224Y49759D01*
X19387Y49547D01*
X19599Y49384D01*
X19845Y49282D01*
X19983Y49264D01*
Y50143D01*
D02*
G37*
G36*
X9823Y51276D02*
X9685Y51258D01*
X9439Y51156D01*
X9227Y50993D01*
X9064Y50781D01*
X8962Y50535D01*
X8944Y50397D01*
X9823D01*
Y51276D01*
D02*
G37*
G36*
X10077D02*
Y50397D01*
X10956D01*
X10938Y50535D01*
X10836Y50781D01*
X10673Y50993D01*
X10461Y51156D01*
X10215Y51258D01*
X10077Y51276D01*
D02*
G37*
G36*
X19983D02*
X19845Y51258D01*
X19599Y51156D01*
X19387Y50993D01*
X19224Y50781D01*
X19122Y50535D01*
X19104Y50397D01*
X19983D01*
Y51276D01*
D02*
G37*
G36*
X46516Y50143D02*
X45637D01*
Y49264D01*
X45775Y49282D01*
X46021Y49384D01*
X46233Y49547D01*
X46396Y49759D01*
X46498Y50005D01*
X46516Y50143D01*
D02*
G37*
G36*
X28736D02*
X27857D01*
Y49264D01*
X27995Y49282D01*
X28241Y49384D01*
X28453Y49547D01*
X28616Y49759D01*
X28718Y50005D01*
X28736Y50143D01*
D02*
G37*
G36*
X41436D02*
X40557D01*
Y49264D01*
X40695Y49282D01*
X40941Y49384D01*
X41153Y49547D01*
X41316Y49759D01*
X41418Y50005D01*
X41436Y50143D01*
D02*
G37*
G36*
X45383D02*
X44504D01*
X44522Y50005D01*
X44624Y49759D01*
X44787Y49547D01*
X44999Y49384D01*
X45245Y49282D01*
X45383Y49264D01*
Y50143D01*
D02*
G37*
G36*
X14903Y47603D02*
X14024D01*
X14042Y47465D01*
X14144Y47219D01*
X14307Y47007D01*
X14519Y46844D01*
X14765Y46742D01*
X14903Y46724D01*
Y47603D01*
D02*
G37*
G36*
X16036D02*
X15157D01*
Y46724D01*
X15295Y46742D01*
X15541Y46844D01*
X15753Y47007D01*
X15916Y47219D01*
X16018Y47465D01*
X16036Y47603D01*
D02*
G37*
G36*
X35223D02*
X34344D01*
X34362Y47465D01*
X34464Y47219D01*
X34627Y47007D01*
X34839Y46844D01*
X35085Y46742D01*
X35223Y46724D01*
Y47603D01*
D02*
G37*
G36*
X48050Y48875D02*
X47754Y48836D01*
X47478Y48721D01*
X47241Y48539D01*
X47059Y48302D01*
X46944Y48026D01*
X46905Y47730D01*
X46944Y47434D01*
X47059Y47158D01*
X47241Y46921D01*
X47478Y46739D01*
X47754Y46624D01*
X48050Y46585D01*
X48346Y46624D01*
X48622Y46739D01*
X48859Y46921D01*
X49041Y47158D01*
X49156Y47434D01*
X49195Y47730D01*
X49156Y48026D01*
X49041Y48302D01*
X48859Y48539D01*
X48622Y48721D01*
X48346Y48836D01*
X48050Y48875D01*
D02*
G37*
G36*
X30270D02*
X29974Y48836D01*
X29698Y48721D01*
X29461Y48539D01*
X29279Y48302D01*
X29164Y48026D01*
X29125Y47730D01*
X29164Y47434D01*
X29279Y47158D01*
X29461Y46921D01*
X29698Y46739D01*
X29974Y46624D01*
X30270Y46585D01*
X30566Y46624D01*
X30842Y46739D01*
X31079Y46921D01*
X31261Y47158D01*
X31376Y47434D01*
X31415Y47730D01*
X31376Y48026D01*
X31261Y48302D01*
X31079Y48539D01*
X30842Y48721D01*
X30566Y48836D01*
X30270Y48875D01*
D02*
G37*
G36*
X32810D02*
X32514Y48836D01*
X32238Y48721D01*
X32001Y48539D01*
X31819Y48302D01*
X31704Y48026D01*
X31665Y47730D01*
X31704Y47434D01*
X31819Y47158D01*
X32001Y46921D01*
X32238Y46739D01*
X32514Y46624D01*
X32810Y46585D01*
X33106Y46624D01*
X33382Y46739D01*
X33619Y46921D01*
X33801Y47158D01*
X33916Y47434D01*
X33955Y47730D01*
X33916Y48026D01*
X33801Y48302D01*
X33619Y48539D01*
X33382Y48721D01*
X33106Y48836D01*
X32810Y48875D01*
D02*
G37*
G36*
X45510D02*
X45214Y48836D01*
X44938Y48721D01*
X44701Y48539D01*
X44519Y48302D01*
X44404Y48026D01*
X44365Y47730D01*
X44404Y47434D01*
X44519Y47158D01*
X44701Y46921D01*
X44938Y46739D01*
X45214Y46624D01*
X45510Y46585D01*
X45806Y46624D01*
X46082Y46739D01*
X46319Y46921D01*
X46501Y47158D01*
X46616Y47434D01*
X46655Y47730D01*
X46616Y48026D01*
X46501Y48302D01*
X46319Y48539D01*
X46082Y48721D01*
X45806Y48836D01*
X45510Y48875D01*
D02*
G37*
G36*
X36356Y47603D02*
X35477D01*
Y46724D01*
X35615Y46742D01*
X35861Y46844D01*
X36073Y47007D01*
X36236Y47219D01*
X36338Y47465D01*
X36356Y47603D01*
D02*
G37*
G36*
X35477Y48736D02*
Y47857D01*
X36356D01*
X36338Y47995D01*
X36236Y48241D01*
X36073Y48453D01*
X35861Y48616D01*
X35615Y48718D01*
X35477Y48736D01*
D02*
G37*
G36*
X53257D02*
Y47857D01*
X54136D01*
X54118Y47995D01*
X54016Y48241D01*
X53853Y48453D01*
X53641Y48616D01*
X53395Y48718D01*
X53257Y48736D01*
D02*
G37*
G36*
X7410Y51415D02*
X7114Y51376D01*
X6838Y51261D01*
X6601Y51079D01*
X6419Y50842D01*
X6304Y50566D01*
X6265Y50270D01*
X6304Y49974D01*
X6419Y49698D01*
X6601Y49461D01*
X6838Y49279D01*
X7114Y49164D01*
X7410Y49125D01*
X7706Y49164D01*
X7982Y49279D01*
X8219Y49461D01*
X8401Y49698D01*
X8516Y49974D01*
X8555Y50270D01*
X8516Y50566D01*
X8401Y50842D01*
X8219Y51079D01*
X7982Y51261D01*
X7706Y51376D01*
X7410Y51415D01*
D02*
G37*
G36*
X35223Y48736D02*
X35085Y48718D01*
X34839Y48616D01*
X34627Y48453D01*
X34464Y48241D01*
X34362Y47995D01*
X34344Y47857D01*
X35223D01*
Y48736D01*
D02*
G37*
G36*
X62700Y50020D02*
X62406Y49981D01*
X62133Y49868D01*
X61898Y49687D01*
X61717Y49452D01*
X61604Y49179D01*
X61565Y48885D01*
X61604Y48591D01*
X61717Y48318D01*
X61898Y48083D01*
X62133Y47902D01*
X62406Y47789D01*
X62700Y47750D01*
X62994Y47789D01*
X63267Y47902D01*
X63502Y48083D01*
X63683Y48318D01*
X63796Y48591D01*
X63835Y48885D01*
X63796Y49179D01*
X63683Y49452D01*
X63502Y49687D01*
X63267Y49868D01*
X62994Y49981D01*
X62700Y50020D01*
D02*
G37*
G36*
X14903Y48736D02*
X14765Y48718D01*
X14519Y48616D01*
X14307Y48453D01*
X14144Y48241D01*
X14042Y47995D01*
X14024Y47857D01*
X14903D01*
Y48736D01*
D02*
G37*
G36*
X15157D02*
Y47857D01*
X16036D01*
X16018Y47995D01*
X15916Y48241D01*
X15753Y48453D01*
X15541Y48616D01*
X15295Y48718D01*
X15157Y48736D01*
D02*
G37*
%LPD*%
G36*
X19191Y22240D02*
X23403D01*
X23481Y22188D01*
X23676Y22149D01*
X26392D01*
X26587Y22188D01*
X26665Y22240D01*
X30936D01*
X30962Y22190D01*
X31001Y21990D01*
X30887Y21903D01*
X30763Y21741D01*
X30750Y21710D01*
X18933D01*
X18787Y21888D01*
X18875Y22121D01*
X18878Y22121D01*
X19067Y22199D01*
X19120Y22240D01*
X19191D01*
X19191Y22240D01*
D02*
G37*
D10*
X70565Y-625D02*
D03*
X71835D02*
D03*
X73105D02*
D03*
X74375D02*
D03*
D11*
X77325Y3800D02*
D03*
Y1450D02*
D03*
D12*
X62500Y-500D02*
D03*
X68500Y45500D02*
D03*
X4500Y43500D02*
D03*
Y-500D02*
D03*
X79750Y9130D02*
D03*
Y11670D02*
D03*
Y14210D02*
D03*
Y16750D02*
D03*
X62700Y48885D02*
D03*
X65240D02*
D03*
D13*
X68075Y11375D02*
X69200D01*
X68343Y10400D02*
X69325D01*
X67443Y11300D02*
X68343Y10400D01*
X63725Y11300D02*
X67443D01*
X67626Y11824D02*
X68075Y11375D01*
X60884Y11824D02*
X67626D01*
X60733Y11975D02*
X60884Y11824D01*
X60350Y11975D02*
X60733D01*
X76130Y8070D02*
Y10250D01*
X67575Y13075D02*
X67725Y12925D01*
X68899D01*
X70150Y11675D01*
Y10300D02*
Y11675D01*
X43475Y12275D02*
Y15228D01*
X31502Y17600D02*
X31650Y17452D01*
X34967Y14510D02*
X35152Y14326D01*
X34967Y14510D02*
X34967D01*
X34833Y14376D02*
X34967Y14510D01*
X31549Y14376D02*
X34833D01*
X31274Y14651D02*
X31549Y14376D01*
X31756Y14876D02*
X34626D01*
X31381Y15250D02*
X31756Y14876D01*
X20226Y14651D02*
X31274D01*
X20723Y15250D02*
X31381D01*
X20547Y15426D02*
X20723Y15250D01*
X34626Y14876D02*
X35251Y15501D01*
X31577Y17529D02*
X31652Y17454D01*
X35251Y15501D02*
X35902D01*
X35152Y14326D02*
X35172D01*
X34350Y17950D02*
Y22300D01*
Y17950D02*
X34475Y17825D01*
X53675Y19900D02*
X54025Y19550D01*
X60003D01*
X64950Y19523D02*
Y19600D01*
Y19523D02*
X65050Y19423D01*
X61378Y15751D02*
X65050Y19423D01*
X65825Y19050D02*
Y20750D01*
X65675Y18900D02*
X65825Y19050D01*
X65575Y21000D02*
X65825Y20750D01*
X61278Y15751D02*
X61378D01*
X41803Y15300D02*
X41851D01*
X43502Y15356D02*
Y15401D01*
X33929Y35975D02*
X35750D01*
X33727Y36177D02*
X33929Y35975D01*
X33652Y36102D02*
X33727Y36177D01*
X33652Y35881D02*
Y36102D01*
X58725Y11300D02*
X63082D01*
X63082Y11301D01*
X63724D01*
X63725Y11300D01*
X60003Y19550D02*
X60155Y19398D01*
X58100Y11925D02*
X58725Y11300D01*
X18249Y21276D02*
X18325Y21200D01*
X18676Y20301D02*
X18725Y20350D01*
X18173Y21200D02*
X18325Y21352D01*
X18173Y21200D02*
X18325D01*
X18200Y25475D02*
X18598D01*
X44402Y21651D02*
Y21702D01*
X48600Y25900D01*
X21400Y49020D02*
Y51575D01*
X20110Y47730D02*
X21400Y49020D01*
X22650Y47730D02*
X23900Y48980D01*
Y51579D01*
X23826Y51653D02*
X23900Y51579D01*
X48853Y19626D02*
X49399Y20172D01*
Y22050D01*
X31650Y17452D02*
X31652Y17454D01*
X33529Y22000D02*
X33575D01*
X34350Y22300D02*
X35175Y23125D01*
X33575Y22000D02*
X33803D01*
X18725Y20350D02*
X31925D01*
X18700Y18425D02*
X18746D01*
X43500Y15353D02*
X43550Y15303D01*
X43500Y15353D02*
X43502Y15356D01*
X43475Y15228D02*
X43550Y15303D01*
X54203Y13128D02*
Y15276D01*
X54125Y13050D02*
X54203Y13128D01*
X18700Y23926D02*
X18722D01*
X18676Y22876D02*
X18802Y22750D01*
X19191D01*
X30027Y29523D02*
Y29527D01*
X49399Y22050D02*
X49474Y21975D01*
X49675D01*
X45800Y20225D02*
Y20549D01*
X49901Y24650D01*
X50125D01*
X30027Y29523D02*
X32373D01*
X32500Y29650D01*
X28952Y30727D02*
X29152D01*
X29750Y31325D01*
X33122D01*
X33798Y32002D01*
X30227Y28127D02*
X31877D01*
X30202Y28152D02*
X30227Y28127D01*
X30000Y27950D02*
X30202Y28152D01*
X30000Y27950D02*
Y28078D01*
X29900Y27978D02*
X30000Y28078D01*
X30004Y30600D02*
X30200D01*
X28900Y29650D02*
X29054D01*
X30004Y30600D01*
X31324Y27576D02*
X31800Y27100D01*
X27627Y28227D02*
X29203Y26650D01*
X30793D02*
X30944Y26801D01*
X29203Y26650D02*
X30793D01*
X29900Y27949D02*
Y27978D01*
X30221Y27174D02*
X30623Y27576D01*
X31324D01*
X29579Y27174D02*
X30221D01*
X29075Y27678D02*
Y27800D01*
Y27678D02*
X29579Y27174D01*
X29125Y28825D02*
X29198Y28752D01*
X31406D01*
X31556Y28902D01*
X32398D01*
X32575Y28725D01*
X13750Y49600D02*
Y51300D01*
X19149Y22101D02*
X19325Y21925D01*
X18099Y22101D02*
X19149D01*
X17775Y22425D02*
X18099Y22101D01*
X19375Y16600D02*
X19400Y16625D01*
X18750Y16600D02*
X19375D01*
X18325Y16175D02*
X18750Y16600D01*
X30825Y19600D02*
X30850Y19575D01*
X31750D01*
X31900Y19425D01*
X32752Y21710D02*
Y21722D01*
Y21710D02*
X33043Y21418D01*
X30525Y21850D02*
X30800Y22125D01*
X32349D01*
X32752Y21722D01*
X31440Y21350D02*
X31626D01*
X18722Y23926D02*
X19398Y23250D01*
X19191Y22750D02*
X19191Y22750D01*
X32779D02*
X33529Y22000D01*
X32986Y23250D02*
X33111Y23125D01*
X33129Y23750D02*
X33229Y23850D01*
X23600Y24500D02*
X23850Y24250D01*
X33229Y23850D02*
X34450D01*
X35175Y23125D01*
X20500Y52400D02*
X20528Y52428D01*
X25122D01*
X25475Y52075D01*
X45275Y18000D02*
Y18076D01*
X23850Y24250D02*
X24207D01*
X26276Y23250D02*
X32986D01*
X26483Y22750D02*
X32779D01*
X26069Y23750D02*
X33129D01*
X24298Y24159D02*
X25771D01*
X26392Y22659D02*
X26483Y22750D01*
X24207Y24250D02*
X24298Y24159D01*
X18700Y17375D02*
X18925Y17600D01*
X31502D01*
X18746Y18425D02*
X19071Y18100D01*
X18598Y25475D02*
X20323Y23750D01*
X19905Y15426D02*
X20547D01*
X18676Y33227D02*
X18801Y33352D01*
Y34523D01*
X18800Y34524D02*
X18801Y34523D01*
X18800Y34524D02*
Y37455D01*
X20801Y35276D02*
Y35527D01*
X19726Y34201D02*
X20801Y35276D01*
X19726Y33927D02*
Y34201D01*
X18026Y34077D02*
Y38527D01*
X51775Y31675D02*
X58600D01*
X58900Y31375D01*
X70479Y37877D02*
X71630Y39028D01*
Y40250D01*
X67375Y30250D02*
Y36750D01*
X59600Y37900D02*
X59625Y37875D01*
X60450D01*
X26012Y24400D02*
X26350D01*
X25771Y24159D02*
X26012Y24400D01*
X59225Y34725D02*
X59300Y34650D01*
X60030Y34391D02*
X60116D01*
X55178Y33777D02*
X59528D01*
X58725Y36225D02*
X58750Y36200D01*
X58830D01*
X59032Y36402D01*
X59707D01*
X56855Y36975D02*
X56957Y37077D01*
X60673Y36177D02*
X60700Y36150D01*
X59932Y36177D02*
X60673D01*
X59707Y36402D02*
X59932Y36177D01*
X60177Y37052D02*
X60202Y37077D01*
X56957D02*
X60202D01*
X54953Y33552D02*
X55178Y33777D01*
X59300Y34650D02*
X59771D01*
X60030Y34391D01*
X38350Y51700D02*
X51250D01*
X51950Y51000D01*
Y47025D02*
Y51000D01*
Y47025D02*
X54400Y44575D01*
X51450Y36500D02*
X51700Y36250D01*
X52850D01*
X65125Y40200D02*
X67726D01*
X67728Y40202D01*
X31626Y21350D02*
X31776Y21200D01*
X25978Y23659D02*
X26069Y23750D01*
X24091Y23659D02*
X25978D01*
X24000Y23750D02*
X24091Y23659D01*
X20323Y23750D02*
X24000D01*
X26185Y23159D02*
X26276Y23250D01*
X23884Y23159D02*
X26185D01*
X23793Y23250D02*
X23884Y23159D01*
X19398Y23250D02*
X23793D01*
X23676Y22659D02*
X26392D01*
X23585Y22750D02*
X23676Y22659D01*
X19191Y22750D02*
X23585D01*
X18325Y21200D02*
X31776D01*
X19071Y18100D02*
X30727D01*
X31302Y18675D01*
X31577Y17529D02*
Y17601D01*
X31652Y8625D02*
X32000Y8974D01*
Y10325D01*
X51825Y35475D02*
X52125D01*
X52300Y35650D01*
X59330D01*
X59353Y35627D01*
X54400Y44575D02*
X59345D01*
X59800Y44120D01*
X59401Y38500D02*
X59903Y39002D01*
X57156Y38502D02*
X57157Y38500D01*
X59401D01*
X55450Y37825D02*
X55627Y38002D01*
X56949D01*
X57025Y37925D01*
X52952Y39002D02*
X58807D01*
X59857Y40052D01*
X59903D01*
X53548Y38502D02*
X57156D01*
X52626Y38675D02*
X52952Y39002D01*
X52275Y38675D02*
X52626D01*
X52328Y37602D02*
X52450Y37479D01*
Y37403D02*
Y37479D01*
Y37403D02*
X53548Y38502D01*
X57025Y37925D02*
X60600D01*
X60450Y37875D02*
X60575Y37750D01*
D14*
X68042Y12151D02*
X68578D01*
X67843Y12349D02*
X68042Y12151D01*
X67193Y12349D02*
X67843D01*
X66992Y12550D02*
X67193Y12349D01*
X65925Y12599D02*
X65974Y12550D01*
X66992D01*
X61203Y12601D02*
Y12826D01*
X61303Y12599D02*
X65925D01*
X48938Y14663D02*
X49511Y14089D01*
X48938Y14663D02*
Y14812D01*
D15*
X76130Y16750D02*
Y20250D01*
X62778Y8670D02*
Y9651D01*
Y8670D02*
X67923Y3525D01*
X75250D01*
X68425Y4175D02*
X76950D01*
X64625Y7975D02*
X68425Y4175D01*
X64625Y7975D02*
Y8025D01*
X76950Y4175D02*
X77325Y3800D01*
X75250Y3525D02*
X77325Y1450D01*
X20726Y45977D02*
X23437D01*
X25190Y47730D01*
D16*
X76075Y8015D02*
X76130Y8070D01*
X27875Y6725D02*
Y8597D01*
X28077Y8798D01*
X70565Y-625D02*
Y1514D01*
X70404Y1675D02*
X70565Y1514D01*
X45152Y14501D02*
Y14551D01*
Y14501D02*
X45178Y14475D01*
X71829Y1575D02*
X71835Y1569D01*
Y-625D02*
Y1569D01*
X73025Y901D02*
X73105Y821D01*
Y-625D02*
Y821D01*
X74375Y-625D02*
Y1625D01*
X52375Y18250D02*
X52550D01*
X48600Y14475D02*
X48938Y14812D01*
X52375Y18250D01*
X45178Y14475D02*
X48600D01*
X23326Y28899D02*
Y29152D01*
Y28899D02*
X23800Y28425D01*
Y26973D02*
Y28425D01*
Y26973D02*
X25450Y25323D01*
Y24934D02*
Y25323D01*
D17*
X26375Y34244D02*
Y34525D01*
X28825D02*
X29177Y34877D01*
Y35077D01*
X26375Y34525D02*
X28825D01*
X26450Y51250D02*
X26900Y51700D01*
X26450Y48990D02*
Y51250D01*
X25190Y47730D02*
X26450Y48990D01*
X26900Y51700D02*
X38350D01*
X39200Y50850D01*
Y46875D02*
Y50850D01*
Y46875D02*
X40175Y45900D01*
X42050D01*
X23621Y33292D02*
X23650Y33264D01*
D18*
X76130Y16750D02*
D03*
Y10250D02*
D03*
X71630Y16750D02*
D03*
Y10250D02*
D03*
X75900Y36750D02*
D03*
Y30250D02*
D03*
X76130Y26750D02*
D03*
Y20250D02*
D03*
X71630Y26750D02*
D03*
Y20250D02*
D03*
X71875Y36750D02*
D03*
Y30250D02*
D03*
X67375Y36750D02*
D03*
Y30250D02*
D03*
X76130Y46750D02*
D03*
Y40250D02*
D03*
X71630Y46750D02*
D03*
Y40250D02*
D03*
D19*
X80400Y36750D02*
D03*
Y30250D02*
D03*
D20*
X79030Y23050D02*
D03*
X68730D02*
D03*
D21*
Y26750D02*
D03*
X79030D02*
D03*
X68730Y20250D02*
D03*
X79030D02*
D03*
D22*
X53130Y47730D02*
D03*
Y50270D02*
D03*
X50590Y47730D02*
D03*
Y50270D02*
D03*
X48050Y47730D02*
D03*
Y50270D02*
D03*
X45510Y47730D02*
D03*
Y50270D02*
D03*
X42970Y47730D02*
D03*
Y50270D02*
D03*
X40430Y47730D02*
D03*
Y50270D02*
D03*
X37890Y47730D02*
D03*
Y50270D02*
D03*
X35350Y47730D02*
D03*
Y50270D02*
D03*
X32810Y47730D02*
D03*
Y50270D02*
D03*
X30270Y47730D02*
D03*
Y50270D02*
D03*
X27730Y47730D02*
D03*
Y50270D02*
D03*
X25190Y47730D02*
D03*
Y50270D02*
D03*
X22650Y47730D02*
D03*
Y50270D02*
D03*
X20110Y47730D02*
D03*
Y50270D02*
D03*
X17570Y47730D02*
D03*
Y50270D02*
D03*
X15030Y47730D02*
D03*
Y50270D02*
D03*
X12490Y47730D02*
D03*
Y50270D02*
D03*
X9950Y47730D02*
D03*
Y50270D02*
D03*
X7410Y47730D02*
D03*
Y50270D02*
D03*
X4870Y47730D02*
D03*
D23*
Y50270D02*
D03*
D24*
X79750Y6590D02*
D03*
X62700Y51425D02*
D03*
X65240D02*
D03*
D25*
X60800Y5800D02*
D03*
X69325Y10400D02*
D03*
X68578Y12151D02*
D03*
X27875Y6725D02*
D03*
X32000Y10325D02*
D03*
X31652Y8625D02*
D03*
X38400Y12825D02*
D03*
X43475Y12275D02*
D03*
X32077Y15651D02*
D03*
X31875Y12000D02*
D03*
X35902Y15501D02*
D03*
X35172Y14326D02*
D03*
X34475Y17825D02*
D03*
X61203Y12826D02*
D03*
X43425Y20025D02*
D03*
X31825Y42025D02*
D03*
X28175Y40525D02*
D03*
X25075Y44925D02*
D03*
X21950Y41100D02*
D03*
X53675Y19900D02*
D03*
X64950Y19600D02*
D03*
X61278Y15751D02*
D03*
X61500Y10325D02*
D03*
X63828Y10501D02*
D03*
X16750Y15325D02*
D03*
X70404Y1675D02*
D03*
X45152Y14551D02*
D03*
X41851Y15300D02*
D03*
X43502Y15401D02*
D03*
X35750Y35975D02*
D03*
X33652Y36102D02*
D03*
X64625Y8025D02*
D03*
X62778Y9651D02*
D03*
X65925Y12599D02*
D03*
X71829Y1575D02*
D03*
X73025Y901D02*
D03*
X60155Y19398D02*
D03*
X30625Y35775D02*
D03*
X74375Y1625D02*
D03*
X33798Y32002D02*
D03*
X38625Y24825D02*
D03*
X27627Y28227D02*
D03*
X18676Y20301D02*
D03*
Y22876D02*
D03*
X18200Y25475D02*
D03*
X35175Y23125D02*
D03*
X44402Y21651D02*
D03*
X48600Y25900D02*
D03*
X21400Y51575D02*
D03*
X23826Y51653D02*
D03*
X48853Y19626D02*
D03*
X33550Y23075D02*
D03*
X31200Y24625D02*
D03*
X33575Y22000D02*
D03*
X31925Y20350D02*
D03*
X28175Y36050D02*
D03*
X26375Y34244D02*
D03*
X29177Y35077D02*
D03*
X20726Y45977D02*
D03*
X18700Y17375D02*
D03*
X18700Y18425D02*
D03*
X46149Y40724D02*
D03*
X42050Y45900D02*
D03*
X56425Y15300D02*
D03*
X53000Y15175D02*
D03*
X54203Y15276D02*
D03*
X50778D02*
D03*
X48000Y15375D02*
D03*
X52550Y18250D02*
D03*
X58100Y11925D02*
D03*
X49511Y14089D02*
D03*
X46702Y14726D02*
D03*
X54125Y13050D02*
D03*
X18700Y23926D02*
D03*
X30027Y29527D02*
D03*
X49675Y21975D02*
D03*
X45800Y20225D02*
D03*
X50125Y24650D02*
D03*
X32777Y29727D02*
D03*
X31877Y28127D02*
D03*
X28952Y30727D02*
D03*
X30944Y26801D02*
D03*
X29900Y27949D02*
D03*
X31440Y21350D02*
D03*
X66300Y34250D02*
D03*
X45275Y18076D02*
D03*
X22350Y34850D02*
D03*
X25826Y28852D02*
D03*
X23621Y33292D02*
D03*
X25450Y24934D02*
D03*
X22750Y21975D02*
D03*
X22500Y16750D02*
D03*
X22750Y19250D02*
D03*
X18425Y5375D02*
D03*
X20226Y14651D02*
D03*
X19601Y15551D02*
D03*
X13150Y36925D02*
D03*
X18026Y34077D02*
D03*
X18676Y33227D02*
D03*
X20801Y35527D02*
D03*
X19726Y33927D02*
D03*
X20026Y37242D02*
D03*
X18801Y37802D02*
D03*
X18026Y38527D02*
D03*
X22750Y30075D02*
D03*
X23326Y29152D02*
D03*
X23400Y26100D02*
D03*
X22801Y28152D02*
D03*
X51775Y31675D02*
D03*
X58900Y31375D02*
D03*
X70479Y37877D02*
D03*
X59528Y33777D02*
D03*
X60177Y37052D02*
D03*
X54953Y33552D02*
D03*
X56628Y37227D02*
D03*
X59903Y39002D02*
D03*
X50375Y36075D02*
D03*
X67728Y40202D02*
D03*
X18176Y21326D02*
D03*
X31577Y17601D02*
D03*
X31350Y18675D02*
D03*
X20050Y10850D02*
D03*
X61825Y40000D02*
D03*
X65625Y25300D02*
D03*
X51825Y35475D02*
D03*
X59353Y35627D02*
D03*
X59800Y44120D02*
D03*
X59903Y40052D02*
D03*
X52275Y38675D02*
D03*
X52328Y37602D02*
D03*
M02*
